<?xml version="1.0" encoding="utf-8"?>
<!-- Generator: Adobe Illustrator 15.1.0, SVG Export Plug-In . SVG Version: 6.00 Build 0)  -->
<!DOCTYPE svg PUBLIC "-//W3C//DTD SVG 1.1//EN" "http://www.w3.org/Graphics/SVG/1.1/DTD/svg11.dtd">
<svg version="1.1" id="Layer_1" xmlns="http://www.w3.org/2000/svg" xmlns:xlink="http://www.w3.org/1999/xlink" x="0px" y="0px"
	 width="422px" height="77px" viewBox="0 0 422 77" enable-background="new 0 0 422 77" xml:space="preserve">
<g>
	<rect y="0.016" fill="#FFFFFF" width="422" height="77"/>
	<path fill="#E7E4DD" d="M417.002,19.016H5.001c-2.209,0-4,1.791-4,4s1.791,4,4,4h412.001c2.209,0,4-1.791,4-4
		S419.211,19.016,417.002,19.016z"/>
	<g>
		<path fill="#EC0082" d="M5.001,20.016h412.001c2.038,0,3.701,1.529,3.949,3.5c0.021-0.166,0.051-0.328,0.051-0.5
			c0-2.209-1.791-4-4-4H5.001c-2.209,0-4,1.791-4,4c0,0.172,0.029,0.334,0.051,0.5C1.3,21.545,2.963,20.016,5.001,20.016z"/>
	</g>
	<path fill="#75747C" d="M5.001,20.016c-2.038,0-3.701,1.529-3.949,3.5c-0.021-0.166-0.051-0.328-0.051-0.5c0,2.209,1.791,4,4,4H17
		v-7H5.001z"/>
	<path fill="#EC0082" d="M5.001,20.016H17v-1H5.001c-2.209,0-4,1.791-4,4c0,0.172,0.029,0.334,0.051,0.5
		C1.3,21.545,2.963,20.016,5.001,20.016z"/>
	<path fill="#75747C" d="M417.002,50.016H5.001c-2.209,0-4,1.791-4,4s1.791,4,4,4h412.001c2.209,0,4-1.791,4-4
		S419.211,50.016,417.002,50.016z"/>
	<g>
		<path fill="#EC0082" d="M5.001,51.016h412.001c2.038,0,3.701,1.529,3.949,3.5c0.021-0.166,0.051-0.328,0.051-0.5
			c0-2.209-1.791-4-4-4H5.001c-2.209,0-4,1.791-4,4c0,0.172,0.029,0.334,0.051,0.5C1.3,52.545,2.963,51.016,5.001,51.016z"/>
	</g>
	<circle fill="#75747C" cx="25.001" cy="54.016" r="13"/>
	<path fill="#EC0082" d="M25.001,42.016c7.011,0,12.71,5.555,12.975,12.5c0.007-0.166,0.025-0.33,0.025-0.5c0-7.18-5.82-13-13-13
		s-13,5.82-13,13c0,0.17,0.019,0.334,0.025,0.5C12.291,47.568,17.99,42.016,25.001,42.016z"/>
	<g>
		<path fill="#EC0082" d="M21.971,51.246V49.92c0.614-0.027,1.043-0.068,1.289-0.123c0.391-0.087,0.709-0.26,0.955-0.52
			c0.168-0.178,0.295-0.416,0.382-0.711c0.05-0.178,0.075-0.312,0.075-0.396h1.627v9.912h-1.996v-6.836H21.971z"/>
	</g>
	<g>
		<path fill="#00AEEF" d="M21.971,52.246V50.92c0.614-0.027,1.043-0.068,1.289-0.123c0.391-0.087,0.709-0.26,0.955-0.52
			c0.168-0.178,0.295-0.416,0.382-0.711c0.05-0.178,0.075-0.312,0.075-0.396h1.627v9.912h-1.996v-6.836H21.971z"/>
	</g>
	<path fill="#C76825" d="M83,10.016H25.001c-7.18,0-13,5.82-13,13c0,7.18,5.82,13,13,13H83c7.18,0,13-5.82,13-13
		C96,15.836,90.18,10.016,83,10.016z"/>
	<g>
		<path fill="#EC0082" d="M25.001,11.016H83c7.011,0,12.71,5.554,12.975,12.5c0.007-0.167,0.025-0.331,0.025-0.5
			c0-7.18-5.82-13-13-13H25.001c-7.18,0-13,5.82-13,13c0,0.169,0.019,0.333,0.025,0.5C12.291,16.569,17.99,11.016,25.001,11.016z"/>
	</g>
	<g>
		<path fill="#EC0082" d="M21.971,20.246V18.92c0.614-0.027,1.043-0.068,1.289-0.123c0.391-0.086,0.709-0.26,0.955-0.52
			c0.168-0.178,0.295-0.415,0.382-0.711c0.05-0.178,0.075-0.31,0.075-0.396h1.627v9.912h-1.996v-6.836H21.971z"/>
		<path fill="#EC0082" d="M39.149,23.971c0.065,0.46,0.193,0.804,0.384,1.032c0.349,0.415,0.947,0.622,1.794,0.622
			c0.507,0,0.919-0.055,1.235-0.164c0.6-0.209,0.9-0.599,0.9-1.169c0-0.333-0.147-0.59-0.441-0.772
			c-0.294-0.178-0.761-0.335-1.399-0.472l-1.091-0.239c-1.072-0.237-1.809-0.495-2.21-0.772c-0.679-0.465-1.019-1.192-1.019-2.181
			c0-0.902,0.332-1.652,0.997-2.249c0.664-0.597,1.64-0.896,2.927-0.896c1.075,0,1.992,0.281,2.75,0.844
			c0.758,0.563,1.157,1.38,1.194,2.451h-2.023c-0.038-0.606-0.309-1.037-0.813-1.292c-0.336-0.168-0.754-0.253-1.254-0.253
			c-0.556,0-1,0.109-1.332,0.328c-0.332,0.219-0.498,0.524-0.498,0.916c0,0.36,0.164,0.629,0.491,0.807
			c0.21,0.119,0.656,0.257,1.338,0.417l1.769,0.417c0.775,0.182,1.356,0.426,1.743,0.731c0.601,0.474,0.901,1.16,0.901,2.058
			c0,0.92-0.356,1.685-1.067,2.293c-0.712,0.608-1.717,0.913-3.016,0.913c-1.327,0-2.37-0.3-3.13-0.899
			c-0.76-0.599-1.14-1.423-1.14-2.471H39.149z"/>
		<path fill="#EC0082" d="M54.291,17.005v1.784h-3.015v8.292h-2.119V18.79h-3.028v-1.784L54.291,17.005L54.291,17.005z"/>
		<path fill="#EC0082" d="M57.371,17.005h2.382l3.565,10.076h-2.283L60.37,25.01h-3.71l-0.683,2.071h-2.202L57.371,17.005z
			 M57.232,23.274h2.581l-1.273-3.965L57.232,23.274z"/>
		<path fill="#EC0082" d="M71.057,17.265c0.371,0.16,0.686,0.394,0.943,0.704c0.213,0.255,0.382,0.538,0.507,0.848
			c0.124,0.31,0.187,0.663,0.187,1.06c0,0.479-0.121,0.949-0.362,1.412s-0.64,0.79-1.196,0.981c0.465,0.187,0.794,0.452,0.988,0.796
			c0.194,0.344,0.291,0.869,0.291,1.576v0.677c0,0.46,0.019,0.772,0.056,0.937c0.056,0.26,0.185,0.451,0.389,0.574v0.253h-2.324
			c-0.064-0.223-0.109-0.403-0.137-0.54c-0.055-0.283-0.084-0.572-0.089-0.868l-0.014-0.937c-0.009-0.643-0.12-1.071-0.333-1.285
			s-0.613-0.321-1.2-0.321h-2.056v3.951h-2.058V17.005h4.819C70.156,17.019,70.686,17.105,71.057,17.265z M66.705,18.755v2.707
			h2.266c0.45,0,0.788-0.055,1.013-0.164c0.398-0.191,0.597-0.57,0.597-1.135c0-0.611-0.193-1.021-0.578-1.23
			c-0.217-0.119-0.541-0.178-0.974-0.178H66.705z"/>
		<path fill="#EC0082" d="M82.031,17.005v1.784h-3.015v8.292h-2.119V18.79h-3.028v-1.784L82.031,17.005L82.031,17.005z"/>
	</g>
	<g>
		<path fill="#00AEEF" d="M21.971,21.246V19.92c0.614-0.027,1.043-0.068,1.289-0.123c0.391-0.086,0.709-0.26,0.955-0.52
			c0.168-0.178,0.295-0.415,0.382-0.711c0.05-0.178,0.075-0.31,0.075-0.396h1.627v9.912h-1.996v-6.836H21.971z"/>
		<path fill="#00AEEF" d="M39.149,24.971c0.065,0.46,0.193,0.804,0.384,1.032c0.349,0.415,0.947,0.622,1.794,0.622
			c0.507,0,0.919-0.055,1.235-0.164c0.6-0.209,0.9-0.599,0.9-1.169c0-0.333-0.147-0.59-0.441-0.772
			c-0.294-0.178-0.761-0.335-1.399-0.472l-1.091-0.239c-1.072-0.237-1.809-0.495-2.21-0.772c-0.679-0.465-1.019-1.192-1.019-2.181
			c0-0.902,0.332-1.652,0.997-2.249c0.664-0.597,1.64-0.896,2.927-0.896c1.075,0,1.992,0.281,2.75,0.844
			c0.758,0.563,1.157,1.38,1.194,2.451h-2.023c-0.038-0.606-0.309-1.037-0.813-1.292c-0.336-0.168-0.754-0.253-1.254-0.253
			c-0.556,0-1,0.109-1.332,0.328c-0.332,0.219-0.498,0.524-0.498,0.916c0,0.36,0.164,0.629,0.491,0.807
			c0.21,0.119,0.656,0.257,1.338,0.417l1.769,0.417c0.775,0.182,1.356,0.426,1.743,0.731c0.601,0.474,0.901,1.16,0.901,2.058
			c0,0.92-0.356,1.685-1.067,2.293c-0.712,0.608-1.717,0.913-3.016,0.913c-1.327,0-2.37-0.3-3.13-0.899
			c-0.76-0.599-1.14-1.423-1.14-2.471H39.149z"/>
		<path fill="#00AEEF" d="M54.291,18.005v1.784h-3.015v8.292h-2.119V19.79h-3.028v-1.784L54.291,18.005L54.291,18.005z"/>
		<path fill="#00AEEF" d="M57.371,18.005h2.382l3.565,10.076h-2.283L60.37,26.01h-3.71l-0.683,2.071h-2.202L57.371,18.005z
			 M57.232,24.274h2.581l-1.273-3.965L57.232,24.274z"/>
		<path fill="#00AEEF" d="M71.057,18.265c0.371,0.16,0.686,0.394,0.943,0.704c0.213,0.255,0.382,0.538,0.507,0.848
			c0.124,0.31,0.187,0.663,0.187,1.06c0,0.479-0.121,0.949-0.362,1.412s-0.64,0.79-1.196,0.981c0.465,0.187,0.794,0.452,0.988,0.796
			c0.194,0.344,0.291,0.869,0.291,1.576v0.677c0,0.46,0.019,0.772,0.056,0.937c0.056,0.26,0.185,0.451,0.389,0.574v0.253h-2.324
			c-0.064-0.223-0.109-0.403-0.137-0.54c-0.055-0.283-0.084-0.572-0.089-0.868l-0.014-0.937c-0.009-0.643-0.12-1.071-0.333-1.285
			s-0.613-0.321-1.2-0.321h-2.056v3.951h-2.058V18.005h4.819C70.156,18.019,70.686,18.105,71.057,18.265z M66.705,19.755v2.707
			h2.266c0.45,0,0.788-0.055,1.013-0.164c0.398-0.191,0.597-0.57,0.597-1.135c0-0.611-0.193-1.021-0.578-1.23
			c-0.217-0.119-0.541-0.178-0.974-0.178H66.705z"/>
		<path fill="#00AEEF" d="M82.031,18.005v1.784h-3.015v8.292h-2.119V19.79h-3.028v-1.784L82.031,18.005L82.031,18.005z"/>
	</g>
</g>
</svg>
