<?xml version="1.0" encoding="utf-8"?>
<!-- Generator: Adobe Illustrator 15.1.0, SVG Export Plug-In . SVG Version: 6.00 Build 0)  -->
<!DOCTYPE svg PUBLIC "-//W3C//DTD SVG 1.1//EN" "http://www.w3.org/Graphics/SVG/1.1/DTD/svg11.dtd">
<svg version="1.1" id="Layer_1" xmlns="http://www.w3.org/2000/svg" xmlns:xlink="http://www.w3.org/1999/xlink" x="0px" y="0px"
	 width="422px" height="108px" viewBox="0 0 422 108" enable-background="new 0 0 422 108" xml:space="preserve">
<g>
	<rect y="0.016" fill="#FFFFFF" width="422" height="108"/>
	<path fill="#E7E4DD" d="M417.002,50.016H5.001c-2.209,0-4,1.791-4,4c0,2.208,1.791,4,4,4h412.001c2.209,0,4-1.791,4-4
		C421.002,51.807,419.211,50.016,417.002,50.016z"/>
	<g>
		<path fill="#EC0082" d="M5.001,51.016h412.001c2.038,0,3.701,1.529,3.949,3.5c0.021-0.166,0.051-0.328,0.051-0.5
			c0-2.209-1.791-4-4-4H5.001c-2.209,0-4,1.791-4,4c0,0.172,0.029,0.334,0.051,0.5C1.3,52.545,2.963,51.016,5.001,51.016z"/>
	</g>
	<path fill="#75747C" d="M5.001,51c-2.038,0-3.701,1.529-3.949,3.5C1.03,54.334,1.001,54.172,1.001,54c0,2.209,1.791,4,4,4H17v-7
		H5.001z"/>
	<path fill="#EC0082" d="M5.001,51H17v-1H5.001c-2.209,0-4,1.791-4,4c0,0.172,0.029,0.334,0.051,0.5C1.3,52.529,2.963,51,5.001,51z"
		/>
	<path fill="#75747C" d="M417.002,81.016H5.001c-2.209,0-4,1.791-4,4s1.791,4,4,4h412.001c2.209,0,4-1.791,4-4
		S419.211,81.016,417.002,81.016z"/>
	<g>
		<path fill="#EC0082" d="M5.001,82.016h412.001c2.038,0,3.701,1.529,3.949,3.5c0.021-0.166,0.051-0.328,0.051-0.5
			c0-2.209-1.791-4-4-4H5.001c-2.209,0-4,1.791-4,4c0,0.172,0.029,0.334,0.051,0.5C1.3,83.545,2.963,82.016,5.001,82.016z"/>
	</g>
	<circle fill="#75747C" cx="25.001" cy="85.016" r="13"/>
	<path fill="#EC0082" d="M25.001,73.016c7.011,0,12.71,5.555,12.975,12.5c0.007-0.166,0.025-0.33,0.025-0.5c0-7.18-5.82-13-13-13
		s-13,5.82-13,13c0,0.17,0.019,0.334,0.025,0.5C12.291,78.568,17.99,73.016,25.001,73.016z"/>
	<g>
		<path fill="#EC0082" d="M23.284,86.039c0,0.396,0.063,0.725,0.191,0.984c0.236,0.479,0.666,0.719,1.289,0.719
			c0.382,0,0.715-0.131,0.999-0.395c0.284-0.264,0.426-0.641,0.426-1.133c0-0.65-0.264-1.086-0.791-1.305
			c-0.3-0.123-0.772-0.188-1.417-0.188V83.33c0.631-0.01,1.072-0.07,1.322-0.184c0.431-0.191,0.647-0.58,0.647-1.162
			c0-0.379-0.11-0.688-0.331-0.924c-0.221-0.236-0.531-0.355-0.931-0.355c-0.459,0-0.797,0.146-1.013,0.438
			c-0.216,0.293-0.319,0.684-0.31,1.17h-1.818c0.018-0.492,0.103-0.959,0.252-1.4c0.16-0.389,0.41-0.744,0.751-1.072
			c0.255-0.23,0.558-0.408,0.908-0.531s0.781-0.188,1.291-0.188c0.947,0,1.71,0.246,2.291,0.734s0.871,1.146,0.871,1.973
			c0,0.584-0.173,1.074-0.52,1.479c-0.219,0.25-0.447,0.422-0.684,0.514c0.178,0,0.433,0.152,0.766,0.457
			c0.497,0.461,0.745,1.09,0.745,1.887c0,0.839-0.291,1.576-0.871,2.212c-0.581,0.636-1.44,0.954-2.578,0.954
			c-1.402,0-2.376-0.459-2.923-1.375c-0.287-0.487-0.446-1.125-0.478-1.914h1.916V86.039z"/>
	</g>
	<g>
		<path fill="#00AEEF" d="M23.284,87.039c0,0.396,0.063,0.725,0.191,0.984c0.236,0.479,0.666,0.719,1.289,0.719
			c0.382,0,0.715-0.131,0.999-0.395c0.284-0.264,0.426-0.641,0.426-1.133c0-0.65-0.264-1.086-0.791-1.305
			c-0.3-0.123-0.772-0.188-1.417-0.188V84.33c0.631-0.01,1.072-0.07,1.322-0.184c0.431-0.191,0.647-0.58,0.647-1.162
			c0-0.379-0.11-0.688-0.331-0.924c-0.221-0.236-0.531-0.355-0.931-0.355c-0.459,0-0.797,0.146-1.013,0.438
			c-0.216,0.293-0.319,0.684-0.31,1.17h-1.818c0.018-0.492,0.103-0.959,0.252-1.4c0.16-0.389,0.41-0.744,0.751-1.072
			c0.255-0.23,0.558-0.408,0.908-0.531s0.781-0.188,1.291-0.188c0.947,0,1.71,0.246,2.291,0.734s0.871,1.146,0.871,1.973
			c0,0.584-0.173,1.074-0.52,1.479c-0.219,0.25-0.447,0.422-0.684,0.514c0.178,0,0.433,0.152,0.766,0.457
			c0.497,0.461,0.745,1.09,0.745,1.887c0,0.839-0.291,1.576-0.871,2.212c-0.581,0.636-1.44,0.954-2.578,0.954
			c-1.402,0-2.376-0.459-2.923-1.375c-0.287-0.487-0.446-1.125-0.478-1.914h1.916V87.039z"/>
	</g>
	<g>
		<path fill="#E7E4DD" d="M417.002,19.016H5.001c-2.209,0-4,1.791-4,4s1.791,4,4,4h412.001c2.209,0,4-1.791,4-4
			S419.211,19.016,417.002,19.016z"/>
		<g>
			<path fill="#EC0082" d="M5.001,20.016h412.001c2.038,0,3.701,1.529,3.949,3.5c0.021-0.166,0.051-0.328,0.051-0.5
				c0-2.209-1.791-4-4-4H5.001c-2.209,0-4,1.791-4,4c0,0.172,0.029,0.334,0.051,0.5C1.3,21.545,2.963,20.016,5.001,20.016z"/>
		</g>
		<circle fill="#E7E4DD" cx="25.001" cy="23.016" r="13"/>
		<path fill="#EC0082" d="M25.001,11.016c7.011,0,12.71,5.554,12.975,12.5c0.007-0.167,0.025-0.331,0.025-0.5c0-7.18-5.82-13-13-13
			s-13,5.82-13,13c0,0.169,0.019,0.333,0.025,0.5C12.291,16.569,17.99,11.016,25.001,11.016z"/>
		<g>
			<path fill="#FFFFFF" d="M23.284,26.04c0,0.396,0.063,0.725,0.191,0.984c0.236,0.479,0.666,0.718,1.289,0.718
				c0.382,0,0.715-0.131,0.999-0.393c0.284-0.262,0.426-0.639,0.426-1.131c0-0.652-0.264-1.087-0.791-1.306
				c-0.3-0.123-0.772-0.185-1.417-0.185v-1.395c0.631-0.009,1.072-0.071,1.322-0.185c0.431-0.191,0.647-0.579,0.647-1.162
				c0-0.378-0.11-0.686-0.331-0.923c-0.221-0.237-0.531-0.355-0.931-0.355c-0.459,0-0.797,0.146-1.013,0.438
				c-0.216,0.292-0.319,0.681-0.31,1.169h-1.818c0.018-0.492,0.103-0.959,0.252-1.401c0.16-0.387,0.41-0.745,0.751-1.073
				c0.255-0.232,0.558-0.41,0.908-0.533s0.781-0.185,1.291-0.185c0.947,0,1.71,0.245,2.291,0.735
				c0.581,0.49,0.871,1.147,0.871,1.972c0,0.583-0.173,1.076-0.52,1.477c-0.219,0.25-0.447,0.421-0.684,0.513
				c0.178,0,0.433,0.153,0.766,0.458c0.497,0.46,0.745,1.089,0.745,1.887c0,0.838-0.291,1.576-0.871,2.211
				c-0.581,0.636-1.44,0.954-2.578,0.954c-1.402,0-2.376-0.458-2.923-1.374c-0.287-0.488-0.446-1.125-0.478-1.914L23.284,26.04
				L23.284,26.04z"/>
		</g>
		<g>
			<path fill="#75747C" d="M23.284,25.04c0,0.396,0.063,0.725,0.191,0.984c0.236,0.479,0.666,0.718,1.289,0.718
				c0.382,0,0.715-0.131,0.999-0.393c0.284-0.262,0.426-0.639,0.426-1.131c0-0.652-0.264-1.087-0.791-1.306
				c-0.3-0.123-0.772-0.185-1.417-0.185v-1.395c0.631-0.009,1.072-0.071,1.322-0.185c0.431-0.191,0.647-0.579,0.647-1.162
				c0-0.378-0.11-0.686-0.331-0.923c-0.221-0.237-0.531-0.355-0.931-0.355c-0.459,0-0.797,0.146-1.013,0.438
				c-0.216,0.292-0.319,0.681-0.31,1.169h-1.818c0.018-0.492,0.103-0.959,0.252-1.401c0.16-0.387,0.41-0.745,0.751-1.073
				c0.255-0.232,0.558-0.41,0.908-0.533s0.781-0.185,1.291-0.185c0.947,0,1.71,0.245,2.291,0.735
				c0.581,0.49,0.871,1.147,0.871,1.972c0,0.583-0.173,1.076-0.52,1.477c-0.219,0.25-0.447,0.421-0.684,0.513
				c0.178,0,0.433,0.153,0.766,0.458c0.497,0.46,0.745,1.089,0.745,1.887c0,0.838-0.291,1.576-0.871,2.211
				c-0.581,0.636-1.44,0.954-2.578,0.954c-1.402,0-2.376-0.458-2.923-1.374c-0.287-0.488-0.446-1.125-0.478-1.914L23.284,25.04
				L23.284,25.04z"/>
		</g>
	</g>
	<path fill="#C76825" d="M83,41.016H25.001c-7.18,0-13,5.82-13,13c0,7.179,5.82,13,13,13H83c7.18,0,13-5.82,13-13
		C96,46.836,90.18,41.016,83,41.016z"/>
	<g>
		<path fill="#EC0082" d="M25.001,42.016H83c7.011,0,12.71,5.554,12.975,12.5c0.007-0.167,0.025-0.331,0.025-0.5
			c0-7.18-5.82-13-13-13H25.001c-7.18,0-13,5.82-13,13c0,0.169,0.019,0.333,0.025,0.5C12.291,47.569,17.99,42.016,25.001,42.016z"/>
	</g>
	<g>
		<path fill="#EC0082" d="M23.283,55.039c0,0.396,0.063,0.725,0.191,0.984c0.236,0.479,0.666,0.719,1.289,0.719
			c0.382,0,0.715-0.131,0.999-0.395c0.284-0.264,0.426-0.641,0.426-1.133c0-0.65-0.264-1.086-0.791-1.305
			c-0.3-0.123-0.772-0.185-1.417-0.185V52.33c0.631-0.009,1.072-0.071,1.322-0.185c0.431-0.191,0.647-0.579,0.647-1.162
			c0-0.378-0.11-0.686-0.331-0.923c-0.221-0.237-0.531-0.355-0.931-0.355c-0.459,0-0.797,0.146-1.013,0.438
			c-0.216,0.292-0.319,0.681-0.31,1.169h-1.818c0.018-0.492,0.103-0.959,0.252-1.401c0.16-0.387,0.41-0.745,0.751-1.073
			c0.255-0.232,0.558-0.41,0.908-0.533s0.781-0.185,1.291-0.185c0.947,0,1.71,0.245,2.291,0.735c0.581,0.49,0.871,1.147,0.871,1.972
			c0,0.583-0.173,1.076-0.52,1.477c-0.219,0.25-0.447,0.421-0.684,0.513c0.178,0,0.433,0.153,0.766,0.458
			c0.497,0.46,0.745,1.089,0.745,1.886c0,0.839-0.291,1.575-0.871,2.212c-0.581,0.636-1.44,0.954-2.578,0.954
			c-1.402,0-2.376-0.459-2.923-1.375c-0.287-0.487-0.446-1.125-0.478-1.914L23.283,55.039L23.283,55.039z"/>
		<path fill="#EC0082" d="M39.149,54.971c0.065,0.461,0.193,0.805,0.384,1.033c0.349,0.414,0.947,0.621,1.794,0.621
			c0.507,0,0.919-0.055,1.235-0.164c0.6-0.209,0.9-0.6,0.9-1.168c0-0.333-0.147-0.591-0.441-0.773
			c-0.294-0.178-0.761-0.333-1.399-0.472l-1.091-0.239c-1.072-0.237-1.809-0.495-2.21-0.772c-0.679-0.465-1.019-1.192-1.019-2.181
			c0-0.902,0.332-1.652,0.997-2.249c0.664-0.597,1.64-0.896,2.927-0.896c1.075,0,1.992,0.281,2.75,0.844
			c0.758,0.563,1.157,1.38,1.194,2.451h-2.023c-0.038-0.606-0.309-1.037-0.813-1.292c-0.336-0.168-0.754-0.253-1.254-0.253
			c-0.556,0-1,0.109-1.332,0.328c-0.332,0.219-0.498,0.524-0.498,0.916c0,0.36,0.164,0.629,0.491,0.807
			c0.21,0.119,0.656,0.257,1.338,0.417l1.769,0.417c0.775,0.182,1.356,0.426,1.743,0.731c0.601,0.474,0.901,1.16,0.901,2.057
			c0,0.921-0.356,1.687-1.067,2.294c-0.712,0.608-1.717,0.913-3.016,0.913c-1.327,0-2.37-0.301-3.13-0.899
			c-0.76-0.599-1.14-1.422-1.14-2.471H39.149z"/>
		<path fill="#EC0082" d="M54.421,49.79h-5.332v2.14h4.895v1.75h-4.895v2.589h5.578v1.812h-7.636V48.005h7.39V49.79z"/>
		<path fill="#EC0082" d="M56.273,48.005h2.207l4,7.026v-7.026h1.962v10.077h-2.105l-4.102-7.15v7.15h-1.962V48.005z"/>
		<path fill="#EC0082" d="M72.322,48.224c0.707,0.232,1.279,0.659,1.717,1.278c0.352,0.501,0.591,1.043,0.719,1.627
			c0.127,0.583,0.191,1.139,0.191,1.668c0,1.34-0.269,2.475-0.807,3.404c-0.73,1.254-1.856,1.881-3.38,1.881h-4.344V48.005h4.344
			C71.387,48.015,71.907,48.087,72.322,48.224z M68.462,49.755v6.577h1.944c0.995,0,1.689-0.49,2.082-1.471
			c0.214-0.537,0.322-1.177,0.322-1.92c0-1.025-0.161-1.812-0.483-2.362c-0.322-0.55-0.962-0.824-1.92-0.824H68.462z"/>
	</g>
	<g>
		<path fill="#00AEEF" d="M23.283,56.039c0,0.396,0.063,0.725,0.191,0.984c0.236,0.479,0.666,0.719,1.289,0.719
			c0.382,0,0.715-0.131,0.999-0.395c0.284-0.264,0.426-0.641,0.426-1.133c0-0.65-0.264-1.086-0.791-1.305
			c-0.3-0.123-0.772-0.186-1.417-0.186v-1.396c0.631-0.009,1.072-0.071,1.322-0.185c0.431-0.191,0.647-0.579,0.647-1.162
			c0-0.378-0.11-0.686-0.331-0.923c-0.221-0.237-0.531-0.355-0.931-0.355c-0.459,0-0.797,0.146-1.013,0.438
			c-0.216,0.292-0.319,0.681-0.31,1.169h-1.818c0.018-0.492,0.103-0.959,0.252-1.401c0.16-0.387,0.41-0.745,0.751-1.073
			c0.255-0.232,0.558-0.41,0.908-0.533c0.35-0.123,0.781-0.185,1.291-0.185c0.947,0,1.71,0.245,2.291,0.735
			c0.581,0.49,0.871,1.147,0.871,1.972c0,0.583-0.173,1.076-0.52,1.477c-0.219,0.25-0.447,0.421-0.684,0.513
			c0.178,0,0.433,0.153,0.766,0.458c0.497,0.46,0.745,1.089,0.745,1.886c0,0.839-0.291,1.576-0.871,2.212
			c-0.581,0.636-1.44,0.954-2.578,0.954c-1.402,0-2.376-0.459-2.923-1.375c-0.287-0.487-0.446-1.125-0.478-1.914h1.916V56.039z"/>
		<path fill="#00AEEF" d="M39.149,55.971c0.065,0.461,0.193,0.805,0.384,1.033c0.349,0.414,0.947,0.621,1.794,0.621
			c0.507,0,0.919-0.055,1.235-0.164c0.6-0.209,0.9-0.6,0.9-1.168c0-0.333-0.147-0.591-0.441-0.773
			c-0.294-0.178-0.761-0.334-1.399-0.471l-1.091-0.24c-1.072-0.235-1.809-0.495-2.21-0.771c-0.679-0.465-1.019-1.192-1.019-2.181
			c0-0.902,0.332-1.652,0.997-2.249c0.664-0.597,1.64-0.896,2.927-0.896c1.075,0,1.992,0.281,2.75,0.844
			c0.758,0.563,1.157,1.38,1.194,2.451h-2.023c-0.038-0.606-0.309-1.037-0.813-1.292c-0.336-0.168-0.754-0.253-1.254-0.253
			c-0.556,0-1,0.109-1.332,0.328c-0.332,0.219-0.498,0.524-0.498,0.916c0,0.36,0.164,0.629,0.491,0.807
			c0.21,0.119,0.656,0.257,1.338,0.417l1.769,0.417c0.775,0.182,1.356,0.426,1.743,0.731c0.601,0.474,0.901,1.158,0.901,2.057
			c0,0.922-0.356,1.688-1.067,2.295c-0.712,0.607-1.717,0.912-3.016,0.912c-1.327,0-2.37-0.301-3.13-0.898
			c-0.76-0.6-1.14-1.422-1.14-2.471h2.01V55.971z"/>
		<path fill="#00AEEF" d="M54.421,50.79h-5.332v2.14h4.895v1.75h-4.895v2.59h5.578v1.812h-7.636V49.005h7.39V50.79z"/>
		<path fill="#00AEEF" d="M56.273,49.005h2.207l4,7.026v-7.026h1.962v10.077h-2.105l-4.102-7.15v7.15h-1.962V49.005z"/>
		<path fill="#00AEEF" d="M72.322,49.224c0.707,0.232,1.279,0.659,1.717,1.278c0.352,0.501,0.591,1.043,0.719,1.627
			c0.127,0.583,0.191,1.139,0.191,1.668c0,1.339-0.269,2.475-0.807,3.404c-0.73,1.254-1.856,1.881-3.38,1.881h-4.344V49.005h4.344
			C71.387,49.015,71.907,49.087,72.322,49.224z M68.462,50.755v6.577h1.944c0.995,0,1.689-0.49,2.082-1.471
			c0.214-0.537,0.322-1.178,0.322-1.92c0-1.025-0.161-1.812-0.483-2.362c-0.322-0.55-0.962-0.824-1.92-0.824H68.462z"/>
	</g>
</g>
</svg>
