<?xml version="1.0" encoding="utf-8"?>
<!-- Generator: Adobe Illustrator 15.0.1, SVG Export Plug-In . SVG Version: 6.00 Build 0)  -->
<!DOCTYPE svg PUBLIC "-//W3C//DTD SVG 1.1//EN" "http://www.w3.org/Graphics/SVG/1.1/DTD/svg11.dtd">
<svg version="1.1" id="Layer_1" xmlns="http://www.w3.org/2000/svg" xmlns:xlink="http://www.w3.org/1999/xlink" x="0px" y="0px"
	 width="422px" height="108px" viewBox="0 0 422 108" enable-background="new 0 0 422 108" xml:space="preserve">
<g>
	<rect y="0.016" fill="#FFFFFF" width="422" height="108"/>
	<path fill="#E7E4DD" d="M417.002,50.016H5.001c-2.209,0-4,1.791-4,4s1.791,4,4,4h412.001c2.209,0,4-1.791,4-4
		S419.211,50.016,417.002,50.016z"/>
	<g>
		<path fill="#C4C0B7" d="M5.001,51.016h412.001c2.038,0,3.701,1.529,3.949,3.5c0.021-0.166,0.051-0.328,0.051-0.5
			c0-2.209-1.791-4-4-4H5.001c-2.209,0-4,1.791-4,4c0,0.172,0.029,0.334,0.051,0.5C1.3,52.545,2.963,51.016,5.001,51.016z"/>
	</g>
	<path fill="#75747C" d="M5.001,51c-2.038,0-3.701,1.529-3.949,3.5C1.03,54.334,1.001,54.172,1.001,54c0,2.209,1.791,4,4,4H17v-7
		H5.001z"/>
	<path fill="#434247" d="M5.001,51H17v-1H5.001c-2.209,0-4,1.791-4,4c0,0.172,0.029,0.334,0.051,0.5C1.3,52.529,2.963,51,5.001,51z"
		/>
	<path fill="#75747C" d="M417.002,81.016H5.001c-2.209,0-4,1.791-4,4s1.791,4,4,4h412.001c2.209,0,4-1.791,4-4
		S419.211,81.016,417.002,81.016z"/>
	<g>
		<path fill="#434247" d="M5.001,82.016h412.001c2.038,0,3.701,1.529,3.949,3.5c0.021-0.166,0.051-0.328,0.051-0.5
			c0-2.209-1.791-4-4-4H5.001c-2.209,0-4,1.791-4,4c0,0.172,0.029,0.334,0.051,0.5C1.3,83.545,2.963,82.016,5.001,82.016z"/>
	</g>
	<circle fill="#75747C" cx="25.001" cy="85.016" r="13"/>
	<path fill="#434247" d="M25.001,73.016c7.011,0,12.71,5.554,12.975,12.5c0.007-0.167,0.025-0.331,0.025-0.5c0-7.18-5.82-13-13-13
		s-13,5.82-13,13c0,0.169,0.019,0.333,0.025,0.5C12.291,78.569,17.99,73.016,25.001,73.016z"/>
	<g>
		<path fill="#434247" d="M23.284,86.039c0,0.396,0.063,0.725,0.191,0.984c0.236,0.479,0.666,0.719,1.289,0.719
			c0.382,0,0.715-0.131,0.999-0.394s0.426-0.64,0.426-1.132c0-0.651-0.264-1.086-0.791-1.305c-0.3-0.123-0.772-0.186-1.417-0.186
			v-1.395c0.631-0.009,1.072-0.07,1.322-0.184c0.431-0.191,0.647-0.579,0.647-1.162c0-0.379-0.11-0.687-0.331-0.924
			c-0.221-0.236-0.531-0.355-0.931-0.355c-0.459,0-0.797,0.146-1.013,0.438c-0.216,0.292-0.319,0.682-0.31,1.17h-1.818
			c0.018-0.492,0.103-0.96,0.252-1.402c0.16-0.387,0.41-0.744,0.751-1.072c0.255-0.232,0.558-0.41,0.908-0.533
			s0.781-0.186,1.291-0.186c0.947,0,1.71,0.246,2.291,0.735s0.871,1.147,0.871,1.972c0,0.584-0.173,1.076-0.52,1.477
			c-0.219,0.251-0.447,0.422-0.684,0.514c0.178,0,0.433,0.152,0.766,0.457c0.497,0.461,0.745,1.09,0.745,1.887
			c0,0.839-0.291,1.576-0.871,2.212c-0.581,0.636-1.44,0.954-2.578,0.954c-1.402,0-2.376-0.459-2.923-1.375
			c-0.287-0.487-0.446-1.125-0.478-1.914H23.284z"/>
	</g>
	<g>
		<path fill="#FFFFFF" d="M23.284,87.039c0,0.396,0.063,0.725,0.191,0.984c0.236,0.479,0.666,0.719,1.289,0.719
			c0.382,0,0.715-0.131,0.999-0.394s0.426-0.64,0.426-1.132c0-0.651-0.264-1.086-0.791-1.305c-0.3-0.123-0.772-0.186-1.417-0.186
			v-1.395c0.631-0.009,1.072-0.07,1.322-0.184c0.431-0.191,0.647-0.579,0.647-1.162c0-0.379-0.11-0.687-0.331-0.924
			c-0.221-0.236-0.531-0.355-0.931-0.355c-0.459,0-0.797,0.146-1.013,0.438c-0.216,0.292-0.319,0.682-0.31,1.17h-1.818
			c0.018-0.492,0.103-0.96,0.252-1.402c0.16-0.387,0.41-0.744,0.751-1.072c0.255-0.232,0.558-0.41,0.908-0.533
			s0.781-0.186,1.291-0.186c0.947,0,1.71,0.246,2.291,0.735s0.871,1.147,0.871,1.972c0,0.584-0.173,1.076-0.52,1.477
			c-0.219,0.251-0.447,0.422-0.684,0.514c0.178,0,0.433,0.152,0.766,0.457c0.497,0.461,0.745,1.09,0.745,1.887
			c0,0.839-0.291,1.576-0.871,2.212c-0.581,0.636-1.44,0.954-2.578,0.954c-1.402,0-2.376-0.459-2.923-1.375
			c-0.287-0.487-0.446-1.125-0.478-1.914H23.284z"/>
	</g>
	<g>
		<path fill="#E7E4DD" d="M417.002,19.016H5.001c-2.209,0-4,1.791-4,4s1.791,4,4,4h412.001c2.209,0,4-1.791,4-4
			S419.211,19.016,417.002,19.016z"/>
		<g>
			<path fill="#C4C0B7" d="M5.001,20.016h412.001c2.038,0,3.701,1.529,3.949,3.5c0.021-0.166,0.051-0.328,0.051-0.5
				c0-2.209-1.791-4-4-4H5.001c-2.209,0-4,1.791-4,4c0,0.172,0.029,0.334,0.051,0.5C1.3,21.545,2.963,20.016,5.001,20.016z"/>
		</g>
		<circle fill="#E7E4DD" cx="25.001" cy="23.016" r="13"/>
		<path fill="#C4C0B7" d="M25.001,11.016c7.011,0,12.71,5.554,12.975,12.5c0.007-0.167,0.025-0.331,0.025-0.5c0-7.18-5.82-13-13-13
			s-13,5.82-13,13c0,0.169,0.019,0.333,0.025,0.5C12.291,16.569,17.99,11.016,25.001,11.016z"/>
		<g>
			<path fill="#FFFFFF" d="M23.284,26.04c0,0.396,0.063,0.725,0.191,0.984c0.236,0.479,0.666,0.718,1.289,0.718
				c0.382,0,0.715-0.131,0.999-0.393s0.426-0.639,0.426-1.131c0-0.652-0.264-1.087-0.791-1.306c-0.3-0.123-0.772-0.185-1.417-0.185
				v-1.395c0.631-0.009,1.072-0.071,1.322-0.185c0.431-0.191,0.647-0.579,0.647-1.162c0-0.378-0.11-0.686-0.331-0.923
				c-0.221-0.237-0.531-0.355-0.931-0.355c-0.459,0-0.797,0.146-1.013,0.438s-0.319,0.681-0.31,1.169h-1.818
				c0.018-0.492,0.103-0.959,0.252-1.401c0.16-0.387,0.41-0.745,0.751-1.073c0.255-0.232,0.558-0.41,0.908-0.533
				s0.781-0.185,1.291-0.185c0.947,0,1.71,0.245,2.291,0.735s0.871,1.147,0.871,1.972c0,0.583-0.173,1.076-0.52,1.477
				c-0.219,0.25-0.447,0.421-0.684,0.513c0.178,0,0.433,0.153,0.766,0.458c0.497,0.46,0.745,1.089,0.745,1.887
				c0,0.838-0.291,1.576-0.871,2.211c-0.581,0.636-1.44,0.954-2.578,0.954c-1.402,0-2.376-0.458-2.923-1.374
				c-0.287-0.488-0.446-1.125-0.478-1.914H23.284z"/>
		</g>
		<g>
			<path fill="#C4C0B7" d="M23.284,25.04c0,0.396,0.063,0.725,0.191,0.984c0.236,0.479,0.666,0.718,1.289,0.718
				c0.382,0,0.715-0.131,0.999-0.393s0.426-0.639,0.426-1.131c0-0.652-0.264-1.087-0.791-1.306c-0.3-0.123-0.772-0.185-1.417-0.185
				v-1.395c0.631-0.009,1.072-0.071,1.322-0.185c0.431-0.191,0.647-0.579,0.647-1.162c0-0.378-0.11-0.686-0.331-0.923
				c-0.221-0.237-0.531-0.355-0.931-0.355c-0.459,0-0.797,0.146-1.013,0.438s-0.319,0.681-0.31,1.169h-1.818
				c0.018-0.492,0.103-0.959,0.252-1.401c0.16-0.387,0.41-0.745,0.751-1.073c0.255-0.232,0.558-0.41,0.908-0.533
				s0.781-0.185,1.291-0.185c0.947,0,1.71,0.245,2.291,0.735s0.871,1.147,0.871,1.972c0,0.583-0.173,1.076-0.52,1.477
				c-0.219,0.25-0.447,0.421-0.684,0.513c0.178,0,0.433,0.153,0.766,0.458c0.497,0.46,0.745,1.089,0.745,1.887
				c0,0.838-0.291,1.576-0.871,2.211c-0.581,0.636-1.44,0.954-2.578,0.954c-1.402,0-2.376-0.458-2.923-1.374
				c-0.287-0.488-0.446-1.125-0.478-1.914H23.284z"/>
		</g>
	</g>
	<path fill="#C76825" d="M83,41.016H25.001c-7.18,0-13,5.82-13,13s5.82,13,13,13H83c7.18,0,13-5.82,13-13S90.18,41.016,83,41.016z"
		/>
	<g>
		<path fill="#874817" d="M25.001,42.016H83c7.011,0,12.71,5.554,12.975,12.5c0.007-0.167,0.025-0.331,0.025-0.5
			c0-7.18-5.82-13-13-13H25.001c-7.18,0-13,5.82-13,13c0,0.169,0.019,0.333,0.025,0.5C12.291,47.569,17.99,42.016,25.001,42.016z"/>
	</g>
	<g>
		<path fill="#874817" d="M23.283,55.039c0,0.396,0.063,0.725,0.191,0.984c0.236,0.479,0.666,0.719,1.289,0.719
			c0.382,0,0.715-0.131,0.999-0.394s0.426-0.64,0.426-1.132c0-0.651-0.264-1.086-0.791-1.305c-0.3-0.123-0.772-0.185-1.417-0.185
			v-1.395c0.631-0.009,1.072-0.071,1.322-0.185c0.431-0.191,0.647-0.579,0.647-1.162c0-0.378-0.11-0.686-0.331-0.923
			c-0.221-0.237-0.531-0.355-0.931-0.355c-0.459,0-0.797,0.146-1.013,0.438s-0.319,0.681-0.31,1.169h-1.818
			c0.018-0.492,0.103-0.959,0.252-1.401c0.16-0.387,0.41-0.745,0.751-1.073c0.255-0.232,0.558-0.41,0.908-0.533
			s0.781-0.185,1.291-0.185c0.947,0,1.71,0.245,2.291,0.735s0.871,1.147,0.871,1.972c0,0.583-0.173,1.076-0.52,1.477
			c-0.219,0.25-0.447,0.421-0.684,0.513c0.178,0,0.433,0.153,0.766,0.458c0.497,0.46,0.745,1.089,0.745,1.886
			c0,0.839-0.291,1.576-0.871,2.212c-0.581,0.636-1.44,0.954-2.578,0.954c-1.402,0-2.376-0.459-2.923-1.375
			c-0.287-0.487-0.446-1.125-0.478-1.914H23.283z"/>
		<path fill="#874817" d="M39.149,54.971c0.065,0.46,0.193,0.804,0.384,1.033c0.349,0.414,0.947,0.621,1.794,0.621
			c0.507,0,0.919-0.055,1.235-0.164c0.6-0.209,0.9-0.599,0.9-1.168c0-0.333-0.147-0.591-0.441-0.773
			c-0.294-0.178-0.761-0.335-1.399-0.472l-1.091-0.239c-1.072-0.237-1.809-0.495-2.21-0.772c-0.679-0.465-1.019-1.192-1.019-2.181
			c0-0.902,0.332-1.652,0.997-2.249c0.664-0.597,1.64-0.896,2.927-0.896c1.075,0,1.992,0.281,2.75,0.844s1.157,1.38,1.194,2.451
			h-2.023c-0.038-0.606-0.309-1.037-0.813-1.292c-0.336-0.168-0.754-0.253-1.254-0.253c-0.556,0-1,0.109-1.332,0.328
			s-0.498,0.524-0.498,0.916c0,0.36,0.164,0.629,0.491,0.807c0.21,0.119,0.656,0.257,1.338,0.417l1.769,0.417
			c0.775,0.182,1.356,0.426,1.743,0.731c0.601,0.474,0.901,1.16,0.901,2.057c0,0.921-0.356,1.686-1.067,2.294
			c-0.712,0.608-1.717,0.913-3.016,0.913c-1.327,0-2.37-0.301-3.13-0.899c-0.76-0.599-1.14-1.423-1.14-2.471H39.149z"/>
		<path fill="#874817" d="M54.421,49.79h-5.332v2.14h4.895v1.75h-4.895v2.59h5.578v1.812h-7.636V48.005h7.39V49.79z"/>
		<path fill="#874817" d="M56.273,48.005h2.207l4,7.026v-7.026h1.962v10.077h-2.105l-4.102-7.15v7.15h-1.962V48.005z"/>
		<path fill="#874817" d="M72.322,48.224c0.707,0.232,1.279,0.659,1.717,1.278c0.352,0.501,0.591,1.043,0.719,1.627
			c0.127,0.583,0.191,1.139,0.191,1.668c0,1.34-0.269,2.474-0.807,3.404c-0.73,1.254-1.856,1.881-3.38,1.881h-4.344V48.005h4.344
			C71.387,48.015,71.907,48.087,72.322,48.224z M68.462,49.755v6.577h1.944c0.995,0,1.689-0.49,2.082-1.47
			c0.214-0.538,0.322-1.178,0.322-1.921c0-1.025-0.161-1.812-0.483-2.362s-0.962-0.824-1.92-0.824H68.462z"/>
	</g>
	<g>
		<path fill="#FFFFFF" d="M23.283,56.039c0,0.396,0.063,0.725,0.191,0.984c0.236,0.479,0.666,0.719,1.289,0.719
			c0.382,0,0.715-0.131,0.999-0.394s0.426-0.64,0.426-1.132c0-0.651-0.264-1.086-0.791-1.305c-0.3-0.123-0.772-0.185-1.417-0.185
			v-1.395c0.631-0.009,1.072-0.071,1.322-0.185c0.431-0.191,0.647-0.579,0.647-1.162c0-0.378-0.11-0.686-0.331-0.923
			c-0.221-0.237-0.531-0.355-0.931-0.355c-0.459,0-0.797,0.146-1.013,0.438s-0.319,0.681-0.31,1.169h-1.818
			c0.018-0.492,0.103-0.959,0.252-1.401c0.16-0.387,0.41-0.745,0.751-1.073c0.255-0.232,0.558-0.41,0.908-0.533
			s0.781-0.185,1.291-0.185c0.947,0,1.71,0.245,2.291,0.735s0.871,1.147,0.871,1.972c0,0.583-0.173,1.076-0.52,1.477
			c-0.219,0.25-0.447,0.421-0.684,0.513c0.178,0,0.433,0.153,0.766,0.458c0.497,0.46,0.745,1.089,0.745,1.886
			c0,0.839-0.291,1.576-0.871,2.212c-0.581,0.636-1.44,0.954-2.578,0.954c-1.402,0-2.376-0.459-2.923-1.375
			c-0.287-0.487-0.446-1.125-0.478-1.914H23.283z"/>
		<path fill="#FFFFFF" d="M39.149,55.971c0.065,0.461,0.193,0.805,0.384,1.033c0.349,0.414,0.947,0.621,1.794,0.621
			c0.507,0,0.919-0.055,1.235-0.164c0.6-0.209,0.9-0.599,0.9-1.168c0-0.333-0.147-0.591-0.441-0.773
			c-0.294-0.178-0.761-0.334-1.399-0.471l-1.091-0.24c-1.072-0.237-1.809-0.495-2.21-0.772c-0.679-0.465-1.019-1.192-1.019-2.181
			c0-0.902,0.332-1.652,0.997-2.249c0.664-0.597,1.64-0.896,2.927-0.896c1.075,0,1.992,0.281,2.75,0.844s1.157,1.38,1.194,2.451
			h-2.023c-0.038-0.606-0.309-1.037-0.813-1.292c-0.336-0.168-0.754-0.253-1.254-0.253c-0.556,0-1,0.109-1.332,0.328
			s-0.498,0.524-0.498,0.916c0,0.36,0.164,0.629,0.491,0.807c0.21,0.119,0.656,0.257,1.338,0.417l1.769,0.417
			c0.775,0.182,1.356,0.426,1.743,0.731c0.601,0.474,0.901,1.16,0.901,2.057c0,0.921-0.356,1.686-1.067,2.294
			c-0.712,0.608-1.717,0.913-3.016,0.913c-1.327,0-2.37-0.301-3.13-0.899c-0.76-0.599-1.14-1.423-1.14-2.472H39.149z"/>
		<path fill="#FFFFFF" d="M54.421,50.79h-5.332v2.14h4.895v1.75h-4.895v2.59h5.578v1.812h-7.636V49.005h7.39V50.79z"/>
		<path fill="#FFFFFF" d="M56.273,49.005h2.207l4,7.026v-7.026h1.962v10.077h-2.105l-4.102-7.15v7.15h-1.962V49.005z"/>
		<path fill="#FFFFFF" d="M72.322,49.224c0.707,0.232,1.279,0.659,1.717,1.278c0.352,0.501,0.591,1.043,0.719,1.627
			c0.127,0.583,0.191,1.139,0.191,1.668c0,1.339-0.269,2.474-0.807,3.404c-0.73,1.254-1.856,1.881-3.38,1.881h-4.344V49.005h4.344
			C71.387,49.015,71.907,49.087,72.322,49.224z M68.462,50.755v6.577h1.944c0.995,0,1.689-0.49,2.082-1.471
			c0.214-0.537,0.322-1.178,0.322-1.92c0-1.025-0.161-1.812-0.483-2.362s-0.962-0.824-1.92-0.824H68.462z"/>
	</g>
</g>
<rect x="48.998" y="377" fill="#FFFFFF" width="422" height="108"/>
<path fill="#E7E4DD" d="M466,427H53.999c-2.209,0-4,1.791-4,4s1.791,4,4,4H466c2.209,0,4-1.791,4-4S468.209,427,466,427z"/>
<g>
	<path fill="#C4C0B7" d="M53.999,428H466c2.038,0,3.701,1.529,3.949,3.5c0.021-0.166,0.051-0.328,0.051-0.5c0-2.209-1.791-4-4-4
		H53.999c-2.209,0-4,1.791-4,4c0,0.172,0.029,0.334,0.051,0.5C50.298,429.529,51.961,428,53.999,428z"/>
</g>
<path fill="#75747C" d="M53.999,427.984c-2.038,0-3.701,1.529-3.949,3.5c-0.021-0.166-0.051-0.328-0.051-0.5c0,2.209,1.791,4,4,4
	h11.999v-7H53.999z"/>
<path fill="#434247" d="M53.999,427.984h11.999v-1H53.999c-2.209,0-4,1.791-4,4c0,0.172,0.029,0.334,0.051,0.5
	C50.298,429.514,51.961,427.984,53.999,427.984z"/>
<path fill="#75747C" d="M466,458H53.999c-2.209,0-4,1.791-4,4s1.791,4,4,4H466c2.209,0,4-1.791,4-4S468.209,458,466,458z"/>
<g>
	<path fill="#434247" d="M53.999,459H466c2.038,0,3.701,1.529,3.949,3.5c0.021-0.166,0.051-0.328,0.051-0.5c0-2.209-1.791-4-4-4
		H53.999c-2.209,0-4,1.791-4,4c0,0.172,0.029,0.334,0.051,0.5C50.298,460.529,51.961,459,53.999,459z"/>
</g>
<circle fill="#75747C" cx="73.999" cy="462" r="13"/>
<path fill="#434247" d="M73.999,450c7.011,0,12.71,5.554,12.975,12.5c0.007-0.167,0.025-0.331,0.025-0.5c0-7.18-5.82-13-13-13
	s-13,5.82-13,13c0,0.169,0.019,0.333,0.025,0.5C61.289,455.554,66.988,450,73.999,450z"/>
<rect x="69.998" y="456" fill="none" width="14" height="11"/>
<text transform="matrix(1 0 0 1 69.9985 466.0664)" fill="#434247" font-family="'Helvetica-Bold'" font-size="14">3</text>
<rect x="69.998" y="457" fill="none" width="14" height="11"/>
<text transform="matrix(1 0 0 1 69.9985 467.0664)" fill="#FFFFFF" font-family="'Helvetica-Bold'" font-size="14">3</text>
<g>
	<path fill="#E7E4DD" d="M466,396H53.999c-2.209,0-4,1.791-4,4s1.791,4,4,4H466c2.209,0,4-1.791,4-4S468.209,396,466,396z"/>
	<g>
		<path fill="#C4C0B7" d="M53.999,397H466c2.038,0,3.701,1.529,3.949,3.5c0.021-0.166,0.051-0.328,0.051-0.5c0-2.209-1.791-4-4-4
			H53.999c-2.209,0-4,1.791-4,4c0,0.172,0.029,0.334,0.051,0.5C50.298,398.529,51.961,397,53.999,397z"/>
	</g>
	<circle fill="#E7E4DD" cx="73.999" cy="400" r="13"/>
	<path fill="#C4C0B7" d="M73.999,388c7.011,0,12.71,5.554,12.975,12.5c0.007-0.167,0.025-0.331,0.025-0.5c0-7.18-5.82-13-13-13
		s-13,5.82-13,13c0,0.169,0.019,0.333,0.025,0.5C61.289,393.554,66.988,388,73.999,388z"/>
	<rect x="69.998" y="396" fill="none" width="14" height="11"/>
	<text transform="matrix(1 0 0 1 69.9985 406.0664)" fill="#FFFFFF" font-family="'Helvetica-Bold'" font-size="14">3</text>
	<rect x="69.998" y="395" fill="none" width="14" height="11"/>
	<text transform="matrix(1 0 0 1 69.9985 405.0664)" fill="#C4C0B7" font-family="'Helvetica-Bold'" font-size="14">3</text>
</g>
<path fill="#C76825" d="M131.998,418H73.999c-7.18,0-13,5.82-13,13s5.82,13,13,13h57.999c7.18,0,13-5.82,13-13
	S139.178,418,131.998,418z"/>
<g>
	<path fill="#874817" d="M73.999,419h57.999c7.011,0,12.71,5.554,12.975,12.5c0.007-0.167,0.025-0.331,0.025-0.5
		c0-7.18-5.82-13-13-13H73.999c-7.18,0-13,5.82-13,13c0,0.169,0.019,0.333,0.025,0.5C61.289,424.554,66.988,419,73.999,419z"/>
</g>
<rect x="69.998" y="425" fill="none" width="74" height="14"/>
<text transform="matrix(1 0 0 1 69.998 435.0664)" fill="#874817" font-family="'Helvetica-Bold'" font-size="14">3  SEND</text>
<rect x="69.998" y="426" fill="none" width="74" height="14"/>
<text transform="matrix(1 0 0 1 69.998 436.0664)" fill="#FFFFFF" font-family="'Helvetica-Bold'" font-size="14">3  SEND</text>
</svg>
