<?xml version="1.0" encoding="utf-8"?>
<!-- Generator: Adobe Illustrator 15.0.1, SVG Export Plug-In . SVG Version: 6.00 Build 0)  -->
<!DOCTYPE svg PUBLIC "-//W3C//DTD SVG 1.1//EN" "http://www.w3.org/Graphics/SVG/1.1/DTD/svg11.dtd">
<svg version="1.1" id="Layer_1" xmlns="http://www.w3.org/2000/svg" xmlns:xlink="http://www.w3.org/1999/xlink" x="0px" y="0px"
	 width="25px" height="18px" viewBox="0 0 25 18" enable-background="new 0 0 25 18" xml:space="preserve">
<g>
	<path fill="#C56825" d="M0.284,11.06c-0.38-0.381-0.379-1.004,0.002-1.384L2.73,7.23c0.38-0.381,1.003-0.381,1.384,0l3.969,3.96
		c0.381,0.38,1.003,0.38,1.383-0.001L20.344,0.286c0.38-0.381,1.003-0.383,1.385-0.004l2.432,2.415
		c0.382,0.379,0.384,1.001,0.004,1.381L10.972,17.302c-0.38,0.38-1.13,0.692-1.668,0.692h-1.14c-0.538,0-1.288-0.312-1.668-0.693
		L0.284,11.06z"/>
</g>
</svg>
