<?xml version="1.0" encoding="utf-8"?>
<!-- Generator: Adobe Illustrator 15.0.1, SVG Export Plug-In . SVG Version: 6.00 Build 0)  -->
<!DOCTYPE svg PUBLIC "-//W3C//DTD SVG 1.1//EN" "http://www.w3.org/Graphics/SVG/1.1/DTD/svg11.dtd">
<svg version="1.1" id="Layer_1" xmlns="http://www.w3.org/2000/svg" xmlns:xlink="http://www.w3.org/1999/xlink" x="0px" y="0px"
	 width="21px" height="21px" viewBox="0 0 21 21" enable-background="new 0 0 21 21" xml:space="preserve">
<g>
	<path fill="#C56825" d="M10.5,20.5c-5.514,0-10-4.486-10-10c0-5.514,4.486-10,10-10c5.514,0,10,4.486,10,10
		C20.5,16.014,16.014,20.5,10.5,20.5z"/>
	<path fill="#854817" d="M10.5,1c5.238,0,9.5,4.262,9.5,9.5S15.738,20,10.5,20S1,15.738,1,10.5S5.262,1,10.5,1 M10.5,0
		C4.701,0,0,4.701,0,10.5S4.701,21,10.5,21S21,16.299,21,10.5S16.299,0,10.5,0L10.5,0z"/>
</g>
<polygon fill="#854817" points="5,8 16,8 11,14 10,14 "/>
<polygon fill="#FFFFFF" points="5,9 16,9 11,15 10,15 "/>
</svg>
