<?xml version="1.0" encoding="utf-8"?>
<!-- Generator: Adobe Illustrator 15.1.0, SVG Export Plug-In . SVG Version: 6.00 Build 0)  -->
<!DOCTYPE svg PUBLIC "-//W3C//DTD SVG 1.1//EN" "http://www.w3.org/Graphics/SVG/1.1/DTD/svg11.dtd">
<svg version="1.1" id="Layer_1" xmlns="http://www.w3.org/2000/svg" xmlns:xlink="http://www.w3.org/1999/xlink" x="0px" y="0px"
	 width="162px" height="47px" viewBox="0 0 162 47" enable-background="new 0 0 162 47" xml:space="preserve">
<g>
	<path fill="#C66825" d="M23.447,46.5l-0.275-0.009C10.67,46.316,0.5,36.002,0.5,23.5c0-12.502,10.17-22.816,22.672-22.991
		L23.665,0.5H138.72l0.269,0.013C151.401,0.772,161.5,11.084,161.5,23.5c0,12.416-10.099,22.728-22.512,22.987l-0.489,0.013H23.447z
		"/>
	<path fill="#844817" d="M138.382,1l0.597,0.013C151.121,1.267,161,11.354,161,23.5s-9.879,22.233-22.021,22.487L138.61,46H23.8
		l-0.621-0.009C10.95,45.82,1,35.73,1,23.5S10.95,1.18,23.179,1.009L23.559,1H138.382 M138.999,0H23.165v0.009
		C10.342,0.188,0,10.634,0,23.5s10.342,23.312,23.165,23.491V47h115.834v-0.013C151.746,46.721,162,36.312,162,23.5
		S151.746,0.279,138.999,0.013V0L138.999,0z"/>
</g>
<g>
	<path fill="#844817" d="M60.459,27.804c-0.979,1.008-2.394,1.512-4.245,1.512s-3.267-0.504-4.245-1.512
		C50.656,26.567,50,24.786,50,22.46c0-2.373,0.656-4.154,1.969-5.344c0.979-1.008,2.394-1.512,4.245-1.512s3.267,0.504,4.245,1.512
		c1.307,1.189,1.96,2.971,1.96,5.344C62.419,24.786,61.766,26.567,60.459,27.804z M58.767,25.835
		c0.63-0.791,0.945-1.916,0.945-3.375c0-1.453-0.315-2.576-0.945-3.37s-1.48-1.191-2.553-1.191s-1.928,0.396-2.566,1.187
		s-0.958,1.916-0.958,3.375s0.319,2.584,0.958,3.375s1.494,1.187,2.566,1.187S58.137,26.626,58.767,25.835z"/>
	<path fill="#844817" d="M73.361,23.348c-0.758,0.633-1.841,0.949-3.249,0.949h-2.697v4.658h-2.689V16h5.562
		c1.282,0,2.305,0.334,3.067,1.002s1.144,1.702,1.144,3.103C74.499,21.634,74.12,22.715,73.361,23.348z M71.295,18.681
		c-0.343-0.287-0.822-0.431-1.44-0.431h-2.439v3.814h2.439c0.618,0,1.098-0.155,1.44-0.466s0.515-0.803,0.515-1.477
		S71.638,18.968,71.295,18.681z"/>
	<path fill="#844817" d="M85.184,23.348c-0.758,0.633-1.841,0.949-3.249,0.949h-2.697v4.658h-2.689V16h5.562
		c1.282,0,2.305,0.334,3.067,1.002s1.144,1.702,1.144,3.103C86.321,21.634,85.942,22.715,85.184,23.348z M83.117,18.681
		c-0.343-0.287-0.822-0.431-1.44-0.431h-2.439v3.814h2.439c0.618,0,1.098-0.155,1.44-0.466s0.515-0.803,0.515-1.477
		S83.46,18.968,83.117,18.681z"/>
	<path fill="#844817" d="M98.513,27.804c-0.979,1.008-2.394,1.512-4.245,1.512s-3.267-0.504-4.245-1.512
		c-1.312-1.236-1.969-3.018-1.969-5.344c0-2.373,0.656-4.154,1.969-5.344c0.979-1.008,2.394-1.512,4.245-1.512
		s3.267,0.504,4.245,1.512c1.307,1.189,1.96,2.971,1.96,5.344C100.473,24.786,99.819,26.567,98.513,27.804z M96.82,25.835
		c0.63-0.791,0.945-1.916,0.945-3.375c0-1.453-0.315-2.576-0.945-3.37s-1.48-1.191-2.553-1.191s-1.928,0.396-2.566,1.187
		s-0.958,1.916-0.958,3.375s0.319,2.584,0.958,3.375s1.494,1.187,2.566,1.187S96.19,26.626,96.82,25.835z"/>
	<path fill="#844817" d="M104.612,24.956c0.084,0.592,0.248,1.034,0.493,1.327c0.449,0.533,1.218,0.8,2.307,0.8
		c0.652,0,1.182-0.07,1.589-0.211c0.771-0.27,1.157-0.771,1.157-1.503c0-0.428-0.189-0.759-0.567-0.993
		c-0.378-0.229-0.978-0.431-1.799-0.606l-1.402-0.308c-1.378-0.305-2.325-0.636-2.841-0.993c-0.873-0.598-1.31-1.532-1.31-2.804
		c0-1.16,0.427-2.124,1.281-2.892s2.108-1.151,3.764-1.151c1.382,0,2.561,0.362,3.536,1.085c0.977,0.725,1.487,1.774,1.535,3.151
		h-2.602c-0.048-0.779-0.396-1.333-1.045-1.661c-0.433-0.217-0.971-0.325-1.613-0.325c-0.715,0-1.285,0.141-1.712,0.422
		s-0.64,0.674-0.64,1.178c0,0.463,0.21,0.809,0.631,1.037c0.271,0.152,0.844,0.331,1.721,0.536l2.273,0.536
		c0.997,0.234,1.743,0.548,2.241,0.94c0.772,0.609,1.158,1.491,1.158,2.646c0,1.184-0.458,2.167-1.373,2.948
		c-0.915,0.783-2.207,1.174-3.877,1.174c-1.706,0-3.047-0.385-4.024-1.156c-0.978-0.77-1.466-1.829-1.466-3.177H104.612z"/>
	<path fill="#844817" d="M124.465,18.294h-6.855v2.751h6.293v2.25h-6.293v3.331h7.172v2.329h-9.817V16h9.501V18.294z"/>
</g>
<g>
	<path fill="#FFFFFF" d="M60.459,28.79c-0.979,1.008-2.394,1.512-4.245,1.512s-3.267-0.504-4.245-1.512
		C50.656,27.554,50,25.772,50,23.446c0-2.373,0.656-4.154,1.969-5.344c0.979-1.008,2.394-1.512,4.245-1.512s3.267,0.504,4.245,1.512
		c1.307,1.189,1.96,2.971,1.96,5.344C62.419,25.772,61.766,27.554,60.459,28.79z M58.767,26.821c0.63-0.791,0.945-1.916,0.945-3.375
		c0-1.453-0.315-2.576-0.945-3.37s-1.48-1.191-2.553-1.191s-1.928,0.396-2.566,1.187s-0.958,1.916-0.958,3.375
		s0.319,2.584,0.958,3.375s1.494,1.187,2.566,1.187S58.137,27.612,58.767,26.821z"/>
	<path fill="#FFFFFF" d="M73.361,24.334c-0.758,0.633-1.841,0.949-3.249,0.949h-2.697v4.658h-2.689V16.986h5.562
		c1.282,0,2.305,0.334,3.067,1.002s1.144,1.702,1.144,3.103C74.499,22.62,74.12,23.701,73.361,24.334z M71.295,19.667
		c-0.343-0.287-0.822-0.431-1.44-0.431h-2.439v3.814h2.439c0.618,0,1.098-0.155,1.44-0.466s0.515-0.803,0.515-1.477
		S71.638,19.954,71.295,19.667z"/>
	<path fill="#FFFFFF" d="M85.184,24.334c-0.758,0.633-1.841,0.949-3.249,0.949h-2.697v4.658h-2.689V16.986h5.562
		c1.282,0,2.305,0.334,3.067,1.002s1.144,1.702,1.144,3.103C86.321,22.62,85.942,23.701,85.184,24.334z M83.117,19.667
		c-0.343-0.287-0.822-0.431-1.44-0.431h-2.439v3.814h2.439c0.618,0,1.098-0.155,1.44-0.466s0.515-0.803,0.515-1.477
		S83.46,19.954,83.117,19.667z"/>
	<path fill="#FFFFFF" d="M98.513,28.79c-0.979,1.008-2.394,1.512-4.245,1.512s-3.267-0.504-4.245-1.512
		c-1.312-1.236-1.969-3.018-1.969-5.344c0-2.373,0.656-4.154,1.969-5.344c0.979-1.008,2.394-1.512,4.245-1.512
		s3.267,0.504,4.245,1.512c1.307,1.189,1.96,2.971,1.96,5.344C100.473,25.772,99.819,27.554,98.513,28.79z M96.82,26.821
		c0.63-0.791,0.945-1.916,0.945-3.375c0-1.453-0.315-2.576-0.945-3.37s-1.48-1.191-2.553-1.191s-1.928,0.396-2.566,1.187
		s-0.958,1.916-0.958,3.375s0.319,2.584,0.958,3.375s1.494,1.187,2.566,1.187S96.19,27.612,96.82,26.821z"/>
	<path fill="#FFFFFF" d="M104.612,25.942c0.084,0.592,0.248,1.034,0.493,1.327c0.449,0.533,1.218,0.8,2.307,0.8
		c0.652,0,1.182-0.07,1.589-0.211c0.771-0.27,1.157-0.771,1.157-1.503c0-0.428-0.189-0.759-0.567-0.993
		c-0.378-0.229-0.978-0.431-1.799-0.606l-1.402-0.308c-1.378-0.305-2.325-0.636-2.841-0.993c-0.873-0.598-1.31-1.532-1.31-2.804
		c0-1.16,0.427-2.124,1.281-2.892s2.108-1.151,3.764-1.151c1.382,0,2.561,0.362,3.536,1.085c0.977,0.725,1.487,1.774,1.535,3.151
		h-2.602c-0.048-0.779-0.396-1.333-1.045-1.661c-0.433-0.217-0.971-0.325-1.613-0.325c-0.715,0-1.285,0.141-1.712,0.422
		s-0.64,0.674-0.64,1.178c0,0.463,0.21,0.809,0.631,1.037c0.271,0.152,0.844,0.331,1.721,0.536l2.273,0.536
		c0.997,0.234,1.743,0.548,2.241,0.94c0.772,0.609,1.158,1.491,1.158,2.646c0,1.184-0.458,2.167-1.373,2.948
		c-0.915,0.783-2.207,1.174-3.877,1.174c-1.706,0-3.047-0.385-4.024-1.156c-0.978-0.77-1.466-1.829-1.466-3.177H104.612z"/>
	<path fill="#FFFFFF" d="M124.465,19.28h-6.855v2.751h6.293v2.25h-6.293v3.331h7.172v2.329h-9.817V16.986h9.501V19.28z"/>
</g>
<path fill="#844817" d="M35.377,32.042c2.038-2.632,3.264-5.939,3.264-9.543C38.641,13.939,31.781,7,23.32,7S8,13.939,8,22.499
	C8,31.061,14.859,38,23.32,38c2.966,0,5.726-0.867,8.071-2.344c2.854,2.345,6.327,2.528,8.6,2.077
	c0.003-0.079,0.006-0.138,0.009-0.228C38.158,37.042,36.381,35.617,35.377,32.042z"/>
<path fill="#FFFFFF" d="M35.377,33.042c2.038-2.632,3.264-5.939,3.264-9.543C38.641,14.939,31.781,8,23.32,8S8,14.939,8,23.499
	C8,32.061,14.859,39,23.32,39c2.966,0,5.726-0.867,8.071-2.344c2.854,2.345,6.327,2.528,8.6,2.077
	c0.003-0.079,0.006-0.138,0.009-0.228C38.158,38.042,36.381,36.617,35.377,33.042z"/>
<path fill="#C66825" d="M23.266,13.698c-5.365,0-9.714,4.401-9.714,9.829c0,5.429,4.349,9.828,9.714,9.828s9.715-4.399,9.715-9.828
	C32.98,18.1,28.631,13.698,23.266,13.698z M16.188,23.527c0-1.504,0.46-2.899,1.242-4.053l9.842,9.957
	c-1.14,0.793-2.518,1.259-4.006,1.259C19.357,30.69,16.188,27.482,16.188,23.527z M29.102,27.58l-9.842-9.957
	c1.14-0.792,2.519-1.259,4.006-1.259c3.909,0,7.078,3.208,7.078,7.163C30.344,25.032,29.885,26.428,29.102,27.58z"/>
</svg>
