<?xml version="1.0" encoding="utf-8"?>
<!-- Generator: Adobe Illustrator 15.0.1, SVG Export Plug-In . SVG Version: 6.00 Build 0)  -->
<!DOCTYPE svg PUBLIC "-//W3C//DTD SVG 1.1//EN" "http://www.w3.org/Graphics/SVG/1.1/DTD/svg11.dtd">
<svg version="1.1" id="Layer_1" xmlns="http://www.w3.org/2000/svg" xmlns:xlink="http://www.w3.org/1999/xlink" x="0px" y="0px"
	 width="58px" height="22px" viewBox="0 0 58 22" enable-background="new 0 0 58 22" xml:space="preserve">
<g>
	<path fill="#C66825" d="M11,21.5C5.21,21.5,0.5,16.79,0.5,11C0.5,5.21,5.21,0.5,11,0.5h36c5.79,0,10.5,4.71,10.5,10.5
		c0,5.79-4.71,10.5-10.5,10.5H11z"/>
	<path fill="#864817" d="M47,1c5.514,0,10,4.486,10,10c0,5.514-4.486,10-10,10H11C5.486,21,1,16.514,1,11C1,5.486,5.486,1,11,1H47
		 M47,0H11C4.925,0,0,4.925,0,11s4.925,11,11,11h36c6.075,0,11-4.925,11-11S53.075,0,47,0L47,0z"/>
</g>
<g>
	<path fill="#864817" d="M11,5.401h1.892l3.429,6.022V5.401h1.682v8.637h-1.805L12.682,7.91v6.128H11V5.401z"/>
	<path fill="#864817" d="M23.843,7.78c0.445,0.2,0.813,0.515,1.104,0.945c0.262,0.38,0.431,0.819,0.509,1.32
		c0.045,0.293,0.063,0.716,0.055,1.268h-4.651c0.026,0.641,0.249,1.09,0.668,1.348c0.255,0.16,0.562,0.24,0.921,0.24
		c0.38,0,0.689-0.098,0.927-0.293c0.13-0.105,0.244-0.252,0.344-0.439h1.705c-0.045,0.379-0.251,0.764-0.619,1.154
		c-0.572,0.621-1.373,0.932-2.402,0.932c-0.851,0-1.601-0.262-2.25-0.786c-0.649-0.523-0.975-1.376-0.975-2.557
		c0-1.106,0.293-1.955,0.88-2.545c0.587-0.591,1.348-0.886,2.284-0.886C22.896,7.481,23.397,7.581,23.843,7.78z M21.345,9.224
		c-0.236,0.243-0.385,0.572-0.445,0.988h2.877c-0.03-0.443-0.179-0.779-0.445-1.009c-0.266-0.229-0.596-0.345-0.99-0.345
		C21.912,8.858,21.58,8.98,21.345,9.224z"/>
	<path fill="#864817" d="M25.839,14.038l2.18-3.234l-2.086-3.141h2.045l1.067,1.85l1.042-1.85h1.986l-2.098,3.111l2.18,3.264h-2.08
		l-1.1-1.92l-1.109,1.92H25.839z"/>
	<path fill="#864817" d="M32.612,8.899V7.71h0.891V5.929h1.652V7.71h1.037v1.189h-1.037v3.375c0,0.262,0.033,0.425,0.1,0.489
		s0.27,0.097,0.609,0.097c0.051,0,0.104-0.001,0.161-0.003s0.112-0.005,0.167-0.009v1.248l-0.791,0.029
		c-0.789,0.027-1.328-0.109-1.617-0.41c-0.188-0.191-0.281-0.486-0.281-0.885V8.899H32.612z"/>
	<path fill="#864817" d="M46.035,11.798l-3.996,3.453v-2.777l2.384-2.051L42.039,8.36V5.583l3.996,3.457V11.798z"/>
</g>
<g>
	<path fill="#FFFFFF" d="M11,6.38h1.892l3.429,6.022V6.38h1.682v8.637h-1.805l-3.516-6.128v6.128H11V6.38z"/>
	<path fill="#FFFFFF" d="M23.843,8.759c0.445,0.2,0.813,0.515,1.104,0.945c0.262,0.38,0.431,0.819,0.509,1.32
		c0.045,0.293,0.063,0.716,0.055,1.268h-4.651c0.026,0.641,0.249,1.09,0.668,1.348c0.255,0.16,0.562,0.24,0.921,0.24
		c0.38,0,0.689-0.098,0.927-0.293c0.13-0.105,0.244-0.252,0.344-0.439h1.705c-0.045,0.379-0.251,0.764-0.619,1.154
		c-0.572,0.621-1.373,0.932-2.402,0.932c-0.851,0-1.601-0.262-2.25-0.786c-0.649-0.523-0.975-1.376-0.975-2.557
		c0-1.106,0.293-1.955,0.88-2.545c0.587-0.591,1.348-0.886,2.284-0.886C22.896,8.46,23.397,8.56,23.843,8.759z M21.345,10.202
		c-0.236,0.243-0.385,0.572-0.445,0.988h2.877c-0.03-0.443-0.179-0.779-0.445-1.009c-0.266-0.229-0.596-0.345-0.99-0.345
		C21.912,9.837,21.58,9.959,21.345,10.202z"/>
	<path fill="#FFFFFF" d="M25.839,15.017l2.18-3.234l-2.086-3.141h2.045l1.067,1.85l1.042-1.85h1.986l-2.098,3.111l2.18,3.264h-2.08
		l-1.1-1.92l-1.109,1.92H25.839z"/>
	<path fill="#FFFFFF" d="M32.612,9.878V8.688h0.891V6.907h1.652v1.781h1.037v1.189h-1.037v3.375c0,0.262,0.033,0.425,0.1,0.489
		s0.27,0.097,0.609,0.097c0.051,0,0.104-0.001,0.161-0.003s0.112-0.005,0.167-0.009v1.248l-0.791,0.029
		c-0.789,0.027-1.328-0.109-1.617-0.41c-0.188-0.191-0.281-0.486-0.281-0.885V9.878H32.612z"/>
	<path fill="#FFFFFF" d="M46.035,12.776l-3.996,3.453v-2.777l2.384-2.051l-2.384-2.062V6.562l3.996,3.457V12.776z"/>
</g>
</svg>
