<?xml version="1.0" encoding="utf-8"?>
<!-- Generator: Adobe Illustrator 15.1.0, SVG Export Plug-In . SVG Version: 6.00 Build 0)  -->
<!DOCTYPE svg PUBLIC "-//W3C//DTD SVG 1.1//EN" "http://www.w3.org/Graphics/SVG/1.1/DTD/svg11.dtd">
<svg version="1.1" id="Layer_1" xmlns="http://www.w3.org/2000/svg" xmlns:xlink="http://www.w3.org/1999/xlink" x="0px" y="0px"
	 width="162px" height="47px" viewBox="0 0 162 47" enable-background="new 0 0 162 47" xml:space="preserve">
<g>
	<path fill="#C66825" d="M23.447,46.5l-0.275-0.009C10.67,46.316,0.5,36.002,0.5,23.5S10.67,0.684,23.172,0.509L23.665,0.5h115.056
		l0.269,0.013C151.4,0.772,161.5,11.084,161.5,23.5s-10.1,22.729-22.512,22.986l-0.489,0.014H23.447z"/>
	<path fill="#EC0082" d="M138.382,1l0.597,0.013C151.121,1.267,161,11.354,161,23.5c0,12.146-9.879,22.232-22.021,22.486L138.609,46
		H23.8l-0.621-0.009C10.95,45.82,1,35.73,1,23.5C1,11.27,10.95,1.18,23.179,1.009L23.559,1H138.382 M138.999,0H23.165v0.009
		C10.342,0.188,0,10.634,0,23.5s10.342,23.312,23.165,23.491V47h115.834v-0.014C151.746,46.721,162,36.312,162,23.5
		c0-12.812-10.254-23.221-23.001-23.487V0L138.999,0z"/>
</g>
<g>
	<path fill="#EC0082" d="M60.459,27.805c-0.979,1.008-2.394,1.512-4.245,1.512s-3.267-0.504-4.245-1.512
		C50.656,26.566,50,24.786,50,22.46c0-2.373,0.656-4.154,1.969-5.344c0.979-1.008,2.394-1.512,4.245-1.512s3.267,0.504,4.245,1.512
		c1.307,1.189,1.96,2.971,1.96,5.344C62.419,24.786,61.766,26.566,60.459,27.805z M58.767,25.835
		c0.63-0.791,0.945-1.916,0.945-3.375c0-1.453-0.315-2.576-0.945-3.37s-1.48-1.191-2.553-1.191c-1.073,0-1.928,0.396-2.566,1.187
		s-0.958,1.916-0.958,3.375s0.319,2.584,0.958,3.375s1.494,1.188,2.566,1.188C57.286,27.023,58.137,26.626,58.767,25.835z"/>
	<path fill="#EC0082" d="M73.361,23.348c-0.758,0.633-1.841,0.949-3.249,0.949h-2.697v4.658h-2.689V16h5.562
		c1.282,0,2.305,0.334,3.067,1.002s1.144,1.702,1.144,3.103C74.499,21.634,74.12,22.715,73.361,23.348z M71.295,18.681
		c-0.343-0.287-0.822-0.431-1.44-0.431h-2.439v3.814h2.439c0.618,0,1.098-0.155,1.44-0.466c0.342-0.311,0.515-0.803,0.515-1.477
		C71.81,19.447,71.638,18.968,71.295,18.681z"/>
	<path fill="#EC0082" d="M85.184,23.348c-0.758,0.633-1.841,0.949-3.248,0.949h-2.698v4.658h-2.689V16h5.562
		c1.281,0,2.305,0.334,3.065,1.002s1.146,1.702,1.146,3.103C86.32,21.634,85.941,22.715,85.184,23.348z M83.117,18.681
		c-0.344-0.287-0.822-0.431-1.44-0.431h-2.439v3.814h2.439c0.618,0,1.099-0.155,1.44-0.466c0.341-0.311,0.515-0.803,0.515-1.477
		C83.632,19.447,83.46,18.968,83.117,18.681z"/>
	<path fill="#EC0082" d="M98.514,27.805c-0.979,1.008-2.395,1.512-4.246,1.512c-1.851,0-3.267-0.504-4.244-1.512
		c-1.312-1.236-1.969-3.019-1.969-5.345c0-2.373,0.655-4.154,1.969-5.344c0.979-1.008,2.395-1.512,4.244-1.512
		c1.853,0,3.269,0.504,4.246,1.512c1.307,1.189,1.959,2.971,1.959,5.344C100.473,24.786,99.818,26.566,98.514,27.805z M96.82,25.835
		c0.63-0.791,0.945-1.916,0.945-3.375c0-1.453-0.315-2.576-0.945-3.37c-0.631-0.794-1.48-1.191-2.553-1.191
		c-1.074,0-1.93,0.396-2.566,1.187c-0.639,0.791-0.958,1.916-0.958,3.375s0.319,2.584,0.958,3.375s1.494,1.188,2.566,1.188
		C95.339,27.023,96.189,26.626,96.82,25.835z"/>
	<path fill="#EC0082" d="M104.611,24.956c0.084,0.592,0.248,1.034,0.494,1.327c0.449,0.533,1.218,0.8,2.307,0.8
		c0.652,0,1.182-0.069,1.589-0.211c0.771-0.271,1.157-0.771,1.157-1.503c0-0.428-0.189-0.76-0.567-0.993
		c-0.378-0.229-0.978-0.431-1.799-0.606l-1.401-0.308c-1.379-0.305-2.326-0.636-2.842-0.993c-0.873-0.598-1.311-1.532-1.311-2.804
		c0-1.16,0.428-2.124,1.281-2.892s2.107-1.151,3.765-1.151c1.382,0,2.562,0.362,3.536,1.085c0.977,0.725,1.486,1.774,1.535,3.151
		h-2.604c-0.048-0.779-0.396-1.333-1.045-1.661c-0.434-0.217-0.973-0.325-1.611-0.325c-0.717,0-1.285,0.141-1.714,0.422
		c-0.427,0.281-0.64,0.674-0.64,1.178c0,0.463,0.21,0.809,0.631,1.037c0.271,0.152,0.844,0.331,1.723,0.536l2.271,0.536
		c0.997,0.234,1.742,0.548,2.24,0.94c0.771,0.609,1.158,1.491,1.158,2.646c0,1.185-0.459,2.167-1.373,2.948
		c-0.916,0.783-2.207,1.174-3.877,1.174c-1.707,0-3.047-0.385-4.023-1.156c-0.979-0.77-1.467-1.828-1.467-3.177H104.611z"/>
	<path fill="#EC0082" d="M124.465,18.294h-6.855v2.751h6.293v2.25h-6.293v3.331h7.174v2.329h-9.817V16h9.501L124.465,18.294
		L124.465,18.294z"/>
</g>
<g>
	<path fill="#00AEEF" d="M60.459,28.79c-0.979,1.008-2.394,1.512-4.245,1.512s-3.267-0.504-4.245-1.512
		C50.656,27.555,50,25.771,50,23.446c0-2.373,0.656-4.154,1.969-5.344c0.979-1.008,2.394-1.512,4.245-1.512s3.267,0.504,4.245,1.512
		c1.307,1.189,1.96,2.971,1.96,5.344C62.419,25.771,61.766,27.555,60.459,28.79z M58.767,26.82c0.63-0.791,0.945-1.916,0.945-3.375
		c0-1.453-0.315-2.576-0.945-3.37s-1.48-1.191-2.553-1.191c-1.073,0-1.928,0.396-2.566,1.187s-0.958,1.916-0.958,3.375
		c0,1.458,0.319,2.583,0.958,3.375s1.494,1.188,2.566,1.188C57.286,28.009,58.137,27.611,58.767,26.82z"/>
	<path fill="#00AEEF" d="M73.361,24.334c-0.758,0.633-1.841,0.949-3.249,0.949h-2.697v4.658h-2.689V16.986h5.562
		c1.282,0,2.305,0.334,3.067,1.002c0.762,0.668,1.144,1.702,1.144,3.103C74.499,22.62,74.12,23.701,73.361,24.334z M71.295,19.667
		c-0.343-0.287-0.822-0.431-1.44-0.431h-2.439v3.814h2.439c0.618,0,1.098-0.155,1.44-0.466c0.342-0.311,0.515-0.803,0.515-1.477
		C71.81,20.433,71.638,19.954,71.295,19.667z"/>
	<path fill="#00AEEF" d="M85.184,24.334c-0.758,0.633-1.841,0.949-3.248,0.949h-2.698v4.658h-2.689V16.986h5.562
		c1.281,0,2.305,0.334,3.065,1.002c0.763,0.668,1.146,1.702,1.146,3.103C86.32,22.62,85.941,23.701,85.184,24.334z M83.117,19.667
		c-0.344-0.287-0.822-0.431-1.44-0.431h-2.439v3.814h2.439c0.618,0,1.099-0.155,1.44-0.466c0.341-0.311,0.515-0.803,0.515-1.477
		C83.632,20.433,83.46,19.954,83.117,19.667z"/>
	<path fill="#00AEEF" d="M98.514,28.79c-0.979,1.008-2.395,1.512-4.246,1.512c-1.851,0-3.267-0.504-4.244-1.512
		c-1.312-1.235-1.969-3.019-1.969-5.344c0-2.373,0.655-4.154,1.969-5.344c0.979-1.008,2.395-1.512,4.244-1.512
		c1.853,0,3.269,0.504,4.246,1.512c1.307,1.189,1.959,2.971,1.959,5.344C100.473,25.771,99.818,27.555,98.514,28.79z M96.82,26.82
		c0.63-0.791,0.945-1.916,0.945-3.375c0-1.453-0.315-2.576-0.945-3.37c-0.631-0.794-1.48-1.191-2.553-1.191
		c-1.074,0-1.93,0.396-2.566,1.187c-0.639,0.791-0.958,1.916-0.958,3.375c0,1.458,0.319,2.583,0.958,3.375s1.494,1.188,2.566,1.188
		C95.339,28.009,96.189,27.611,96.82,26.82z"/>
	<path fill="#00AEEF" d="M104.611,25.941c0.084,0.593,0.248,1.035,0.494,1.328c0.449,0.531,1.218,0.799,2.307,0.799
		c0.652,0,1.182-0.069,1.589-0.211c0.771-0.271,1.157-0.771,1.157-1.502c0-0.43-0.189-0.76-0.567-0.994
		c-0.378-0.229-0.978-0.43-1.799-0.605l-1.401-0.308c-1.379-0.306-2.326-0.636-2.842-0.993c-0.873-0.598-1.311-1.532-1.311-2.804
		c0-1.16,0.428-2.124,1.281-2.892c0.854-0.768,2.107-1.151,3.765-1.151c1.382,0,2.562,0.362,3.536,1.085
		c0.977,0.725,1.486,1.774,1.535,3.151h-2.604c-0.048-0.779-0.396-1.333-1.045-1.661c-0.434-0.217-0.973-0.325-1.611-0.325
		c-0.717,0-1.285,0.141-1.714,0.422c-0.427,0.281-0.64,0.674-0.64,1.178c0,0.463,0.21,0.809,0.631,1.037
		c0.271,0.152,0.844,0.331,1.723,0.536l2.271,0.536c0.997,0.234,1.742,0.548,2.24,0.94c0.771,0.609,1.158,1.491,1.158,2.646
		c0,1.186-0.459,2.168-1.373,2.949c-0.916,0.782-2.207,1.174-3.877,1.174c-1.707,0-3.047-0.385-4.023-1.155
		c-0.979-0.771-1.467-1.829-1.467-3.179H104.611L104.611,25.941z"/>
	<path fill="#00AEEF" d="M124.465,19.28h-6.855v2.751h6.293v2.25h-6.293v3.33h7.174v2.33h-9.817V16.986h9.501L124.465,19.28
		L124.465,19.28z"/>
</g>
<path fill="#EC0082" d="M35.377,32.042c2.038-2.632,3.264-5.938,3.264-9.543C38.641,13.939,31.781,7,23.32,7
	C14.859,7,8,13.939,8,22.499C8,31.061,14.859,38,23.32,38c2.966,0,5.726-0.867,8.071-2.344c2.854,2.345,6.327,2.527,8.6,2.076
	c0.003-0.078,0.006-0.137,0.009-0.229C38.158,37.042,36.381,35.617,35.377,32.042z"/>
<path fill="#00AEEF" d="M35.377,33.042c2.038-2.632,3.264-5.938,3.264-9.543C38.641,14.939,31.781,8,23.32,8
	C14.859,8,8,14.939,8,23.499C8,32.061,14.859,39,23.32,39c2.966,0,5.726-0.867,8.071-2.344c2.854,2.345,6.327,2.527,8.6,2.076
	c0.003-0.078,0.006-0.137,0.009-0.229C38.158,38.042,36.381,36.617,35.377,33.042z"/>
<path fill="#C66825" d="M23.266,13.698c-5.365,0-9.714,4.401-9.714,9.829c0,5.429,4.349,9.829,9.714,9.829
	c5.365,0,9.715-4.398,9.715-9.829C32.98,18.1,28.631,13.698,23.266,13.698z M16.188,23.527c0-1.504,0.46-2.899,1.242-4.053
	l9.842,9.958c-1.14,0.793-2.518,1.258-4.006,1.258C19.357,30.689,16.188,27.482,16.188,23.527z M29.102,27.58l-9.842-9.957
	c1.14-0.792,2.519-1.259,4.006-1.259c3.909,0,7.078,3.208,7.078,7.163C30.344,25.032,29.885,26.428,29.102,27.58z"/>
</svg>
