<?xml version="1.0" encoding="utf-8"?>
<!-- Generator: Adobe Illustrator 15.0.1, SVG Export Plug-In . SVG Version: 6.00 Build 0)  -->
<!DOCTYPE svg PUBLIC "-//W3C//DTD SVG 1.1//EN" "http://www.w3.org/Graphics/SVG/1.1/DTD/svg11.dtd">
<svg version="1.1" id="Layer_1" xmlns="http://www.w3.org/2000/svg" xmlns:xlink="http://www.w3.org/1999/xlink" x="0px" y="0px"
	 width="233px" height="22px" viewBox="0 0 233 22" enable-background="new 0 0 233 22" xml:space="preserve">
<g>
	<path fill="#C66825" d="M11,21.5C5.21,21.5,0.5,16.79,0.5,11C0.5,5.21,5.21,0.5,11,0.5h211c5.79,0,10.5,4.71,10.5,10.5
		c0,5.79-4.71,10.5-10.5,10.5H11z"/>
	<path fill="#864817" d="M222,1c5.514,0,10,4.486,10,10c0,5.514-4.486,10-10,10H11C5.486,21,1,16.514,1,11C1,5.486,5.486,1,11,1H222
		 M222,0H11C4.925,0,0,4.925,0,11s4.925,11,11,11h211c6.075,0,11-4.925,11-11S228.075,0,222,0L222,0z"/>
</g>
<g>
	<path fill="#864817" d="M12.008,11.337c0.056,0.395,0.166,0.689,0.329,0.885c0.299,0.355,0.812,0.533,1.537,0.533
		c0.435,0,0.788-0.047,1.06-0.141c0.515-0.18,0.771-0.514,0.771-1.002c0-0.285-0.126-0.506-0.378-0.662
		c-0.252-0.152-0.652-0.287-1.199-0.404l-0.935-0.205c-0.92-0.203-1.551-0.424-1.895-0.662c-0.582-0.398-0.873-1.021-0.873-1.869
		c0-0.773,0.284-1.416,0.854-1.928c0.569-0.512,1.405-0.768,2.509-0.768c0.921,0,1.707,0.241,2.357,0.724s0.992,1.183,1.023,2.101
		h-1.734c-0.032-0.52-0.265-0.889-0.697-1.107c-0.288-0.145-0.646-0.217-1.075-0.217c-0.477,0-0.856,0.094-1.141,0.281
		s-0.427,0.449-0.427,0.785c0,0.309,0.141,0.539,0.421,0.691c0.18,0.102,0.562,0.221,1.147,0.357l1.516,0.357
		c0.664,0.156,1.162,0.365,1.493,0.627c0.515,0.406,0.772,0.994,0.772,1.764c0,0.789-0.305,1.444-0.915,1.966
		s-1.472,0.782-2.585,0.782c-1.138,0-2.031-0.257-2.683-0.771c-0.652-0.514-0.978-1.22-0.978-2.118H12.008z"/>
	<path fill="#864817" d="M22.858,7.745c0.445,0.2,0.813,0.515,1.104,0.945c0.262,0.38,0.431,0.819,0.509,1.32
		c0.045,0.293,0.063,0.716,0.055,1.268h-4.651c0.026,0.641,0.249,1.09,0.668,1.348c0.255,0.16,0.562,0.24,0.921,0.24
		c0.38,0,0.689-0.098,0.927-0.293c0.13-0.105,0.244-0.252,0.344-0.439h1.705c-0.045,0.379-0.251,0.764-0.619,1.154
		c-0.572,0.621-1.373,0.932-2.402,0.932c-0.851,0-1.601-0.262-2.25-0.786c-0.649-0.523-0.975-1.376-0.975-2.557
		c0-1.106,0.293-1.955,0.88-2.545c0.587-0.591,1.348-0.886,2.284-0.886C21.912,7.446,22.413,7.546,22.858,7.745z M20.36,9.188
		c-0.236,0.243-0.385,0.572-0.445,0.988h2.877c-0.03-0.443-0.179-0.779-0.445-1.009c-0.266-0.229-0.596-0.345-0.99-0.345
		C20.928,8.823,20.596,8.945,20.36,9.188z"/>
	<path fill="#864817" d="M30.641,7.982c0.418,0.346,0.627,0.919,0.627,1.72v4.301h-1.711v-3.885c0-0.336-0.045-0.594-0.134-0.773
		c-0.163-0.328-0.473-0.492-0.931-0.492c-0.562,0-0.948,0.24-1.157,0.721c-0.108,0.254-0.163,0.578-0.163,0.973v3.457h-1.67V7.628
		h1.617V8.56c0.214-0.328,0.416-0.564,0.606-0.709c0.343-0.258,0.776-0.387,1.302-0.387C29.685,7.464,30.222,7.637,30.641,7.982z"/>
	<path fill="#864817" d="M36.327,7.719c0.301,0.17,0.545,0.405,0.732,0.706V5.378h1.693v8.625H37.13v-0.885
		c-0.238,0.379-0.51,0.654-0.814,0.826s-0.684,0.258-1.137,0.258c-0.746,0-1.374-0.302-1.884-0.905s-0.765-1.378-0.765-2.323
		c0-1.09,0.251-1.947,0.753-2.572s1.173-0.938,2.013-0.938C35.683,7.464,36.026,7.549,36.327,7.719z M36.737,12.269
		c0.246-0.352,0.369-0.807,0.369-1.365c0-0.781-0.197-1.34-0.592-1.676c-0.242-0.203-0.523-0.305-0.844-0.305
		c-0.488,0-0.847,0.185-1.075,0.554s-0.343,0.827-0.343,1.374c0,0.59,0.116,1.062,0.349,1.415s0.585,0.53,1.058,0.53
		S36.491,12.62,36.737,12.269z"/>
	<path fill="#864817" d="M49.708,5.366h2.597v8.637h-1.682V8.161c0-0.168,0.002-0.403,0.006-0.706s0.006-0.536,0.006-0.7
		l-1.637,7.248h-1.754l-1.625-7.248c0,0.164,0.002,0.397,0.006,0.7s0.006,0.538,0.006,0.706v5.842h-1.682V5.366h2.626l1.572,6.791
		L49.708,5.366z"/>
	<path fill="#864817" d="M54.212,15.228l0.211,0.012c0.164,0.008,0.32,0.002,0.469-0.018s0.273-0.064,0.375-0.135
		c0.098-0.066,0.188-0.205,0.272-0.416s0.12-0.34,0.108-0.387l-2.347-6.668h1.857l1.395,4.711l1.318-4.711h1.775l-2.189,6.281
		c-0.423,1.211-0.758,1.962-1.004,2.253c-0.247,0.291-0.739,0.437-1.479,0.437c-0.148,0-0.268-0.001-0.358-0.003
		c-0.09-0.002-0.225-0.009-0.404-0.021V15.228z"/>
	<path fill="#864817" d="M65.644,11.337c0.056,0.395,0.166,0.689,0.329,0.885c0.299,0.355,0.812,0.533,1.537,0.533
		c0.435,0,0.788-0.047,1.06-0.141c0.515-0.18,0.771-0.514,0.771-1.002c0-0.285-0.126-0.506-0.378-0.662
		c-0.252-0.152-0.652-0.287-1.199-0.404l-0.935-0.205c-0.92-0.203-1.551-0.424-1.895-0.662c-0.582-0.398-0.873-1.021-0.873-1.869
		c0-0.773,0.284-1.416,0.854-1.928c0.569-0.512,1.405-0.768,2.509-0.768c0.921,0,1.707,0.241,2.357,0.724s0.992,1.183,1.023,2.101
		h-1.734c-0.032-0.52-0.265-0.889-0.697-1.107c-0.288-0.145-0.646-0.217-1.075-0.217c-0.477,0-0.856,0.094-1.141,0.281
		s-0.427,0.449-0.427,0.785c0,0.309,0.141,0.539,0.421,0.691c0.18,0.102,0.562,0.221,1.147,0.357l1.516,0.357
		c0.664,0.156,1.162,0.365,1.493,0.627c0.515,0.406,0.772,0.994,0.772,1.764c0,0.789-0.305,1.444-0.915,1.966
		s-1.472,0.782-2.585,0.782c-1.138,0-2.031-0.257-2.683-0.771c-0.652-0.514-0.978-1.22-0.978-2.118H65.644z"/>
	<path fill="#864817" d="M73.996,7.616v3.85c0,0.363,0.043,0.637,0.128,0.82c0.152,0.324,0.449,0.486,0.893,0.486
		c0.567,0,0.956-0.23,1.166-0.691c0.108-0.25,0.163-0.58,0.163-0.99V7.616h1.693v6.387h-1.623v-0.902
		c-0.016,0.02-0.055,0.078-0.117,0.176c-0.062,0.098-0.136,0.184-0.222,0.258c-0.261,0.234-0.514,0.395-0.757,0.48
		s-0.528,0.129-0.855,0.129c-0.943,0-1.578-0.34-1.905-1.02c-0.183-0.375-0.274-0.928-0.274-1.658v-3.85H73.996z"/>
	<path fill="#864817" d="M85.153,8.302c0.521,0.551,0.781,1.359,0.781,2.426c0,1.125-0.255,1.982-0.764,2.572
		s-1.165,0.885-1.967,0.885c-0.511,0-0.936-0.127-1.273-0.381c-0.186-0.141-0.366-0.346-0.543-0.615v3.328h-1.652v-8.9h1.6V8.56
		c0.181-0.277,0.373-0.496,0.578-0.656c0.373-0.285,0.817-0.428,1.332-0.428C83.996,7.476,84.632,7.751,85.153,8.302z M83.871,9.503
		c-0.227-0.379-0.595-0.568-1.104-0.568c-0.611,0-1.032,0.287-1.261,0.861c-0.118,0.305-0.178,0.691-0.178,1.16
		c0,0.742,0.199,1.264,0.598,1.564c0.236,0.176,0.517,0.264,0.841,0.264c0.47,0,0.827-0.18,1.074-0.539s0.37-0.838,0.37-1.436
		C84.212,10.317,84.099,9.882,83.871,9.503z"/>
	<path fill="#864817" d="M92.604,8.302c0.521,0.551,0.781,1.359,0.781,2.426c0,1.125-0.255,1.982-0.764,2.572
		s-1.165,0.885-1.967,0.885c-0.511,0-0.936-0.127-1.273-0.381c-0.186-0.141-0.366-0.346-0.543-0.615v3.328h-1.652v-8.9h1.6V8.56
		c0.181-0.277,0.373-0.496,0.578-0.656c0.373-0.285,0.817-0.428,1.332-0.428C91.446,7.476,92.082,7.751,92.604,8.302z M91.321,9.503
		c-0.227-0.379-0.595-0.568-1.104-0.568c-0.611,0-1.032,0.287-1.261,0.861c-0.118,0.305-0.178,0.691-0.178,1.16
		c0,0.742,0.199,1.264,0.598,1.564c0.236,0.176,0.517,0.264,0.841,0.264c0.47,0,0.827-0.18,1.074-0.539s0.37-0.838,0.37-1.436
		C91.662,10.317,91.549,9.882,91.321,9.503z"/>
	<path fill="#864817" d="M100.009,13.222c-0.539,0.665-1.357,0.998-2.455,0.998s-1.916-0.333-2.455-0.998s-0.809-1.467-0.809-2.403
		c0-0.921,0.27-1.719,0.809-2.395c0.539-0.675,1.357-1.013,2.455-1.013s1.916,0.338,2.455,1.013
		c0.539,0.676,0.809,1.474,0.809,2.395C100.817,11.755,100.548,12.557,100.009,13.222z M98.673,12.299
		c0.262-0.348,0.393-0.841,0.393-1.48s-0.131-1.132-0.393-1.478c-0.262-0.345-0.637-0.518-1.125-0.518s-0.864,0.173-1.128,0.518
		c-0.264,0.346-0.396,0.838-0.396,1.478s0.132,1.133,0.396,1.48c0.264,0.347,0.64,0.521,1.128,0.521S98.411,12.646,98.673,12.299z"
		/>
	<path fill="#864817" d="M105.68,7.467c0.021,0.002,0.069,0.005,0.144,0.009v1.711c-0.105-0.012-0.199-0.02-0.281-0.023
		s-0.148-0.006-0.199-0.006c-0.672,0-1.123,0.219-1.354,0.656c-0.129,0.246-0.193,0.625-0.193,1.137v3.053h-1.682V7.616h1.594v1.113
		c0.258-0.426,0.482-0.717,0.674-0.873c0.312-0.262,0.719-0.393,1.219-0.393C105.632,7.464,105.658,7.465,105.68,7.467z"/>
	<path fill="#864817" d="M106.266,8.864V7.675h0.891V5.894h1.652v1.781h1.037v1.189h-1.037v3.375c0,0.262,0.033,0.425,0.1,0.489
		s0.27,0.097,0.609,0.097c0.051,0,0.104-0.001,0.161-0.003s0.112-0.005,0.167-0.009v1.248l-0.791,0.029
		c-0.789,0.027-1.328-0.109-1.617-0.41c-0.188-0.191-0.281-0.486-0.281-0.885V8.864H106.266z"/>
	<path fill="#864817" d="M115.802,5.366l1.141,4.946l0.248,1.376l0.249-1.349l0.976-4.974h1.904l1.026,4.945l0.263,1.377
		l0.267-1.323l1.151-4.999h1.838l-2.43,8.637h-1.729l-1.043-5.051l-0.305-1.67l-0.305,1.67l-1.043,5.051h-1.676l-2.449-8.637
		H115.802z"/>
	<path fill="#864817" d="M127.655,6.854h-1.693V5.313h1.693V6.854z M125.962,7.616h1.693v6.387h-1.693V7.616z"/>
	<path fill="#864817" d="M128.736,8.864V7.675h0.891V5.894h1.652v1.781h1.037v1.189h-1.037v3.375c0,0.262,0.033,0.425,0.1,0.489
		s0.27,0.097,0.609,0.097c0.051,0,0.104-0.001,0.161-0.003s0.112-0.005,0.167-0.009v1.248l-0.791,0.029
		c-0.789,0.027-1.328-0.109-1.617-0.41c-0.188-0.191-0.281-0.486-0.281-0.885V8.864H128.736z"/>
	<path fill="#864817" d="M138.099,7.651c0.321,0.137,0.585,0.347,0.791,0.628c0.175,0.238,0.281,0.483,0.32,0.735
		c0.039,0.253,0.059,0.664,0.059,1.235v3.753h-1.705v-3.889c0-0.345-0.059-0.622-0.175-0.833c-0.151-0.298-0.438-0.446-0.86-0.446
		c-0.438,0-0.771,0.147-0.998,0.443c-0.227,0.295-0.34,0.716-0.34,1.264v3.461h-1.67V5.396h1.67v3.047
		c0.241-0.371,0.521-0.63,0.837-0.776c0.317-0.146,0.65-0.22,1.001-0.22C137.421,7.446,137.778,7.515,138.099,7.651z"/>
	<path fill="#864817" d="M146.285,13.222c-0.539,0.665-1.357,0.998-2.455,0.998s-1.916-0.333-2.455-0.998s-0.809-1.467-0.809-2.403
		c0-0.921,0.27-1.719,0.809-2.395c0.539-0.675,1.357-1.013,2.455-1.013s1.916,0.338,2.455,1.013
		c0.539,0.676,0.809,1.474,0.809,2.395C147.094,11.755,146.824,12.557,146.285,13.222z M144.949,12.299
		c0.262-0.348,0.393-0.841,0.393-1.48s-0.131-1.132-0.393-1.478c-0.262-0.345-0.637-0.518-1.125-0.518s-0.864,0.173-1.128,0.518
		c-0.264,0.346-0.396,0.838-0.396,1.478s0.132,1.133,0.396,1.48c0.264,0.347,0.64,0.521,1.128,0.521S144.688,12.646,144.949,12.299z
		"/>
	<path fill="#864817" d="M150.072,7.616v3.85c0,0.363,0.043,0.637,0.128,0.82c0.152,0.324,0.449,0.486,0.893,0.486
		c0.567,0,0.956-0.23,1.166-0.691c0.108-0.25,0.163-0.58,0.163-0.99V7.616h1.693v6.387h-1.623v-0.902
		c-0.016,0.02-0.055,0.078-0.117,0.176c-0.062,0.098-0.136,0.184-0.222,0.258c-0.261,0.234-0.514,0.395-0.757,0.48
		s-0.528,0.129-0.855,0.129c-0.943,0-1.578-0.34-1.905-1.02c-0.183-0.375-0.274-0.928-0.274-1.658v-3.85H150.072z"/>
	<path fill="#864817" d="M155.202,8.864V7.675h0.891V5.894h1.652v1.781h1.037v1.189h-1.037v3.375c0,0.262,0.033,0.425,0.1,0.489
		s0.27,0.097,0.609,0.097c0.051,0,0.104-0.001,0.161-0.003s0.112-0.005,0.167-0.009v1.248l-0.791,0.029
		c-0.789,0.027-1.328-0.109-1.617-0.41c-0.188-0.191-0.281-0.486-0.281-0.885V8.864H155.202z"/>
	<path fill="#864817" d="M165.958,10.118c0.312-0.039,0.533-0.088,0.667-0.146c0.24-0.102,0.36-0.26,0.36-0.475
		c0-0.262-0.092-0.442-0.276-0.542c-0.184-0.1-0.454-0.149-0.811-0.149c-0.399,0-0.683,0.098-0.85,0.293
		c-0.118,0.145-0.198,0.34-0.237,0.586H163.2c0.035-0.559,0.192-1.018,0.471-1.377c0.443-0.562,1.204-0.844,2.283-0.844
		c0.702,0,1.326,0.139,1.871,0.416c0.546,0.277,0.818,0.801,0.818,1.57v2.93c0,0.203,0.004,0.449,0.012,0.738
		c0.012,0.219,0.045,0.367,0.1,0.445s0.137,0.143,0.246,0.193v0.246h-1.816c-0.051-0.129-0.086-0.25-0.105-0.363
		s-0.035-0.242-0.047-0.387c-0.231,0.25-0.499,0.463-0.802,0.639c-0.361,0.207-0.77,0.311-1.226,0.311
		c-0.582,0-1.062-0.165-1.441-0.495c-0.379-0.33-0.568-0.798-0.568-1.403c0-0.785,0.305-1.354,0.915-1.705
		c0.334-0.191,0.826-0.328,1.476-0.41L165.958,10.118z M166.979,10.897c-0.107,0.066-0.215,0.12-0.324,0.161
		c-0.108,0.041-0.258,0.079-0.448,0.114l-0.38,0.07c-0.356,0.062-0.612,0.139-0.768,0.229c-0.263,0.152-0.395,0.389-0.395,0.709
		c0,0.285,0.08,0.491,0.241,0.618c0.16,0.127,0.355,0.19,0.586,0.19c0.365,0,0.701-0.105,1.009-0.316
		c0.307-0.211,0.467-0.596,0.479-1.154V10.897z"/>
	<path fill="#864817" d="M179.541,5.366h2.597v8.637h-1.682V8.161c0-0.168,0.002-0.403,0.006-0.706s0.006-0.536,0.006-0.7
		l-1.637,7.248h-1.754l-1.625-7.248c0,0.164,0.002,0.397,0.006,0.7s0.006,0.538,0.006,0.706v5.842h-1.682V5.366h2.626l1.572,6.791
		L179.541,5.366z"/>
	<path fill="#864817" d="M187.955,7.745c0.445,0.2,0.813,0.515,1.104,0.945c0.262,0.38,0.431,0.819,0.509,1.32
		c0.045,0.293,0.063,0.716,0.055,1.268h-4.651c0.026,0.641,0.249,1.09,0.668,1.348c0.255,0.16,0.562,0.24,0.921,0.24
		c0.38,0,0.689-0.098,0.927-0.293c0.13-0.105,0.244-0.252,0.344-0.439h1.705c-0.045,0.379-0.251,0.764-0.619,1.154
		c-0.572,0.621-1.373,0.932-2.402,0.932c-0.851,0-1.601-0.262-2.25-0.786c-0.649-0.523-0.975-1.376-0.975-2.557
		c0-1.106,0.293-1.955,0.88-2.545c0.587-0.591,1.348-0.886,2.284-0.886C187.009,7.446,187.51,7.546,187.955,7.745z M185.457,9.188
		c-0.236,0.243-0.385,0.572-0.445,0.988h2.877c-0.03-0.443-0.179-0.779-0.445-1.009c-0.266-0.229-0.596-0.345-0.99-0.345
		C186.024,8.823,185.692,8.945,185.457,9.188z"/>
	<path fill="#864817" d="M191.882,11.964c0.035,0.297,0.112,0.508,0.229,0.633c0.208,0.223,0.593,0.334,1.154,0.334
		c0.329,0,0.592-0.049,0.786-0.146s0.291-0.244,0.291-0.439c0-0.188-0.078-0.33-0.234-0.428c-0.157-0.098-0.739-0.266-1.747-0.504
		c-0.726-0.18-1.237-0.404-1.534-0.674c-0.297-0.266-0.445-0.648-0.445-1.148c0-0.59,0.231-1.097,0.695-1.521
		c0.465-0.424,1.117-0.636,1.959-0.636c0.799,0,1.449,0.159,1.952,0.478s0.792,0.868,0.866,1.649h-1.67
		c-0.023-0.215-0.084-0.385-0.182-0.51c-0.185-0.227-0.498-0.34-0.94-0.34c-0.364,0-0.624,0.057-0.778,0.17
		c-0.155,0.113-0.232,0.246-0.232,0.398c0,0.191,0.082,0.33,0.247,0.416c0.164,0.09,0.745,0.244,1.743,0.463
		c0.665,0.156,1.164,0.393,1.496,0.709c0.328,0.32,0.492,0.721,0.492,1.201c0,0.633-0.236,1.149-0.707,1.55
		c-0.473,0.4-1.201,0.601-2.188,0.601c-1.006,0-1.749-0.212-2.229-0.636s-0.719-0.964-0.719-1.62H191.882z"/>
	<path fill="#864817" d="M198.676,11.964c0.035,0.297,0.112,0.508,0.229,0.633c0.208,0.223,0.593,0.334,1.154,0.334
		c0.329,0,0.592-0.049,0.786-0.146s0.291-0.244,0.291-0.439c0-0.188-0.078-0.33-0.234-0.428c-0.157-0.098-0.739-0.266-1.747-0.504
		c-0.726-0.18-1.237-0.404-1.534-0.674c-0.297-0.266-0.445-0.648-0.445-1.148c0-0.59,0.231-1.097,0.695-1.521
		c0.465-0.424,1.117-0.636,1.959-0.636c0.799,0,1.449,0.159,1.952,0.478s0.792,0.868,0.866,1.649h-1.67
		c-0.023-0.215-0.084-0.385-0.182-0.51c-0.185-0.227-0.498-0.34-0.94-0.34c-0.364,0-0.624,0.057-0.778,0.17
		c-0.155,0.113-0.232,0.246-0.232,0.398c0,0.191,0.082,0.33,0.247,0.416c0.164,0.09,0.745,0.244,1.743,0.463
		c0.665,0.156,1.164,0.393,1.496,0.709c0.328,0.32,0.492,0.721,0.492,1.201c0,0.633-0.236,1.149-0.707,1.55
		c-0.473,0.4-1.201,0.601-2.188,0.601c-1.006,0-1.749-0.212-2.229-0.636s-0.719-0.964-0.719-1.62H198.676z"/>
	<path fill="#864817" d="M206.703,10.118c0.312-0.039,0.533-0.088,0.667-0.146c0.24-0.102,0.36-0.26,0.36-0.475
		c0-0.262-0.092-0.442-0.276-0.542c-0.184-0.1-0.454-0.149-0.811-0.149c-0.399,0-0.683,0.098-0.85,0.293
		c-0.118,0.145-0.198,0.34-0.237,0.586h-1.611c0.035-0.559,0.192-1.018,0.471-1.377c0.443-0.562,1.204-0.844,2.283-0.844
		c0.702,0,1.326,0.139,1.871,0.416c0.546,0.277,0.818,0.801,0.818,1.57v2.93c0,0.203,0.004,0.449,0.012,0.738
		c0.012,0.219,0.045,0.367,0.1,0.445s0.137,0.143,0.246,0.193v0.246h-1.816c-0.051-0.129-0.086-0.25-0.105-0.363
		s-0.035-0.242-0.047-0.387c-0.231,0.25-0.499,0.463-0.802,0.639c-0.361,0.207-0.77,0.311-1.226,0.311
		c-0.582,0-1.062-0.165-1.441-0.495c-0.379-0.33-0.568-0.798-0.568-1.403c0-0.785,0.305-1.354,0.915-1.705
		c0.334-0.191,0.826-0.328,1.476-0.41L206.703,10.118z M207.725,10.897c-0.107,0.066-0.215,0.12-0.324,0.161
		c-0.108,0.041-0.258,0.079-0.448,0.114l-0.38,0.07c-0.356,0.062-0.612,0.139-0.768,0.229c-0.263,0.152-0.395,0.389-0.395,0.709
		c0,0.285,0.08,0.491,0.241,0.618c0.16,0.127,0.355,0.19,0.586,0.19c0.365,0,0.701-0.105,1.009-0.316
		c0.307-0.211,0.467-0.596,0.479-1.154V10.897z"/>
	<path fill="#864817" d="M214.127,7.61c0.406,0.168,0.733,0.477,0.983,0.926v-0.92h1.629v6.059c0,0.824-0.139,1.445-0.416,1.863
		c-0.477,0.719-1.391,1.078-2.742,1.078c-0.816,0-1.482-0.16-1.998-0.48s-0.801-0.799-0.855-1.436h1.816
		c0.047,0.195,0.123,0.336,0.229,0.422c0.18,0.152,0.482,0.229,0.908,0.229c0.602,0,1.004-0.201,1.207-0.604
		c0.133-0.258,0.199-0.691,0.199-1.301v-0.41c-0.16,0.273-0.332,0.479-0.516,0.615c-0.332,0.254-0.764,0.381-1.295,0.381
		c-0.82,0-1.476-0.288-1.966-0.864s-0.735-1.356-0.735-2.341c0-0.949,0.236-1.747,0.708-2.394s1.142-0.97,2.007-0.97
		C213.61,7.464,213.89,7.513,214.127,7.61z M214.696,12.189c0.269-0.295,0.402-0.765,0.402-1.409c0-0.605-0.127-1.066-0.382-1.383
		s-0.597-0.475-1.024-0.475c-0.583,0-0.986,0.275-1.208,0.826c-0.116,0.293-0.175,0.654-0.175,1.084c0,0.371,0.062,0.701,0.187,0.99
		c0.226,0.539,0.63,0.809,1.214,0.809C214.099,12.632,214.428,12.484,214.696,12.189z"/>
	<path fill="#864817" d="M222.58,7.745c0.445,0.2,0.813,0.515,1.104,0.945c0.262,0.38,0.431,0.819,0.509,1.32
		c0.045,0.293,0.063,0.716,0.055,1.268h-4.651c0.026,0.641,0.249,1.09,0.668,1.348c0.255,0.16,0.562,0.24,0.921,0.24
		c0.38,0,0.689-0.098,0.927-0.293c0.13-0.105,0.244-0.252,0.344-0.439h1.705c-0.045,0.379-0.251,0.764-0.619,1.154
		c-0.572,0.621-1.373,0.932-2.402,0.932c-0.851,0-1.601-0.262-2.25-0.786c-0.649-0.523-0.975-1.376-0.975-2.557
		c0-1.106,0.293-1.955,0.88-2.545c0.587-0.591,1.348-0.886,2.284-0.886C221.634,7.446,222.135,7.546,222.58,7.745z M220.082,9.188
		c-0.236,0.243-0.385,0.572-0.445,0.988h2.877c-0.03-0.443-0.179-0.779-0.445-1.009c-0.266-0.229-0.596-0.345-0.99-0.345
		C220.649,8.823,220.317,8.945,220.082,9.188z"/>
</g>
<g>
	<path fill="#FFFFFF" d="M12.008,12.337c0.056,0.395,0.166,0.689,0.329,0.885c0.299,0.355,0.812,0.533,1.537,0.533
		c0.435,0,0.788-0.047,1.06-0.141c0.515-0.18,0.771-0.514,0.771-1.002c0-0.285-0.126-0.506-0.378-0.662
		c-0.252-0.152-0.652-0.287-1.199-0.404l-0.935-0.205c-0.92-0.203-1.551-0.424-1.895-0.662c-0.582-0.398-0.873-1.021-0.873-1.869
		c0-0.773,0.284-1.416,0.854-1.928c0.569-0.512,1.405-0.768,2.509-0.768c0.921,0,1.707,0.241,2.357,0.724s0.992,1.183,1.023,2.101
		h-1.734c-0.032-0.52-0.265-0.889-0.697-1.107c-0.288-0.145-0.646-0.217-1.075-0.217c-0.477,0-0.856,0.094-1.141,0.281
		s-0.427,0.449-0.427,0.785c0,0.309,0.141,0.539,0.421,0.691c0.18,0.102,0.562,0.221,1.147,0.357l1.516,0.357
		c0.664,0.156,1.162,0.365,1.493,0.627c0.515,0.406,0.772,0.994,0.772,1.764c0,0.789-0.305,1.444-0.915,1.966
		s-1.472,0.782-2.585,0.782c-1.138,0-2.031-0.257-2.683-0.771c-0.652-0.514-0.978-1.22-0.978-2.118H12.008z"/>
	<path fill="#FFFFFF" d="M22.858,8.745c0.445,0.2,0.813,0.515,1.104,0.945c0.262,0.38,0.431,0.819,0.509,1.32
		c0.045,0.293,0.063,0.716,0.055,1.268h-4.651c0.026,0.641,0.249,1.09,0.668,1.348c0.255,0.16,0.562,0.24,0.921,0.24
		c0.38,0,0.689-0.098,0.927-0.293c0.13-0.105,0.244-0.252,0.344-0.439h1.705c-0.045,0.379-0.251,0.764-0.619,1.154
		c-0.572,0.621-1.373,0.932-2.402,0.932c-0.851,0-1.601-0.262-2.25-0.786c-0.649-0.523-0.975-1.376-0.975-2.557
		c0-1.106,0.293-1.955,0.88-2.545c0.587-0.591,1.348-0.886,2.284-0.886C21.912,8.446,22.413,8.546,22.858,8.745z M20.36,10.188
		c-0.236,0.243-0.385,0.572-0.445,0.988h2.877c-0.03-0.443-0.179-0.779-0.445-1.009c-0.266-0.229-0.596-0.345-0.99-0.345
		C20.928,9.823,20.596,9.945,20.36,10.188z"/>
	<path fill="#FFFFFF" d="M30.641,8.982c0.418,0.346,0.627,0.919,0.627,1.72v4.301h-1.711v-3.885c0-0.336-0.045-0.594-0.134-0.773
		c-0.163-0.328-0.473-0.492-0.931-0.492c-0.562,0-0.948,0.24-1.157,0.721c-0.108,0.254-0.163,0.578-0.163,0.973v3.457h-1.67V8.628
		h1.617V9.56c0.214-0.328,0.416-0.564,0.606-0.709c0.343-0.258,0.776-0.387,1.302-0.387C29.685,8.464,30.222,8.637,30.641,8.982z"/>
	<path fill="#FFFFFF" d="M36.327,8.719c0.301,0.17,0.545,0.405,0.732,0.706V6.378h1.693v8.625H37.13v-0.885
		c-0.238,0.379-0.51,0.654-0.814,0.826s-0.684,0.258-1.137,0.258c-0.746,0-1.374-0.302-1.884-0.905s-0.765-1.378-0.765-2.323
		c0-1.09,0.251-1.947,0.753-2.572s1.173-0.938,2.013-0.938C35.683,8.464,36.026,8.549,36.327,8.719z M36.737,13.269
		c0.246-0.352,0.369-0.807,0.369-1.365c0-0.781-0.197-1.34-0.592-1.676c-0.242-0.203-0.523-0.305-0.844-0.305
		c-0.488,0-0.847,0.185-1.075,0.554s-0.343,0.827-0.343,1.374c0,0.59,0.116,1.062,0.349,1.415s0.585,0.53,1.058,0.53
		S36.491,13.62,36.737,13.269z"/>
	<path fill="#FFFFFF" d="M49.708,6.366h2.597v8.637h-1.682V9.161c0-0.168,0.002-0.403,0.006-0.706s0.006-0.536,0.006-0.7
		l-1.637,7.248h-1.754l-1.625-7.248c0,0.164,0.002,0.397,0.006,0.7s0.006,0.538,0.006,0.706v5.842h-1.682V6.366h2.626l1.572,6.791
		L49.708,6.366z"/>
	<path fill="#FFFFFF" d="M54.212,16.228l0.211,0.012c0.164,0.008,0.32,0.002,0.469-0.018s0.273-0.064,0.375-0.135
		c0.098-0.066,0.188-0.205,0.272-0.416s0.12-0.34,0.108-0.387l-2.347-6.668h1.857l1.395,4.711l1.318-4.711h1.775l-2.189,6.281
		c-0.423,1.211-0.758,1.962-1.004,2.253c-0.247,0.291-0.739,0.437-1.479,0.437c-0.148,0-0.268-0.001-0.358-0.003
		c-0.09-0.002-0.225-0.009-0.404-0.021V16.228z"/>
	<path fill="#FFFFFF" d="M65.644,12.337c0.056,0.395,0.166,0.689,0.329,0.885c0.299,0.355,0.812,0.533,1.537,0.533
		c0.435,0,0.788-0.047,1.06-0.141c0.515-0.18,0.771-0.514,0.771-1.002c0-0.285-0.126-0.506-0.378-0.662
		c-0.252-0.152-0.652-0.287-1.199-0.404l-0.935-0.205c-0.92-0.203-1.551-0.424-1.895-0.662c-0.582-0.398-0.873-1.021-0.873-1.869
		c0-0.773,0.284-1.416,0.854-1.928c0.569-0.512,1.405-0.768,2.509-0.768c0.921,0,1.707,0.241,2.357,0.724s0.992,1.183,1.023,2.101
		h-1.734c-0.032-0.52-0.265-0.889-0.697-1.107c-0.288-0.145-0.646-0.217-1.075-0.217c-0.477,0-0.856,0.094-1.141,0.281
		s-0.427,0.449-0.427,0.785c0,0.309,0.141,0.539,0.421,0.691c0.18,0.102,0.562,0.221,1.147,0.357l1.516,0.357
		c0.664,0.156,1.162,0.365,1.493,0.627c0.515,0.406,0.772,0.994,0.772,1.764c0,0.789-0.305,1.444-0.915,1.966
		s-1.472,0.782-2.585,0.782c-1.138,0-2.031-0.257-2.683-0.771c-0.652-0.514-0.978-1.22-0.978-2.118H65.644z"/>
	<path fill="#FFFFFF" d="M73.996,8.616v3.85c0,0.363,0.043,0.637,0.128,0.82c0.152,0.324,0.449,0.486,0.893,0.486
		c0.567,0,0.956-0.23,1.166-0.691c0.108-0.25,0.163-0.58,0.163-0.99V8.616h1.693v6.387h-1.623v-0.902
		c-0.016,0.02-0.055,0.078-0.117,0.176c-0.062,0.098-0.136,0.184-0.222,0.258c-0.261,0.234-0.514,0.395-0.757,0.48
		s-0.528,0.129-0.855,0.129c-0.943,0-1.578-0.34-1.905-1.02c-0.183-0.375-0.274-0.928-0.274-1.658v-3.85H73.996z"/>
	<path fill="#FFFFFF" d="M85.153,9.302c0.521,0.551,0.781,1.359,0.781,2.426c0,1.125-0.255,1.982-0.764,2.572
		s-1.165,0.885-1.967,0.885c-0.511,0-0.936-0.127-1.273-0.381c-0.186-0.141-0.366-0.346-0.543-0.615v3.328h-1.652v-8.9h1.6V9.56
		c0.181-0.277,0.373-0.496,0.578-0.656c0.373-0.285,0.817-0.428,1.332-0.428C83.996,8.476,84.632,8.751,85.153,9.302z
		 M83.871,10.503c-0.227-0.379-0.595-0.568-1.104-0.568c-0.611,0-1.032,0.287-1.261,0.861c-0.118,0.305-0.178,0.691-0.178,1.16
		c0,0.742,0.199,1.264,0.598,1.564c0.236,0.176,0.517,0.264,0.841,0.264c0.47,0,0.827-0.18,1.074-0.539s0.37-0.838,0.37-1.436
		C84.212,11.317,84.099,10.882,83.871,10.503z"/>
	<path fill="#FFFFFF" d="M92.604,9.302c0.521,0.551,0.781,1.359,0.781,2.426c0,1.125-0.255,1.982-0.764,2.572
		s-1.165,0.885-1.967,0.885c-0.511,0-0.936-0.127-1.273-0.381c-0.186-0.141-0.366-0.346-0.543-0.615v3.328h-1.652v-8.9h1.6V9.56
		c0.181-0.277,0.373-0.496,0.578-0.656c0.373-0.285,0.817-0.428,1.332-0.428C91.446,8.476,92.082,8.751,92.604,9.302z
		 M91.321,10.503c-0.227-0.379-0.595-0.568-1.104-0.568c-0.611,0-1.032,0.287-1.261,0.861c-0.118,0.305-0.178,0.691-0.178,1.16
		c0,0.742,0.199,1.264,0.598,1.564c0.236,0.176,0.517,0.264,0.841,0.264c0.47,0,0.827-0.18,1.074-0.539s0.37-0.838,0.37-1.436
		C91.662,11.317,91.549,10.882,91.321,10.503z"/>
	<path fill="#FFFFFF" d="M100.009,14.222c-0.539,0.665-1.357,0.998-2.455,0.998s-1.916-0.333-2.455-0.998s-0.809-1.467-0.809-2.403
		c0-0.921,0.27-1.719,0.809-2.395c0.539-0.675,1.357-1.013,2.455-1.013s1.916,0.338,2.455,1.013
		c0.539,0.676,0.809,1.474,0.809,2.395C100.817,12.755,100.548,13.557,100.009,14.222z M98.673,13.299
		c0.262-0.348,0.393-0.841,0.393-1.48s-0.131-1.132-0.393-1.478c-0.262-0.345-0.637-0.518-1.125-0.518s-0.864,0.173-1.128,0.518
		c-0.264,0.346-0.396,0.838-0.396,1.478s0.132,1.133,0.396,1.48c0.264,0.347,0.64,0.521,1.128,0.521S98.411,13.646,98.673,13.299z"
		/>
	<path fill="#FFFFFF" d="M105.68,8.467c0.021,0.002,0.069,0.005,0.144,0.009v1.711c-0.105-0.012-0.199-0.02-0.281-0.023
		s-0.148-0.006-0.199-0.006c-0.672,0-1.123,0.219-1.354,0.656c-0.129,0.246-0.193,0.625-0.193,1.137v3.053h-1.682V8.616h1.594v1.113
		c0.258-0.426,0.482-0.717,0.674-0.873c0.312-0.262,0.719-0.393,1.219-0.393C105.632,8.464,105.658,8.465,105.68,8.467z"/>
	<path fill="#FFFFFF" d="M106.266,9.864V8.675h0.891V6.894h1.652v1.781h1.037v1.189h-1.037v3.375c0,0.262,0.033,0.425,0.1,0.489
		s0.27,0.097,0.609,0.097c0.051,0,0.104-0.001,0.161-0.003s0.112-0.005,0.167-0.009v1.248l-0.791,0.029
		c-0.789,0.027-1.328-0.109-1.617-0.41c-0.188-0.191-0.281-0.486-0.281-0.885V9.864H106.266z"/>
	<path fill="#FFFFFF" d="M115.802,6.366l1.141,4.946l0.248,1.376l0.249-1.349l0.976-4.974h1.904l1.026,4.945l0.263,1.377
		l0.267-1.323l1.151-4.999h1.838l-2.43,8.637h-1.729l-1.043-5.051l-0.305-1.67l-0.305,1.67l-1.043,5.051h-1.676l-2.449-8.637
		H115.802z"/>
	<path fill="#FFFFFF" d="M127.655,7.854h-1.693V6.313h1.693V7.854z M125.962,8.616h1.693v6.387h-1.693V8.616z"/>
	<path fill="#FFFFFF" d="M128.736,9.864V8.675h0.891V6.894h1.652v1.781h1.037v1.189h-1.037v3.375c0,0.262,0.033,0.425,0.1,0.489
		s0.27,0.097,0.609,0.097c0.051,0,0.104-0.001,0.161-0.003s0.112-0.005,0.167-0.009v1.248l-0.791,0.029
		c-0.789,0.027-1.328-0.109-1.617-0.41c-0.188-0.191-0.281-0.486-0.281-0.885V9.864H128.736z"/>
	<path fill="#FFFFFF" d="M138.099,8.651c0.321,0.137,0.585,0.347,0.791,0.628c0.175,0.238,0.281,0.483,0.32,0.735
		c0.039,0.253,0.059,0.664,0.059,1.235v3.753h-1.705v-3.889c0-0.345-0.059-0.622-0.175-0.833c-0.151-0.298-0.438-0.446-0.86-0.446
		c-0.438,0-0.771,0.147-0.998,0.443c-0.227,0.295-0.34,0.716-0.34,1.264v3.461h-1.67V6.396h1.67v3.047
		c0.241-0.371,0.521-0.63,0.837-0.776c0.317-0.146,0.65-0.22,1.001-0.22C137.421,8.446,137.778,8.515,138.099,8.651z"/>
	<path fill="#FFFFFF" d="M146.285,14.222c-0.539,0.665-1.357,0.998-2.455,0.998s-1.916-0.333-2.455-0.998s-0.809-1.467-0.809-2.403
		c0-0.921,0.27-1.719,0.809-2.395c0.539-0.675,1.357-1.013,2.455-1.013s1.916,0.338,2.455,1.013
		c0.539,0.676,0.809,1.474,0.809,2.395C147.094,12.755,146.824,13.557,146.285,14.222z M144.949,13.299
		c0.262-0.348,0.393-0.841,0.393-1.48s-0.131-1.132-0.393-1.478c-0.262-0.345-0.637-0.518-1.125-0.518s-0.864,0.173-1.128,0.518
		c-0.264,0.346-0.396,0.838-0.396,1.478s0.132,1.133,0.396,1.48c0.264,0.347,0.64,0.521,1.128,0.521S144.688,13.646,144.949,13.299z
		"/>
	<path fill="#FFFFFF" d="M150.072,8.616v3.85c0,0.363,0.043,0.637,0.128,0.82c0.152,0.324,0.449,0.486,0.893,0.486
		c0.567,0,0.956-0.23,1.166-0.691c0.108-0.25,0.163-0.58,0.163-0.99V8.616h1.693v6.387h-1.623v-0.902
		c-0.016,0.02-0.055,0.078-0.117,0.176c-0.062,0.098-0.136,0.184-0.222,0.258c-0.261,0.234-0.514,0.395-0.757,0.48
		s-0.528,0.129-0.855,0.129c-0.943,0-1.578-0.34-1.905-1.02c-0.183-0.375-0.274-0.928-0.274-1.658v-3.85H150.072z"/>
	<path fill="#FFFFFF" d="M155.202,9.864V8.675h0.891V6.894h1.652v1.781h1.037v1.189h-1.037v3.375c0,0.262,0.033,0.425,0.1,0.489
		s0.27,0.097,0.609,0.097c0.051,0,0.104-0.001,0.161-0.003s0.112-0.005,0.167-0.009v1.248l-0.791,0.029
		c-0.789,0.027-1.328-0.109-1.617-0.41c-0.188-0.191-0.281-0.486-0.281-0.885V9.864H155.202z"/>
	<path fill="#FFFFFF" d="M165.958,11.118c0.312-0.039,0.533-0.088,0.667-0.146c0.24-0.102,0.36-0.26,0.36-0.475
		c0-0.262-0.092-0.442-0.276-0.542c-0.184-0.1-0.454-0.149-0.811-0.149c-0.399,0-0.683,0.098-0.85,0.293
		c-0.118,0.145-0.198,0.34-0.237,0.586H163.2c0.035-0.559,0.192-1.018,0.471-1.377c0.443-0.562,1.204-0.844,2.283-0.844
		c0.702,0,1.326,0.139,1.871,0.416c0.546,0.277,0.818,0.801,0.818,1.57v2.93c0,0.203,0.004,0.449,0.012,0.738
		c0.012,0.219,0.045,0.367,0.1,0.445s0.137,0.143,0.246,0.193v0.246h-1.816c-0.051-0.129-0.086-0.25-0.105-0.363
		s-0.035-0.242-0.047-0.387c-0.231,0.25-0.499,0.463-0.802,0.639c-0.361,0.207-0.77,0.311-1.226,0.311
		c-0.582,0-1.062-0.165-1.441-0.495c-0.379-0.33-0.568-0.798-0.568-1.403c0-0.785,0.305-1.354,0.915-1.705
		c0.334-0.191,0.826-0.328,1.476-0.41L165.958,11.118z M166.979,11.897c-0.107,0.066-0.215,0.12-0.324,0.161
		c-0.108,0.041-0.258,0.079-0.448,0.114l-0.38,0.07c-0.356,0.062-0.612,0.139-0.768,0.229c-0.263,0.152-0.395,0.389-0.395,0.709
		c0,0.285,0.08,0.491,0.241,0.618c0.16,0.127,0.355,0.19,0.586,0.19c0.365,0,0.701-0.105,1.009-0.316
		c0.307-0.211,0.467-0.596,0.479-1.154V11.897z"/>
	<path fill="#FFFFFF" d="M179.541,6.366h2.597v8.637h-1.682V9.161c0-0.168,0.002-0.403,0.006-0.706s0.006-0.536,0.006-0.7
		l-1.637,7.248h-1.754l-1.625-7.248c0,0.164,0.002,0.397,0.006,0.7s0.006,0.538,0.006,0.706v5.842h-1.682V6.366h2.626l1.572,6.791
		L179.541,6.366z"/>
	<path fill="#FFFFFF" d="M187.955,8.745c0.445,0.2,0.813,0.515,1.104,0.945c0.262,0.38,0.431,0.819,0.509,1.32
		c0.045,0.293,0.063,0.716,0.055,1.268h-4.651c0.026,0.641,0.249,1.09,0.668,1.348c0.255,0.16,0.562,0.24,0.921,0.24
		c0.38,0,0.689-0.098,0.927-0.293c0.13-0.105,0.244-0.252,0.344-0.439h1.705c-0.045,0.379-0.251,0.764-0.619,1.154
		c-0.572,0.621-1.373,0.932-2.402,0.932c-0.851,0-1.601-0.262-2.25-0.786c-0.649-0.523-0.975-1.376-0.975-2.557
		c0-1.106,0.293-1.955,0.88-2.545c0.587-0.591,1.348-0.886,2.284-0.886C187.009,8.446,187.51,8.546,187.955,8.745z M185.457,10.188
		c-0.236,0.243-0.385,0.572-0.445,0.988h2.877c-0.03-0.443-0.179-0.779-0.445-1.009c-0.266-0.229-0.596-0.345-0.99-0.345
		C186.024,9.823,185.692,9.945,185.457,10.188z"/>
	<path fill="#FFFFFF" d="M191.882,12.964c0.035,0.297,0.112,0.508,0.229,0.633c0.208,0.223,0.593,0.334,1.154,0.334
		c0.329,0,0.592-0.049,0.786-0.146s0.291-0.244,0.291-0.439c0-0.188-0.078-0.33-0.234-0.428c-0.157-0.098-0.739-0.266-1.747-0.504
		c-0.726-0.18-1.237-0.404-1.534-0.674c-0.297-0.266-0.445-0.648-0.445-1.148c0-0.59,0.231-1.097,0.695-1.521
		c0.465-0.424,1.117-0.636,1.959-0.636c0.799,0,1.449,0.159,1.952,0.478s0.792,0.868,0.866,1.649h-1.67
		c-0.023-0.215-0.084-0.385-0.182-0.51c-0.185-0.227-0.498-0.34-0.94-0.34c-0.364,0-0.624,0.057-0.778,0.17
		c-0.155,0.113-0.232,0.246-0.232,0.398c0,0.191,0.082,0.33,0.247,0.416c0.164,0.09,0.745,0.244,1.743,0.463
		c0.665,0.156,1.164,0.393,1.496,0.709c0.328,0.32,0.492,0.721,0.492,1.201c0,0.633-0.236,1.149-0.707,1.55
		c-0.473,0.4-1.201,0.601-2.188,0.601c-1.006,0-1.749-0.212-2.229-0.636s-0.719-0.964-0.719-1.62H191.882z"/>
	<path fill="#FFFFFF" d="M198.676,12.964c0.035,0.297,0.112,0.508,0.229,0.633c0.208,0.223,0.593,0.334,1.154,0.334
		c0.329,0,0.592-0.049,0.786-0.146s0.291-0.244,0.291-0.439c0-0.188-0.078-0.33-0.234-0.428c-0.157-0.098-0.739-0.266-1.747-0.504
		c-0.726-0.18-1.237-0.404-1.534-0.674c-0.297-0.266-0.445-0.648-0.445-1.148c0-0.59,0.231-1.097,0.695-1.521
		c0.465-0.424,1.117-0.636,1.959-0.636c0.799,0,1.449,0.159,1.952,0.478s0.792,0.868,0.866,1.649h-1.67
		c-0.023-0.215-0.084-0.385-0.182-0.51c-0.185-0.227-0.498-0.34-0.94-0.34c-0.364,0-0.624,0.057-0.778,0.17
		c-0.155,0.113-0.232,0.246-0.232,0.398c0,0.191,0.082,0.33,0.247,0.416c0.164,0.09,0.745,0.244,1.743,0.463
		c0.665,0.156,1.164,0.393,1.496,0.709c0.328,0.32,0.492,0.721,0.492,1.201c0,0.633-0.236,1.149-0.707,1.55
		c-0.473,0.4-1.201,0.601-2.188,0.601c-1.006,0-1.749-0.212-2.229-0.636s-0.719-0.964-0.719-1.62H198.676z"/>
	<path fill="#FFFFFF" d="M206.703,11.118c0.312-0.039,0.533-0.088,0.667-0.146c0.24-0.102,0.36-0.26,0.36-0.475
		c0-0.262-0.092-0.442-0.276-0.542c-0.184-0.1-0.454-0.149-0.811-0.149c-0.399,0-0.683,0.098-0.85,0.293
		c-0.118,0.145-0.198,0.34-0.237,0.586h-1.611c0.035-0.559,0.192-1.018,0.471-1.377c0.443-0.562,1.204-0.844,2.283-0.844
		c0.702,0,1.326,0.139,1.871,0.416c0.546,0.277,0.818,0.801,0.818,1.57v2.93c0,0.203,0.004,0.449,0.012,0.738
		c0.012,0.219,0.045,0.367,0.1,0.445s0.137,0.143,0.246,0.193v0.246h-1.816c-0.051-0.129-0.086-0.25-0.105-0.363
		s-0.035-0.242-0.047-0.387c-0.231,0.25-0.499,0.463-0.802,0.639c-0.361,0.207-0.77,0.311-1.226,0.311
		c-0.582,0-1.062-0.165-1.441-0.495c-0.379-0.33-0.568-0.798-0.568-1.403c0-0.785,0.305-1.354,0.915-1.705
		c0.334-0.191,0.826-0.328,1.476-0.41L206.703,11.118z M207.725,11.897c-0.107,0.066-0.215,0.12-0.324,0.161
		c-0.108,0.041-0.258,0.079-0.448,0.114l-0.38,0.07c-0.356,0.062-0.612,0.139-0.768,0.229c-0.263,0.152-0.395,0.389-0.395,0.709
		c0,0.285,0.08,0.491,0.241,0.618c0.16,0.127,0.355,0.19,0.586,0.19c0.365,0,0.701-0.105,1.009-0.316
		c0.307-0.211,0.467-0.596,0.479-1.154V11.897z"/>
	<path fill="#FFFFFF" d="M214.127,8.61c0.406,0.168,0.733,0.477,0.983,0.926v-0.92h1.629v6.059c0,0.824-0.139,1.445-0.416,1.863
		c-0.477,0.719-1.391,1.078-2.742,1.078c-0.816,0-1.482-0.16-1.998-0.48s-0.801-0.799-0.855-1.436h1.816
		c0.047,0.195,0.123,0.336,0.229,0.422c0.18,0.152,0.482,0.229,0.908,0.229c0.602,0,1.004-0.201,1.207-0.604
		c0.133-0.258,0.199-0.691,0.199-1.301v-0.41c-0.16,0.273-0.332,0.479-0.516,0.615c-0.332,0.254-0.764,0.381-1.295,0.381
		c-0.82,0-1.476-0.288-1.966-0.864s-0.735-1.356-0.735-2.341c0-0.949,0.236-1.747,0.708-2.394s1.142-0.97,2.007-0.97
		C213.61,8.464,213.89,8.513,214.127,8.61z M214.696,13.189c0.269-0.295,0.402-0.765,0.402-1.409c0-0.605-0.127-1.066-0.382-1.383
		s-0.597-0.475-1.024-0.475c-0.583,0-0.986,0.275-1.208,0.826c-0.116,0.293-0.175,0.654-0.175,1.084c0,0.371,0.062,0.701,0.187,0.99
		c0.226,0.539,0.63,0.809,1.214,0.809C214.099,13.632,214.428,13.484,214.696,13.189z"/>
	<path fill="#FFFFFF" d="M222.58,8.745c0.445,0.2,0.813,0.515,1.104,0.945c0.262,0.38,0.431,0.819,0.509,1.32
		c0.045,0.293,0.063,0.716,0.055,1.268h-4.651c0.026,0.641,0.249,1.09,0.668,1.348c0.255,0.16,0.562,0.24,0.921,0.24
		c0.38,0,0.689-0.098,0.927-0.293c0.13-0.105,0.244-0.252,0.344-0.439h1.705c-0.045,0.379-0.251,0.764-0.619,1.154
		c-0.572,0.621-1.373,0.932-2.402,0.932c-0.851,0-1.601-0.262-2.25-0.786c-0.649-0.523-0.975-1.376-0.975-2.557
		c0-1.106,0.293-1.955,0.88-2.545c0.587-0.591,1.348-0.886,2.284-0.886C221.634,8.446,222.135,8.546,222.58,8.745z M220.082,10.188
		c-0.236,0.243-0.385,0.572-0.445,0.988h2.877c-0.03-0.443-0.179-0.779-0.445-1.009c-0.266-0.229-0.596-0.345-0.99-0.345
		C220.649,9.823,220.317,9.945,220.082,10.188z"/>
</g>
</svg>
