<?xml version="1.0" encoding="utf-8"?>
<!-- Generator: Adobe Illustrator 15.1.0, SVG Export Plug-In . SVG Version: 6.00 Build 0)  -->
<!DOCTYPE svg PUBLIC "-//W3C//DTD SVG 1.1//EN" "http://www.w3.org/Graphics/SVG/1.1/DTD/svg11.dtd">
<svg version="1.1" id="Layer_1" xmlns="http://www.w3.org/2000/svg" xmlns:xlink="http://www.w3.org/1999/xlink" x="0px" y="0px"
	 width="204px" height="76px" viewBox="0 0 204 76" enable-background="new 0 0 204 76" xml:space="preserve">
<g>
	<path fill="#C66825" d="M11,75.5C5.21,75.5,0.5,70.79,0.5,65V11C0.5,5.21,5.21,0.5,11,0.5h182c5.79,0,10.5,4.71,10.5,10.5v54
		c0,5.79-4.71,10.5-10.5,10.5H11z"/>
	<path fill="#EC0082" d="M193,1c5.514,0,10,4.486,10,10v54c0,5.514-4.486,10-10,10H11C5.486,75,1,70.514,1,65V11
		C1,5.486,5.486,1,11,1H193 M193,0H11C4.925,0,0,4.925,0,11v54c0,6.075,4.925,11,11,11h182c6.075,0,11-4.925,11-11V11
		C204,4.925,199.075,0,193,0L193,0z"/>
</g>
<g>
	<path fill="#EC0082" d="M13.953,18.936c0.074,0.526,0.221,0.919,0.438,1.18c0.399,0.474,1.082,0.711,2.05,0.711
		c0.58,0,1.051-0.062,1.412-0.188c0.687-0.239,1.029-0.685,1.029-1.336c0-0.38-0.168-0.675-0.504-0.883
		c-0.336-0.203-0.869-0.383-1.599-0.539l-1.247-0.273c-1.226-0.271-2.067-0.565-2.525-0.883c-0.776-0.531-1.164-1.362-1.164-2.492
		c0-1.031,0.38-1.888,1.139-2.57c0.76-0.683,1.875-1.023,3.346-1.023c1.229,0,2.276,0.321,3.144,0.965
		c0.868,0.644,1.322,1.577,1.364,2.801h-2.312c-0.043-0.692-0.353-1.185-0.929-1.477c-0.385-0.192-0.862-0.289-1.434-0.289
		c-0.636,0-1.144,0.125-1.522,0.375c-0.378,0.25-0.568,0.599-0.568,1.047c0,0.411,0.187,0.719,0.561,0.922
		c0.24,0.136,0.75,0.294,1.53,0.477l2.021,0.477c0.886,0.208,1.55,0.487,1.992,0.836c0.686,0.542,1.029,1.325,1.029,2.352
		c0,1.052-0.406,1.926-1.22,2.621c-0.814,0.695-1.963,1.043-3.447,1.043c-1.516,0-2.708-0.343-3.577-1.027
		c-0.868-0.685-1.303-1.626-1.303-2.824h2.296V18.936z"/>
	<path fill="#EC0082" d="M28.42,14.147c0.594,0.266,1.085,0.686,1.472,1.26c0.349,0.506,0.575,1.093,0.679,1.76
		c0.06,0.392,0.084,0.955,0.073,1.69h-6.202c0.034,0.854,0.331,1.453,0.891,1.797c0.34,0.214,0.749,0.32,1.228,0.32
		c0.507,0,0.919-0.13,1.236-0.391c0.173-0.141,0.325-0.336,0.458-0.586h2.273c-0.06,0.505-0.335,1.019-0.825,1.539
		c-0.763,0.828-1.831,1.242-3.204,1.242c-1.133,0-2.133-0.35-2.999-1.048c-0.866-0.698-1.3-1.835-1.3-3.409
		c0-1.475,0.391-2.606,1.173-3.394c0.782-0.788,1.798-1.181,3.046-1.181C27.158,13.748,27.826,13.881,28.42,14.147z M25.089,16.07
		c-0.314,0.324-0.512,0.764-0.593,1.318h3.836c-0.041-0.591-0.238-1.039-0.593-1.346c-0.355-0.306-0.796-0.459-1.321-0.459
		C25.847,15.584,25.404,15.746,25.089,16.07z"/>
	<path fill="#EC0082" d="M38.797,14.463c0.557,0.461,0.836,1.226,0.836,2.293v5.734h-2.281v-5.18c0-0.448-0.06-0.792-0.179-1.031
		c-0.217-0.438-0.631-0.656-1.24-0.656c-0.75,0-1.265,0.32-1.544,0.961c-0.145,0.339-0.217,0.771-0.217,1.297v4.609h-2.227v-8.5
		h2.156v1.242c0.285-0.438,0.555-0.753,0.809-0.945c0.457-0.344,1.035-0.516,1.735-0.516C37.521,13.771,38.239,14.002,38.797,14.463
		z"/>
	<path fill="#EC0082" d="M46.379,14.111c0.401,0.227,0.727,0.54,0.977,0.941V10.99h2.258v11.5H47.45v-1.18
		c-0.317,0.505-0.68,0.872-1.086,1.102c-0.406,0.23-0.911,0.344-1.516,0.344c-0.995,0-1.832-0.402-2.512-1.207
		c-0.68-0.805-1.02-1.837-1.02-3.098c0-1.453,0.335-2.597,1.004-3.43c0.669-0.833,1.563-1.25,2.684-1.25
		C45.52,13.771,45.978,13.885,46.379,14.111z M46.926,20.178c0.328-0.469,0.492-1.075,0.492-1.82c0-1.042-0.263-1.786-0.789-2.234
		c-0.323-0.271-0.698-0.406-1.125-0.406c-0.651,0-1.129,0.246-1.434,0.738c-0.305,0.492-0.457,1.103-0.457,1.832
		c0,0.786,0.155,1.415,0.465,1.887c0.31,0.472,0.78,0.707,1.41,0.707C46.118,20.882,46.598,20.646,46.926,20.178z"/>
	<path fill="#EC0082" d="M63.151,10.975h2.727l-3.852,7.197v4.318H59.62v-4.318l-3.984-7.197h2.836l2.391,5.016L63.151,10.975z"/>
	<path fill="#EC0082" d="M74.335,21.448c-0.719,0.888-1.81,1.331-3.273,1.331s-2.555-0.443-3.273-1.331
		c-0.719-0.887-1.078-1.955-1.078-3.204c0-1.229,0.359-2.292,1.078-3.192c0.719-0.9,1.81-1.351,3.273-1.351s2.555,0.45,3.273,1.351
		c0.718,0.901,1.078,1.964,1.078,3.192C75.413,19.493,75.054,20.562,74.335,21.448z M72.554,20.218
		c0.349-0.463,0.523-1.12,0.523-1.974c0-0.853-0.175-1.51-0.523-1.97c-0.348-0.46-0.849-0.69-1.5-0.69
		c-0.651,0-1.152,0.23-1.504,0.69c-0.352,0.46-0.527,1.117-0.527,1.97c0,0.854,0.176,1.511,0.527,1.974
		c0.351,0.463,0.853,0.694,1.504,0.694C71.705,20.912,72.205,20.681,72.554,20.218z"/>
	<path fill="#EC0082" d="M79.386,13.975v5.133c0,0.484,0.057,0.849,0.171,1.094c0.202,0.433,0.599,0.648,1.189,0.648
		c0.757,0,1.274-0.308,1.555-0.922c0.146-0.333,0.218-0.773,0.218-1.32v-4.633h2.258v8.516h-2.164v-1.203
		c-0.021,0.026-0.072,0.104-0.156,0.234c-0.083,0.13-0.182,0.245-0.296,0.344c-0.348,0.312-0.684,0.526-1.009,0.641
		c-0.324,0.114-0.705,0.172-1.141,0.172c-1.258,0-2.104-0.453-2.54-1.359c-0.244-0.5-0.366-1.237-0.366-2.211v-5.133L79.386,13.975
		L79.386,13.975z"/>
	<path fill="#EC0082" d="M91.831,13.775c0.028,0.003,0.093,0.007,0.191,0.012v2.281c-0.141-0.016-0.266-0.026-0.375-0.031
		s-0.198-0.008-0.266-0.008c-0.896,0-1.497,0.292-1.805,0.875c-0.172,0.328-0.258,0.833-0.258,1.516v4.07h-2.242v-8.516h2.125v1.484
		c0.344-0.567,0.644-0.956,0.898-1.164c0.417-0.349,0.958-0.523,1.625-0.523C91.768,13.771,91.803,13.772,91.831,13.775z"/>
	<path fill="#EC0082" d="M19.857,30.175h3.463v11.515h-2.242v-7.789c0-0.224,0.003-0.538,0.008-0.941s0.008-0.715,0.008-0.934
		l-2.183,9.664h-2.338l-2.167-9.664c0,0.219,0.003,0.53,0.008,0.934c0.005,0.404,0.008,0.718,0.008,0.941v7.789H12.18V30.175h3.502
		l2.096,9.056L19.857,30.175z"/>
	<path fill="#EC0082" d="M31.076,33.348c0.594,0.266,1.085,0.686,1.472,1.26c0.349,0.506,0.575,1.093,0.679,1.76
		c0.06,0.392,0.084,0.955,0.073,1.69h-6.202c0.034,0.854,0.331,1.453,0.891,1.797c0.34,0.213,0.749,0.318,1.228,0.318
		c0.507,0,0.919-0.13,1.236-0.391c0.173-0.143,0.325-0.336,0.458-0.586h2.273c-0.06,0.505-0.335,1.019-0.825,1.537
		c-0.763,0.828-1.831,1.242-3.204,1.242c-1.133,0-2.133-0.35-2.999-1.047c-0.866-0.699-1.3-1.836-1.3-3.41
		c0-1.475,0.391-2.606,1.173-3.394c0.782-0.788,1.798-1.181,3.046-1.181C29.814,32.948,30.482,33.081,31.076,33.348z M27.745,35.271
		c-0.314,0.324-0.512,0.764-0.593,1.318h3.836c-0.041-0.591-0.238-1.039-0.593-1.346c-0.355-0.306-0.796-0.459-1.321-0.459
		C28.503,34.784,28.061,34.946,27.745,35.271z"/>
	<path fill="#EC0082" d="M36.312,38.973c0.047,0.396,0.149,0.676,0.307,0.844c0.277,0.298,0.79,0.444,1.538,0.444
		c0.439,0,0.789-0.065,1.048-0.194c0.259-0.131,0.389-0.324,0.389-0.586c0-0.25-0.104-0.439-0.312-0.569
		c-0.209-0.132-0.985-0.354-2.33-0.672C35.984,38,35.303,37.7,34.907,37.341c-0.396-0.354-0.594-0.864-0.594-1.531
		c0-0.786,0.31-1.462,0.928-2.027c0.618-0.565,1.489-0.848,2.611-0.848c1.064,0,1.933,0.212,2.603,0.637
		c0.671,0.425,1.056,1.157,1.155,2.199h-2.227c-0.031-0.286-0.112-0.513-0.243-0.68c-0.245-0.302-0.663-0.453-1.253-0.453
		c-0.486,0-0.832,0.075-1.038,0.227c-0.206,0.152-0.31,0.328-0.31,0.531c0,0.255,0.109,0.44,0.329,0.555
		c0.22,0.12,0.994,0.325,2.325,0.617c0.887,0.208,1.552,0.523,1.994,0.945c0.438,0.427,0.656,0.961,0.656,1.602
		c0,0.844-0.314,1.531-0.943,2.064c-0.629,0.534-1.601,0.801-2.916,0.801c-1.341,0-2.331-0.28-2.971-0.848
		c-0.64-0.566-0.959-1.285-0.959-2.16H36.312L36.312,38.973z"/>
	<path fill="#EC0082" d="M45.371,38.973c0.047,0.396,0.149,0.676,0.307,0.844c0.277,0.298,0.79,0.444,1.538,0.444
		c0.439,0,0.789-0.065,1.048-0.194c0.259-0.131,0.389-0.324,0.389-0.586c0-0.25-0.104-0.439-0.312-0.569
		c-0.209-0.132-0.985-0.354-2.33-0.672C45.043,38,44.362,37.7,43.966,37.341c-0.396-0.354-0.594-0.864-0.594-1.531
		c0-0.786,0.31-1.462,0.928-2.027c0.618-0.565,1.489-0.848,2.611-0.848c1.064,0,1.933,0.212,2.603,0.637
		c0.671,0.425,1.056,1.157,1.155,2.199h-2.227c-0.031-0.286-0.112-0.513-0.243-0.68c-0.245-0.302-0.663-0.453-1.253-0.453
		c-0.486,0-0.832,0.075-1.038,0.227c-0.206,0.152-0.31,0.328-0.31,0.531c0,0.255,0.109,0.44,0.329,0.555
		c0.22,0.12,0.994,0.325,2.325,0.617c0.887,0.208,1.552,0.523,1.994,0.945c0.438,0.427,0.656,0.961,0.656,1.602
		c0,0.844-0.314,1.531-0.943,2.064c-0.629,0.534-1.601,0.801-2.916,0.801c-1.341,0-2.331-0.28-2.971-0.848
		c-0.64-0.566-0.959-1.285-0.959-2.16H45.371L45.371,38.973z"/>
	<path fill="#EC0082" d="M56.075,36.511c0.414-0.052,0.711-0.117,0.889-0.195c0.32-0.136,0.48-0.347,0.48-0.633
		c0-0.349-0.123-0.59-0.368-0.723c-0.245-0.133-0.606-0.199-1.081-0.199c-0.533,0-0.911,0.13-1.133,0.391
		c-0.158,0.192-0.264,0.453-0.316,0.781h-2.148c0.047-0.745,0.256-1.356,0.628-1.836c0.591-0.75,1.605-1.125,3.044-1.125
		c0.937,0,1.769,0.185,2.495,0.555c0.728,0.37,1.091,1.067,1.091,2.094v3.906c0,0.271,0.005,0.599,0.016,0.982
		c0.016,0.292,0.06,0.489,0.133,0.596c0.073,0.104,0.183,0.188,0.328,0.258v0.328H57.71c-0.067-0.172-0.114-0.334-0.141-0.484
		c-0.027-0.15-0.047-0.323-0.062-0.516c-0.309,0.332-0.665,0.617-1.068,0.852c-0.482,0.275-1.027,0.414-1.635,0.414
		c-0.775,0-1.416-0.221-1.922-0.66c-0.505-0.439-0.758-1.062-0.758-1.871c0-1.047,0.406-1.805,1.22-2.273
		c0.446-0.255,1.103-0.438,1.968-0.547L56.075,36.511z M57.437,37.55c-0.143,0.089-0.287,0.16-0.432,0.215
		c-0.146,0.055-0.345,0.105-0.598,0.152L55.9,38.011c-0.476,0.083-0.816,0.185-1.023,0.305c-0.351,0.204-0.526,0.519-0.526,0.945
		c0,0.38,0.107,0.655,0.321,0.824s0.475,0.254,0.781,0.254c0.486,0,0.935-0.141,1.345-0.422c0.41-0.28,0.623-0.794,0.639-1.539
		V37.55z"/>
	<path fill="#EC0082" d="M65.974,33.167c0.541,0.224,0.978,0.636,1.311,1.234v-1.227h2.172v8.078c0,1.1-0.185,1.928-0.555,2.484
		c-0.636,0.957-1.854,1.438-3.656,1.438c-1.089,0-1.977-0.214-2.664-0.641c-0.687-0.428-1.067-1.065-1.141-1.914h2.422
		c0.062,0.261,0.164,0.447,0.305,0.562c0.239,0.201,0.644,0.305,1.211,0.305c0.802,0,1.339-0.271,1.609-0.805
		c0.177-0.346,0.266-0.924,0.266-1.734V40.4c-0.214,0.363-0.442,0.638-0.688,0.82c-0.442,0.338-1.019,0.508-1.727,0.508
		c-1.094,0-1.968-0.386-2.621-1.152c-0.653-0.768-0.98-1.809-0.98-3.121c0-1.266,0.314-2.329,0.944-3.191
		c0.629-0.862,1.521-1.293,2.676-1.293C65.284,32.972,65.656,33.037,65.974,33.167z M66.731,39.271
		c0.358-0.395,0.537-1.021,0.537-1.878c0-0.808-0.17-1.422-0.51-1.844c-0.34-0.422-0.795-0.633-1.365-0.633
		c-0.778,0-1.314,0.367-1.61,1.102c-0.155,0.391-0.233,0.872-0.233,1.445c0,0.495,0.083,0.935,0.249,1.32
		c0.301,0.719,0.84,1.078,1.618,1.078C65.936,39.861,66.374,39.666,66.731,39.271z"/>
	<path fill="#EC0082" d="M77.243,33.348c0.594,0.266,1.085,0.686,1.472,1.26c0.349,0.506,0.575,1.093,0.679,1.76
		c0.06,0.392,0.084,0.955,0.073,1.69h-6.202c0.034,0.854,0.331,1.453,0.891,1.797c0.34,0.213,0.749,0.318,1.228,0.318
		c0.507,0,0.919-0.13,1.236-0.391c0.173-0.143,0.325-0.336,0.458-0.586h2.273c-0.06,0.505-0.335,1.019-0.825,1.537
		c-0.763,0.828-1.831,1.242-3.204,1.242c-1.133,0-2.133-0.35-2.999-1.047c-0.866-0.699-1.3-1.836-1.3-3.41
		c0-1.475,0.391-2.606,1.173-3.394c0.782-0.788,1.798-1.181,3.046-1.181C75.981,32.948,76.649,33.081,77.243,33.348z M73.912,35.271
		c-0.314,0.324-0.512,0.764-0.593,1.318h3.836c-0.041-0.591-0.238-1.039-0.593-1.346c-0.355-0.306-0.796-0.459-1.321-0.459
		C74.67,34.784,74.228,34.946,73.912,35.271z"/>
	<path fill="#EC0082" d="M93.905,30.175v2.039H90.46v9.478h-2.422v-9.478h-3.461v-2.039H93.905z"/>
	<path fill="#EC0082" d="M102.394,40.648c-0.719,0.888-1.81,1.33-3.273,1.33s-2.555-0.442-3.273-1.33
		c-0.719-0.889-1.078-1.955-1.078-3.206c0-1.229,0.359-2.292,1.078-3.192c0.719-0.9,1.81-1.351,3.273-1.351s2.555,0.45,3.273,1.351
		c0.717,0.901,1.079,1.964,1.079,3.192C103.473,38.693,103.111,39.762,102.394,40.648z M100.612,39.418
		c0.349-0.463,0.523-1.12,0.523-1.974c0-0.853-0.175-1.51-0.523-1.97c-0.348-0.46-0.849-0.69-1.5-0.69
		c-0.651,0-1.152,0.23-1.504,0.69s-0.527,1.117-0.527,1.97c0,0.854,0.176,1.511,0.527,1.974s0.853,0.693,1.504,0.693
		C99.763,40.111,100.264,39.881,100.612,39.418z"/>
	<path fill="#EC0082" d="M13.318,50.578c0.928-0.948,2.107-1.422,3.54-1.422c1.917,0,3.318,0.636,4.205,1.906
		c0.489,0.713,0.752,1.43,0.788,2.146h-2.406c-0.153-0.552-0.35-0.969-0.59-1.25c-0.428-0.5-1.063-0.75-1.905-0.75
		c-0.857,0-1.533,0.354-2.028,1.061c-0.495,0.705-0.742,1.703-0.742,2.996c0,1.291,0.261,2.258,0.783,2.9s1.186,0.965,1.991,0.965
		c0.825,0,1.454-0.275,1.888-0.826c0.239-0.299,0.438-0.742,0.596-1.338h2.391c-0.206,1.256-0.733,2.276-1.58,3.062
		c-0.848,0.787-1.934,1.181-3.258,1.181c-1.639,0-2.927-0.53-3.865-1.594c-0.938-1.067-1.406-2.531-1.406-4.392
		C11.719,53.216,12.252,51.667,13.318,50.578z"/>
	<path fill="#EC0082" d="M30.855,59.85c-0.719,0.887-1.81,1.33-3.273,1.33s-2.555-0.443-3.273-1.33
		c-0.719-0.888-1.078-1.955-1.078-3.205c0-1.229,0.359-2.291,1.078-3.19c0.719-0.899,1.81-1.353,3.273-1.353s2.555,0.45,3.273,1.353
		c0.718,0.899,1.078,1.964,1.078,3.19C31.934,57.895,31.574,58.962,30.855,59.85z M29.074,58.618
		c0.349-0.464,0.523-1.12,0.523-1.974c0-0.854-0.175-1.512-0.523-1.972c-0.348-0.46-0.849-0.688-1.5-0.688
		c-0.651,0-1.152,0.229-1.504,0.688s-0.527,1.117-0.527,1.972c0,0.854,0.176,1.51,0.527,1.974c0.351,0.463,0.853,0.694,1.504,0.694
		C28.225,59.312,28.726,59.081,29.074,58.618z"/>
	<path fill="#EC0082" d="M40.555,52.863c0.557,0.461,0.836,1.226,0.836,2.293v5.734H39.11V55.71c0-0.448-0.06-0.792-0.179-1.03
		c-0.217-0.438-0.631-0.656-1.24-0.656c-0.75,0-1.265,0.319-1.544,0.961c-0.145,0.34-0.217,0.771-0.217,1.298v4.608h-2.227v-8.5
		h2.156v1.241c0.285-0.438,0.555-0.753,0.809-0.944c0.457-0.345,1.035-0.517,1.735-0.517C39.279,52.172,39.997,52.402,40.555,52.863
		z"/>
	<path fill="#EC0082" d="M47.834,52.367c0.541,0.224,0.978,0.636,1.311,1.234v-1.229h2.172v8.078c0,1.099-0.185,1.927-0.555,2.482
		c-0.636,0.959-1.854,1.438-3.656,1.438c-1.089,0-1.977-0.214-2.664-0.642c-0.687-0.426-1.067-1.064-1.141-1.914h2.422
		c0.062,0.262,0.164,0.449,0.305,0.562c0.239,0.203,0.644,0.306,1.211,0.306c0.802,0,1.339-0.27,1.609-0.806
		c0.177-0.344,0.266-0.922,0.266-1.733V59.6c-0.214,0.364-0.442,0.64-0.688,0.82c-0.442,0.339-1.019,0.508-1.727,0.508
		c-1.094,0-1.968-0.384-2.621-1.152c-0.653-0.768-0.98-1.809-0.98-3.121c0-1.266,0.314-2.327,0.944-3.189
		c0.629-0.861,1.521-1.293,2.676-1.293C47.145,52.172,47.517,52.236,47.834,52.367z M48.592,58.473
		c0.358-0.394,0.537-1.02,0.537-1.879c0-0.808-0.17-1.422-0.51-1.844c-0.34-0.422-0.795-0.633-1.365-0.633
		c-0.778,0-1.314,0.367-1.61,1.102c-0.155,0.391-0.233,0.872-0.233,1.445c0,0.495,0.083,0.936,0.249,1.32
		c0.301,0.719,0.84,1.078,1.618,1.078C47.796,59.062,48.234,58.866,48.592,58.473z"/>
	<path fill="#EC0082" d="M58.284,52.176c0.028,0.004,0.093,0.008,0.191,0.012v2.281c-0.141-0.016-0.266-0.025-0.375-0.031
		c-0.109-0.004-0.198-0.008-0.266-0.008c-0.896,0-1.497,0.293-1.805,0.875c-0.172,0.328-0.258,0.834-0.258,1.516v4.07H53.53v-8.516
		h2.125v1.484c0.344-0.567,0.644-0.957,0.898-1.164c0.417-0.35,0.958-0.523,1.625-0.523C58.221,52.172,58.256,52.173,58.284,52.176z
		"/>
	<path fill="#EC0082" d="M65.489,52.548c0.594,0.267,1.085,0.687,1.472,1.261c0.349,0.506,0.575,1.092,0.679,1.76
		c0.06,0.393,0.084,0.955,0.073,1.689h-6.202c0.034,0.854,0.331,1.453,0.891,1.797c0.34,0.215,0.749,0.32,1.228,0.32
		c0.507,0,0.919-0.13,1.236-0.391c0.173-0.143,0.325-0.336,0.458-0.586h2.273c-0.06,0.504-0.335,1.019-0.825,1.539
		c-0.763,0.828-1.831,1.242-3.204,1.242c-1.133,0-2.133-0.352-2.999-1.05c-0.866-0.696-1.3-1.835-1.3-3.407
		c0-1.477,0.391-2.606,1.173-3.396c0.782-0.788,1.798-1.183,3.046-1.183C64.228,52.148,64.896,52.281,65.489,52.548z M62.158,54.471
		c-0.314,0.324-0.512,0.764-0.593,1.318h3.836c-0.041-0.591-0.238-1.039-0.593-1.346c-0.355-0.308-0.796-0.459-1.321-0.459
		C62.916,53.984,62.474,54.146,62.158,54.471z"/>
	<path fill="#EC0082" d="M70.726,58.172c0.047,0.396,0.149,0.678,0.307,0.844c0.277,0.297,0.79,0.445,1.538,0.445
		c0.439,0,0.789-0.064,1.048-0.195c0.259-0.13,0.389-0.324,0.389-0.586c0-0.25-0.104-0.438-0.312-0.57
		c-0.209-0.129-0.985-0.354-2.33-0.672c-0.968-0.237-1.649-0.539-2.045-0.896c-0.396-0.354-0.594-0.864-0.594-1.531
		c0-0.785,0.31-1.462,0.928-2.025c0.618-0.565,1.489-0.85,2.611-0.85c1.064,0,1.933,0.213,2.603,0.639
		c0.671,0.424,1.056,1.156,1.155,2.199h-2.227c-0.031-0.287-0.112-0.515-0.243-0.682c-0.245-0.302-0.663-0.453-1.253-0.453
		c-0.486,0-0.832,0.075-1.038,0.229c-0.206,0.15-0.31,0.328-0.31,0.531c0,0.254,0.109,0.438,0.329,0.555
		c0.22,0.119,0.994,0.324,2.325,0.617c0.887,0.207,1.552,0.521,1.994,0.943c0.438,0.428,0.656,0.961,0.656,1.604
		c0,0.844-0.314,1.531-0.943,2.064c-0.629,0.534-1.601,0.803-2.916,0.803c-1.341,0-2.331-0.283-2.971-0.85
		c-0.64-0.564-0.959-1.285-0.959-2.16L70.726,58.172L70.726,58.172z"/>
	<path fill="#EC0082" d="M79.784,58.172c0.047,0.396,0.149,0.678,0.307,0.844c0.277,0.297,0.79,0.445,1.538,0.445
		c0.439,0,0.789-0.064,1.048-0.195c0.259-0.13,0.389-0.324,0.389-0.586c0-0.25-0.104-0.438-0.312-0.57
		c-0.209-0.129-0.985-0.354-2.33-0.672c-0.968-0.237-1.649-0.539-2.045-0.896c-0.396-0.354-0.594-0.864-0.594-1.531
		c0-0.785,0.31-1.462,0.928-2.025c0.618-0.565,1.489-0.85,2.611-0.85c1.064,0,1.933,0.213,2.603,0.639
		c0.671,0.424,1.056,1.156,1.155,2.199h-2.227c-0.031-0.287-0.112-0.515-0.243-0.682c-0.245-0.302-0.663-0.453-1.253-0.453
		c-0.486,0-0.832,0.075-1.038,0.229c-0.206,0.15-0.31,0.328-0.31,0.531c0,0.254,0.109,0.438,0.329,0.555
		c0.22,0.119,0.994,0.324,2.325,0.617c0.887,0.207,1.552,0.521,1.994,0.943c0.438,0.428,0.656,0.961,0.656,1.604
		c0,0.844-0.314,1.531-0.943,2.064c-0.629,0.534-1.601,0.803-2.916,0.803c-1.341,0-2.331-0.283-2.971-0.85
		c-0.64-0.564-0.959-1.285-0.959-2.16L79.784,58.172L79.784,58.172z"/>
</g>
<g>
	<path fill="#00AEEF" d="M13.953,19.949c0.074,0.526,0.221,0.919,0.438,1.18c0.399,0.474,1.082,0.711,2.05,0.711
		c0.58,0,1.051-0.062,1.412-0.188c0.687-0.239,1.029-0.685,1.029-1.336c0-0.38-0.168-0.675-0.504-0.883
		c-0.336-0.203-0.869-0.383-1.599-0.539l-1.247-0.273c-1.226-0.271-2.067-0.565-2.525-0.883c-0.776-0.531-1.164-1.362-1.164-2.492
		c0-1.031,0.38-1.888,1.139-2.57c0.76-0.683,1.875-1.023,3.346-1.023c1.229,0,2.276,0.321,3.144,0.965
		c0.868,0.644,1.322,1.577,1.364,2.801h-2.312c-0.043-0.692-0.353-1.185-0.929-1.477c-0.385-0.192-0.862-0.289-1.434-0.289
		c-0.636,0-1.144,0.125-1.522,0.375c-0.378,0.25-0.568,0.599-0.568,1.047c0,0.411,0.187,0.719,0.561,0.922
		c0.24,0.136,0.75,0.294,1.53,0.477l2.021,0.477c0.886,0.208,1.55,0.487,1.992,0.836c0.686,0.542,1.029,1.325,1.029,2.352
		c0,1.052-0.406,1.926-1.22,2.621c-0.814,0.695-1.963,1.043-3.447,1.043c-1.516,0-2.708-0.343-3.577-1.027
		c-0.868-0.685-1.303-1.626-1.303-2.824h2.296V19.949z"/>
	<path fill="#00AEEF" d="M28.42,15.161c0.594,0.266,1.085,0.686,1.472,1.26c0.349,0.506,0.575,1.093,0.679,1.76
		c0.06,0.392,0.084,0.955,0.073,1.69h-6.202c0.034,0.854,0.331,1.453,0.891,1.797c0.34,0.214,0.749,0.32,1.228,0.32
		c0.507,0,0.919-0.13,1.236-0.391c0.173-0.141,0.325-0.336,0.458-0.586h2.273c-0.06,0.505-0.335,1.019-0.825,1.539
		c-0.763,0.828-1.831,1.242-3.204,1.242c-1.133,0-2.133-0.35-2.999-1.048c-0.866-0.698-1.3-1.835-1.3-3.409
		c0-1.475,0.391-2.606,1.173-3.394c0.782-0.788,1.798-1.181,3.046-1.181C27.158,14.762,27.826,14.895,28.42,15.161z M25.089,17.084
		c-0.314,0.324-0.512,0.764-0.593,1.318h3.836c-0.041-0.591-0.238-1.039-0.593-1.346c-0.355-0.306-0.796-0.459-1.321-0.459
		C25.847,16.598,25.404,16.76,25.089,17.084z"/>
	<path fill="#00AEEF" d="M38.797,15.477c0.557,0.461,0.836,1.226,0.836,2.293v5.734h-2.281v-5.18c0-0.448-0.06-0.792-0.179-1.031
		c-0.217-0.438-0.631-0.656-1.24-0.656c-0.75,0-1.265,0.32-1.544,0.961c-0.145,0.339-0.217,0.771-0.217,1.297v4.609h-2.227v-8.5
		h2.156v1.242c0.285-0.438,0.555-0.753,0.809-0.945c0.457-0.344,1.035-0.516,1.735-0.516C37.521,14.785,38.239,15.016,38.797,15.477
		z"/>
	<path fill="#00AEEF" d="M46.379,15.125c0.401,0.227,0.727,0.54,0.977,0.941v-4.062h2.258v11.5H47.45v-1.18
		c-0.317,0.505-0.68,0.872-1.086,1.102c-0.406,0.23-0.911,0.344-1.516,0.344c-0.995,0-1.832-0.402-2.512-1.207
		c-0.68-0.805-1.02-1.837-1.02-3.098c0-1.453,0.335-2.597,1.004-3.43c0.669-0.833,1.563-1.25,2.684-1.25
		C45.52,14.785,45.978,14.898,46.379,15.125z M46.926,21.191c0.328-0.469,0.492-1.075,0.492-1.82c0-1.042-0.263-1.786-0.789-2.234
		c-0.323-0.271-0.698-0.406-1.125-0.406c-0.651,0-1.129,0.246-1.434,0.738c-0.305,0.492-0.457,1.103-0.457,1.832
		c0,0.786,0.155,1.415,0.465,1.887s0.78,0.707,1.41,0.707C46.118,21.895,46.598,21.66,46.926,21.191z"/>
	<path fill="#00AEEF" d="M63.151,11.988h2.727l-3.852,7.197v4.318H59.62v-4.318l-3.984-7.197h2.836l2.391,5.016L63.151,11.988z"/>
	<path fill="#00AEEF" d="M74.335,22.462c-0.719,0.888-1.81,1.331-3.273,1.331s-2.555-0.443-3.273-1.331
		c-0.719-0.887-1.078-1.955-1.078-3.204c0-1.229,0.359-2.292,1.078-3.192c0.719-0.9,1.81-1.351,3.273-1.351s2.555,0.45,3.273,1.351
		c0.718,0.901,1.078,1.964,1.078,3.192C75.413,20.507,75.054,21.575,74.335,22.462z M72.554,21.231
		c0.349-0.463,0.523-1.12,0.523-1.974c0-0.853-0.175-1.51-0.523-1.97c-0.348-0.46-0.849-0.69-1.5-0.69
		c-0.651,0-1.152,0.23-1.504,0.69c-0.352,0.46-0.527,1.117-0.527,1.97c0,0.854,0.176,1.511,0.527,1.974
		c0.351,0.463,0.853,0.694,1.504,0.694C71.705,21.925,72.205,21.694,72.554,21.231z"/>
	<path fill="#00AEEF" d="M79.386,14.988v5.133c0,0.484,0.057,0.849,0.171,1.094c0.202,0.433,0.599,0.648,1.189,0.648
		c0.757,0,1.274-0.308,1.555-0.922c0.146-0.333,0.218-0.773,0.218-1.32v-4.633h2.258v8.516h-2.164v-1.203
		c-0.021,0.026-0.072,0.104-0.156,0.234c-0.083,0.13-0.182,0.245-0.296,0.344c-0.348,0.312-0.684,0.526-1.009,0.641
		c-0.324,0.114-0.705,0.172-1.141,0.172c-1.258,0-2.104-0.453-2.54-1.359c-0.244-0.5-0.366-1.237-0.366-2.211v-5.133h2.281V14.988
		L79.386,14.988z"/>
	<path fill="#00AEEF" d="M91.831,14.789c0.028,0.003,0.093,0.007,0.191,0.012v2.281c-0.141-0.016-0.266-0.026-0.375-0.031
		c-0.109-0.005-0.198-0.008-0.266-0.008c-0.896,0-1.497,0.292-1.805,0.875c-0.172,0.328-0.258,0.833-0.258,1.516v4.07h-2.242v-8.516
		h2.125v1.484c0.344-0.567,0.644-0.956,0.898-1.164c0.417-0.349,0.958-0.523,1.625-0.523C91.768,14.785,91.803,14.786,91.831,14.789
		z"/>
	<path fill="#00AEEF" d="M19.857,31.188h3.463v11.516h-2.242v-7.789c0-0.224,0.003-0.538,0.008-0.941
		c0.005-0.403,0.008-0.715,0.008-0.934l-2.183,9.664h-2.338l-2.167-9.664c0,0.219,0.003,0.53,0.008,0.934
		c0.005,0.404,0.008,0.718,0.008,0.941v7.789H12.18V31.188h3.502l2.096,9.055L19.857,31.188z"/>
	<path fill="#00AEEF" d="M31.076,34.361c0.594,0.266,1.085,0.686,1.472,1.26c0.349,0.506,0.575,1.093,0.679,1.76
		c0.06,0.392,0.084,0.955,0.073,1.689h-6.202c0.034,0.854,0.331,1.453,0.891,1.798c0.34,0.214,0.749,0.319,1.228,0.319
		c0.507,0,0.919-0.129,1.236-0.392c0.173-0.142,0.325-0.336,0.458-0.586h2.273c-0.06,0.505-0.335,1.021-0.825,1.539
		c-0.763,0.828-1.831,1.242-3.204,1.242c-1.133,0-2.133-0.351-2.999-1.05c-0.866-0.696-1.3-1.834-1.3-3.407
		c0-1.475,0.391-2.606,1.173-3.394c0.782-0.788,1.798-1.181,3.046-1.181C29.814,33.962,30.482,34.095,31.076,34.361z M27.745,36.284
		c-0.314,0.324-0.512,0.764-0.593,1.318h3.836c-0.041-0.591-0.238-1.039-0.593-1.346c-0.355-0.306-0.796-0.459-1.321-0.459
		C28.503,35.798,28.061,35.96,27.745,36.284z"/>
	<path fill="#00AEEF" d="M36.312,39.984c0.047,0.396,0.149,0.678,0.307,0.845c0.277,0.297,0.79,0.444,1.538,0.444
		c0.439,0,0.789-0.064,1.048-0.194c0.259-0.13,0.389-0.325,0.389-0.586c0-0.25-0.104-0.44-0.312-0.57
		c-0.209-0.13-0.985-0.354-2.33-0.672c-0.968-0.239-1.649-0.539-2.045-0.898c-0.396-0.354-0.594-0.864-0.594-1.531
		c0-0.786,0.31-1.462,0.928-2.027c0.618-0.565,1.489-0.848,2.611-0.848c1.064,0,1.933,0.212,2.603,0.637
		c0.671,0.425,1.056,1.157,1.155,2.199h-2.227c-0.031-0.286-0.112-0.513-0.243-0.68c-0.245-0.302-0.663-0.453-1.253-0.453
		c-0.486,0-0.832,0.075-1.038,0.227s-0.31,0.328-0.31,0.531c0,0.255,0.109,0.44,0.329,0.555c0.22,0.12,0.994,0.325,2.325,0.617
		c0.887,0.208,1.552,0.523,1.994,0.945c0.438,0.427,0.656,0.961,0.656,1.602c0,0.844-0.314,1.532-0.943,2.066
		c-0.629,0.533-1.601,0.801-2.916,0.801c-1.341,0-2.331-0.282-2.971-0.848c-0.64-0.566-0.959-1.285-0.959-2.16h2.258V39.984
		L36.312,39.984z"/>
	<path fill="#00AEEF" d="M45.371,39.984c0.047,0.396,0.149,0.678,0.307,0.845c0.277,0.297,0.79,0.444,1.538,0.444
		c0.439,0,0.789-0.064,1.048-0.194c0.259-0.13,0.389-0.325,0.389-0.586c0-0.25-0.104-0.44-0.312-0.57
		c-0.209-0.13-0.985-0.354-2.33-0.672c-0.968-0.239-1.649-0.539-2.045-0.898c-0.396-0.354-0.594-0.864-0.594-1.531
		c0-0.786,0.31-1.462,0.928-2.027c0.618-0.565,1.489-0.848,2.611-0.848c1.064,0,1.933,0.212,2.603,0.637
		c0.671,0.425,1.056,1.157,1.155,2.199h-2.227c-0.031-0.286-0.112-0.513-0.243-0.68c-0.245-0.302-0.663-0.453-1.253-0.453
		c-0.486,0-0.832,0.075-1.038,0.227c-0.206,0.152-0.31,0.328-0.31,0.531c0,0.255,0.109,0.44,0.329,0.555
		c0.22,0.12,0.994,0.325,2.325,0.617c0.887,0.208,1.552,0.523,1.994,0.945c0.438,0.427,0.656,0.961,0.656,1.602
		c0,0.844-0.314,1.532-0.943,2.066c-0.629,0.533-1.601,0.801-2.916,0.801c-1.341,0-2.331-0.282-2.971-0.848
		c-0.64-0.566-0.959-1.285-0.959-2.16h2.258V39.984z"/>
	<path fill="#00AEEF" d="M56.075,37.524c0.414-0.052,0.711-0.117,0.889-0.195c0.32-0.136,0.48-0.347,0.48-0.633
		c0-0.349-0.123-0.59-0.368-0.723c-0.245-0.133-0.606-0.199-1.081-0.199c-0.533,0-0.911,0.13-1.133,0.391
		c-0.158,0.192-0.264,0.453-0.316,0.781h-2.148c0.047-0.745,0.256-1.356,0.628-1.836c0.591-0.75,1.605-1.125,3.044-1.125
		c0.937,0,1.769,0.185,2.495,0.555c0.728,0.37,1.091,1.067,1.091,2.094v3.906c0,0.271,0.005,0.599,0.016,0.983
		c0.016,0.293,0.06,0.49,0.133,0.595c0.073,0.104,0.183,0.19,0.328,0.258v0.328H57.71c-0.067-0.172-0.114-0.333-0.141-0.483
		c-0.027-0.152-0.047-0.324-0.062-0.517c-0.309,0.333-0.665,0.616-1.068,0.853c-0.482,0.275-1.027,0.414-1.635,0.414
		c-0.775,0-1.416-0.221-1.922-0.66c-0.505-0.439-0.758-1.062-0.758-1.871c0-1.047,0.406-1.806,1.22-2.272
		c0.446-0.255,1.103-0.438,1.968-0.547L56.075,37.524z M57.437,38.562c-0.143,0.09-0.287,0.16-0.432,0.215
		c-0.146,0.056-0.345,0.104-0.598,0.152L55.9,39.023c-0.476,0.084-0.816,0.186-1.023,0.306c-0.351,0.203-0.526,0.519-0.526,0.944
		c0,0.381,0.107,0.656,0.321,0.824c0.214,0.17,0.475,0.254,0.781,0.254c0.486,0,0.935-0.142,1.345-0.422
		c0.41-0.281,0.623-0.795,0.639-1.539V38.562z"/>
	<path fill="#00AEEF" d="M65.974,34.181c0.541,0.224,0.978,0.636,1.311,1.234v-1.227h2.172v8.078c0,1.101-0.185,1.928-0.555,2.484
		c-0.636,0.958-1.854,1.438-3.656,1.438c-1.089,0-1.977-0.213-2.664-0.641c-0.687-0.427-1.067-1.064-1.141-1.914h2.422
		c0.062,0.262,0.164,0.448,0.305,0.562c0.239,0.203,0.644,0.305,1.211,0.305c0.802,0,1.339-0.27,1.609-0.805
		c0.177-0.344,0.266-0.922,0.266-1.734v-0.547c-0.214,0.363-0.442,0.638-0.688,0.82c-0.442,0.339-1.019,0.508-1.727,0.508
		c-1.094,0-1.968-0.385-2.621-1.152c-0.653-0.768-0.98-1.809-0.98-3.121c0-1.266,0.314-2.329,0.944-3.191
		c0.629-0.862,1.521-1.293,2.676-1.293C65.284,33.985,65.656,34.051,65.974,34.181z M66.731,40.286
		c0.358-0.394,0.537-1.021,0.537-1.879c0-0.808-0.17-1.422-0.51-1.844c-0.34-0.422-0.795-0.633-1.365-0.633
		c-0.778,0-1.314,0.367-1.61,1.102c-0.155,0.391-0.233,0.872-0.233,1.445c0,0.496,0.083,0.935,0.249,1.32
		c0.301,0.719,0.84,1.078,1.618,1.078C65.936,40.876,66.374,40.68,66.731,40.286z"/>
	<path fill="#00AEEF" d="M77.243,34.361c0.594,0.266,1.085,0.686,1.472,1.26c0.349,0.506,0.575,1.093,0.679,1.76
		c0.06,0.392,0.084,0.955,0.073,1.689h-6.202c0.034,0.854,0.331,1.453,0.891,1.798c0.34,0.214,0.749,0.319,1.228,0.319
		c0.507,0,0.919-0.129,1.236-0.392c0.173-0.142,0.325-0.336,0.458-0.586h2.273c-0.06,0.505-0.335,1.021-0.825,1.539
		c-0.763,0.828-1.831,1.242-3.204,1.242c-1.133,0-2.133-0.351-2.999-1.05c-0.866-0.696-1.3-1.834-1.3-3.407
		c0-1.475,0.391-2.606,1.173-3.394c0.782-0.788,1.798-1.181,3.046-1.181C75.981,33.962,76.649,34.095,77.243,34.361z M73.912,36.284
		c-0.314,0.324-0.512,0.764-0.593,1.318h3.836c-0.041-0.591-0.238-1.039-0.593-1.346c-0.355-0.306-0.796-0.459-1.321-0.459
		C74.67,35.798,74.228,35.96,73.912,36.284z"/>
	<path fill="#00AEEF" d="M93.905,31.188v2.039H90.46v9.477h-2.422v-9.477h-3.461v-2.039H93.905z"/>
	<path fill="#00AEEF" d="M102.394,41.662c-0.719,0.888-1.81,1.331-3.273,1.331s-2.555-0.443-3.273-1.331
		c-0.719-0.887-1.078-1.955-1.078-3.204c0-1.229,0.359-2.292,1.078-3.192c0.719-0.9,1.81-1.351,3.273-1.351s2.555,0.45,3.273,1.351
		c0.717,0.901,1.079,1.964,1.079,3.192C103.473,39.707,103.111,40.775,102.394,41.662z M100.612,40.432
		c0.349-0.463,0.523-1.119,0.523-1.974c0-0.853-0.175-1.51-0.523-1.97c-0.348-0.46-0.849-0.69-1.5-0.69
		c-0.651,0-1.152,0.23-1.504,0.69c-0.352,0.46-0.527,1.117-0.527,1.97c0,0.854,0.176,1.511,0.527,1.974s0.853,0.694,1.504,0.694
		C99.763,41.126,100.264,40.895,100.612,40.432z"/>
	<path fill="#00AEEF" d="M13.318,51.592c0.928-0.947,2.107-1.422,3.54-1.422c1.917,0,3.318,0.637,4.205,1.906
		c0.489,0.714,0.752,1.43,0.788,2.148h-2.406c-0.153-0.554-0.35-0.971-0.59-1.25c-0.428-0.5-1.063-0.75-1.905-0.75
		c-0.857,0-1.533,0.353-2.028,1.059s-0.742,1.703-0.742,2.996c0,1.291,0.261,2.259,0.783,2.902c0.522,0.643,1.186,0.965,1.991,0.965
		c0.825,0,1.454-0.276,1.888-0.828c0.239-0.297,0.438-0.742,0.596-1.336h2.391c-0.206,1.254-0.733,2.274-1.58,3.062
		c-0.848,0.786-1.934,1.181-3.258,1.181c-1.639,0-2.927-0.531-3.865-1.595c-0.938-1.067-1.406-2.53-1.406-4.391
		C11.719,54.229,12.252,52.682,13.318,51.592z"/>
	<path fill="#00AEEF" d="M30.855,60.861c-0.719,0.889-1.81,1.332-3.273,1.332s-2.555-0.443-3.273-1.332
		c-0.719-0.887-1.078-1.954-1.078-3.203c0-1.229,0.359-2.292,1.078-3.192c0.719-0.899,1.81-1.351,3.273-1.351
		s2.555,0.449,3.273,1.351c0.718,0.901,1.078,1.964,1.078,3.192C31.934,58.907,31.574,59.977,30.855,60.861z M29.074,59.632
		c0.349-0.463,0.523-1.12,0.523-1.974s-0.175-1.51-0.523-1.971c-0.348-0.459-0.849-0.689-1.5-0.689c-0.651,0-1.152,0.23-1.504,0.689
		c-0.352,0.461-0.527,1.117-0.527,1.971s0.176,1.511,0.527,1.974c0.351,0.464,0.853,0.694,1.504,0.694
		C28.225,60.326,28.726,60.096,29.074,59.632z"/>
	<path fill="#00AEEF" d="M40.555,53.877c0.557,0.461,0.836,1.227,0.836,2.293v5.734H39.11v-5.18c0-0.449-0.06-0.793-0.179-1.031
		c-0.217-0.438-0.631-0.656-1.24-0.656c-0.75,0-1.265,0.32-1.544,0.961c-0.145,0.339-0.217,0.771-0.217,1.297v4.609h-2.227v-8.5
		h2.156v1.242c0.285-0.438,0.555-0.754,0.809-0.945c0.457-0.344,1.035-0.516,1.735-0.516C39.279,53.186,39.997,53.416,40.555,53.877
		z"/>
	<path fill="#00AEEF" d="M47.834,53.381c0.541,0.225,0.978,0.637,1.311,1.234v-1.227h2.172v8.076c0,1.1-0.185,1.928-0.555,2.484
		c-0.636,0.958-1.854,1.438-3.656,1.438c-1.089,0-1.977-0.215-2.664-0.642s-1.067-1.065-1.141-1.914h2.422
		c0.062,0.261,0.164,0.448,0.305,0.562c0.239,0.203,0.644,0.307,1.211,0.307c0.802,0,1.339-0.27,1.609-0.807
		c0.177-0.344,0.266-0.922,0.266-1.732v-0.547c-0.214,0.363-0.442,0.638-0.688,0.818c-0.442,0.34-1.019,0.508-1.727,0.508
		c-1.094,0-1.968-0.383-2.621-1.15c-0.653-0.77-0.98-1.811-0.98-3.121c0-1.268,0.314-2.329,0.944-3.189
		c0.629-0.862,1.521-1.293,2.676-1.293C47.145,53.186,47.517,53.251,47.834,53.381z M48.592,59.486
		c0.358-0.396,0.537-1.021,0.537-1.879c0-0.81-0.17-1.422-0.51-1.844c-0.34-0.424-0.795-0.635-1.365-0.635
		c-0.778,0-1.314,0.367-1.61,1.104c-0.155,0.391-0.233,0.871-0.233,1.443c0,0.495,0.083,0.936,0.249,1.32
		c0.301,0.719,0.84,1.078,1.618,1.078C47.796,60.076,48.234,59.88,48.592,59.486z"/>
	<path fill="#00AEEF" d="M58.284,53.189c0.028,0.002,0.093,0.006,0.191,0.012v2.281c-0.141-0.018-0.266-0.026-0.375-0.031
		c-0.109-0.006-0.198-0.008-0.266-0.008c-0.896,0-1.497,0.291-1.805,0.875c-0.172,0.328-0.258,0.832-0.258,1.516v4.07H53.53v-8.516
		h2.125v1.482c0.344-0.566,0.644-0.956,0.898-1.164c0.417-0.35,0.958-0.521,1.625-0.521C58.221,53.186,58.256,53.188,58.284,53.189z
		"/>
	<path fill="#00AEEF" d="M65.489,53.562c0.594,0.266,1.085,0.686,1.472,1.26c0.349,0.506,0.575,1.093,0.679,1.76
		c0.06,0.393,0.084,0.955,0.073,1.689h-6.202c0.034,0.854,0.331,1.453,0.891,1.797c0.34,0.215,0.749,0.32,1.228,0.32
		c0.507,0,0.919-0.131,1.236-0.392c0.173-0.142,0.325-0.336,0.458-0.586h2.273c-0.06,0.505-0.335,1.021-0.825,1.539
		c-0.763,0.827-1.831,1.241-3.204,1.241c-1.133,0-2.133-0.351-2.999-1.049c-0.866-0.697-1.3-1.834-1.3-3.408
		c0-1.476,0.391-2.605,1.173-3.395c0.782-0.787,1.798-1.181,3.046-1.181C64.228,53.162,64.896,53.295,65.489,53.562z M62.158,55.484
		c-0.314,0.324-0.512,0.764-0.593,1.316h3.836c-0.041-0.591-0.238-1.037-0.593-1.346c-0.355-0.307-0.796-0.459-1.321-0.459
		C62.916,54.998,62.474,55.16,62.158,55.484z"/>
	<path fill="#00AEEF" d="M70.726,59.186c0.047,0.396,0.149,0.679,0.307,0.844c0.277,0.299,0.79,0.445,1.538,0.445
		c0.439,0,0.789-0.063,1.048-0.195c0.259-0.129,0.389-0.323,0.389-0.586c0-0.25-0.104-0.438-0.312-0.568
		c-0.209-0.13-0.985-0.354-2.33-0.672c-0.968-0.239-1.649-0.539-2.045-0.896c-0.396-0.354-0.594-0.865-0.594-1.531
		c0-0.787,0.31-1.463,0.928-2.027c0.618-0.564,1.489-0.848,2.611-0.848c1.064,0,1.933,0.211,2.603,0.637
		c0.671,0.425,1.056,1.156,1.155,2.199h-2.227c-0.031-0.286-0.112-0.514-0.243-0.68c-0.245-0.304-0.663-0.453-1.253-0.453
		c-0.486,0-0.832,0.073-1.038,0.227c-0.206,0.152-0.31,0.328-0.31,0.531c0,0.255,0.109,0.438,0.329,0.555
		c0.22,0.12,0.994,0.325,2.325,0.617c0.887,0.208,1.552,0.523,1.994,0.945c0.438,0.426,0.656,0.961,0.656,1.602
		c0,0.844-0.314,1.531-0.943,2.066c-0.629,0.533-1.601,0.801-2.916,0.801c-1.341,0-2.331-0.282-2.971-0.848
		c-0.64-0.566-0.959-1.285-0.959-2.16h2.258V59.186L70.726,59.186z"/>
	<path fill="#00AEEF" d="M79.784,59.186c0.047,0.396,0.149,0.679,0.307,0.844c0.277,0.299,0.79,0.445,1.538,0.445
		c0.439,0,0.789-0.063,1.048-0.195c0.259-0.129,0.389-0.323,0.389-0.586c0-0.25-0.104-0.438-0.312-0.568
		c-0.209-0.13-0.985-0.354-2.33-0.672c-0.968-0.239-1.649-0.539-2.045-0.896c-0.396-0.354-0.594-0.865-0.594-1.531
		c0-0.787,0.31-1.463,0.928-2.027c0.618-0.564,1.489-0.848,2.611-0.848c1.064,0,1.933,0.211,2.603,0.637
		c0.671,0.425,1.056,1.156,1.155,2.199h-2.227c-0.031-0.286-0.112-0.514-0.243-0.68c-0.245-0.304-0.663-0.453-1.253-0.453
		c-0.486,0-0.832,0.073-1.038,0.227c-0.206,0.152-0.31,0.328-0.31,0.531c0,0.255,0.109,0.438,0.329,0.555
		c0.22,0.12,0.994,0.325,2.325,0.617c0.887,0.208,1.552,0.523,1.994,0.945c0.438,0.426,0.656,0.961,0.656,1.602
		c0,0.844-0.314,1.531-0.943,2.066c-0.629,0.533-1.601,0.801-2.916,0.801c-1.341,0-2.331-0.282-2.971-0.848
		c-0.64-0.566-0.959-1.285-0.959-2.16h2.258V59.186z"/>
</g>
<path fill="#EC0082" d="M188.657,54.309v-6.463l-3.333-1.615V40.4c0-4.516-3.598-8.083-8.049-9.222v-2.194
	c0-1.184-0.789-2.169-1.947-2.481V22h-1.666v4.512c-1.146,0.319-1.938,1.3-1.938,2.473v2.194c-4.451,1.14-8.061,4.708-8.061,9.221
	v5.83l-3.333,1.615v6.463H157V64h35v-9.691H188.657z"/>
<path fill="#00AEEF" d="M188.657,55.309v-6.463l-3.333-1.615V41.4c0-4.516-3.598-8.083-8.049-9.222v-2.194
	c0-1.184-0.789-2.169-1.947-2.481V23h-1.666v4.512c-1.146,0.319-1.938,1.3-1.938,2.473v2.194c-4.451,1.14-8.061,4.708-8.061,9.221
	v5.83l-3.333,1.615v6.463H157V65h35v-9.691H188.657z"/>
<g>
	<path fill="#EC0082" d="M146.835,10.056c-0.081-0.018-0.159-0.056-0.251-0.056h-31.167c-0.085,0-0.163,0.038-0.249,0.056
		L131,24.024L146.835,10.056z"/>
	<path fill="#EC0082" d="M147.917,11.055l-11.228,9.905l11.244,11.906c0.027-0.12,0.064-0.237,0.064-0.366v-21
		C148,11.342,147.959,11.198,147.917,11.055z"/>
	<path fill="#EC0082" d="M114.089,11.052C114.046,11.195,114,11.342,114,11.5v21c0,0.132,0.041,0.246,0.072,0.366l11.244-11.906
		L114.089,11.052z"/>
	<path fill="#EC0082" d="M131.454,25.577c-0.13,0.117-0.291,0.173-0.454,0.173c-0.16,0-0.32-0.056-0.449-0.173l-4.141-3.65
		l-11.336,12c0.113,0.032,0.224,0.073,0.343,0.073h31.167c0.124,0,0.234-0.041,0.348-0.073l-11.334-12.003L131.454,25.577z"/>
</g>
<g>
	<path fill="#00AEEF" d="M146.835,11.056c-0.081-0.018-0.159-0.056-0.251-0.056h-31.167c-0.085,0-0.163,0.038-0.249,0.056
		L131,25.024L146.835,11.056z"/>
	<path fill="#00AEEF" d="M147.917,12.055l-11.228,9.905l11.244,11.906c0.027-0.12,0.064-0.237,0.064-0.366v-21
		C148,12.342,147.959,12.198,147.917,12.055z"/>
	<path fill="#00AEEF" d="M114.089,12.052C114.046,12.195,114,12.342,114,12.5v21c0,0.132,0.041,0.246,0.072,0.366l11.244-11.906
		L114.089,12.052z"/>
	<path fill="#00AEEF" d="M131.454,26.577c-0.13,0.117-0.291,0.173-0.454,0.173c-0.16,0-0.32-0.056-0.449-0.173l-4.141-3.65
		l-11.336,12c0.113,0.032,0.224,0.073,0.343,0.073h31.167c0.124,0,0.234-0.041,0.348-0.073l-11.334-12.003L131.454,26.577z"/>
</g>
<path fill="#EC0082" d="M154,55l-8-8v5c-7.732,0-14-6.268-14-14h-6c0,11.049,8.954,20.005,20,20.005V63L154,55z"/>
<path fill="#00AEEF" d="M154,56l-8-8v5c-7.732,0-14-6.268-14-14h-6c0,11.049,8.954,20.005,20,20.005V64L154,56z"/>
</svg>
