<?xml version="1.0" encoding="utf-8"?>
<!-- Generator: Adobe Illustrator 15.1.0, SVG Export Plug-In . SVG Version: 6.00 Build 0)  -->
<!DOCTYPE svg PUBLIC "-//W3C//DTD SVG 1.1//EN" "http://www.w3.org/Graphics/SVG/1.1/DTD/svg11.dtd">
<svg version="1.1" id="Layer_1" xmlns="http://www.w3.org/2000/svg" xmlns:xlink="http://www.w3.org/1999/xlink" x="0px" y="0px"
	 width="162px" height="47px" viewBox="0 0 162 47" enable-background="new 0 0 162 47" xml:space="preserve">
<g>
	<path fill="#C66825" d="M23.447,46.5l-0.275-0.009C10.67,46.316,0.5,36.002,0.5,23.5S10.67,0.684,23.172,0.509L23.665,0.5h115.056
		l0.269,0.013C151.4,0.772,161.5,11.084,161.5,23.5s-10.1,22.729-22.512,22.986l-0.489,0.014H23.447z"/>
	<path fill="#EC0082" d="M138.382,1l0.597,0.013C151.121,1.267,161,11.354,161,23.5c0,12.146-9.879,22.232-22.021,22.486L138.609,46
		H23.8l-0.621-0.009C10.95,45.82,1,35.73,1,23.5C1,11.27,10.95,1.18,23.179,1.009L23.559,1H138.382 M138.999,0H23.165v0.009
		C10.342,0.188,0,10.634,0,23.5s10.342,23.312,23.165,23.491V47h115.834v-0.014C151.746,46.721,162,36.312,162,23.5
		c0-12.812-10.254-23.221-23.001-23.487V0L138.999,0z"/>
</g>
<path fill="#EC0082" d="M35.376,32.043c2.039-2.633,3.265-5.939,3.265-9.544C38.641,13.939,31.782,7,23.319,7
	C14.859,7,8,13.939,8,22.499C8,31.061,14.859,38,23.319,38c2.967,0,5.726-0.867,8.072-2.343c2.853,2.344,6.328,2.526,8.599,2.077
	c0.003-0.082,0.005-0.139,0.01-0.229C38.157,37.042,36.381,35.617,35.376,32.043z"/>
<g>
	<path fill="#00AEEF" d="M35.376,33.043c2.039-2.633,3.265-5.939,3.265-9.544C38.641,14.939,31.782,8,23.319,8
		C14.859,8,8,14.939,8,23.499C8,32.061,14.859,39,23.319,39c2.967,0,5.726-0.867,8.072-2.343c2.853,2.344,6.328,2.526,8.599,2.077
		c0.003-0.082,0.005-0.139,0.01-0.229C38.157,38.042,36.381,36.617,35.376,33.043z"/>
	<path fill="#C66825" d="M23.221,33.379l-0.913-0.672c-0.121-0.089-2.966-2.2-5.302-4.501c-2.316-2.289-3.859-4.351-3.859-6.982
		c0-2.952,2.232-6.007,5.967-6.007c1.793,0,3.163,0.627,4.107,1.354c0.943-0.728,2.314-1.354,4.105-1.354
		c3.736,0,5.969,3.055,5.969,6.007c0,2.632-1.543,4.694-3.861,6.98c-2.332,2.303-5.182,4.414-5.301,4.503L23.221,33.379z
		 M19.113,18.346c-2.171,0-2.875,1.941-2.875,2.878c0,1.351,0.793,2.636,2.927,4.742c1.404,1.382,3.054,2.728,4.056,3.515
		c0.999-0.787,2.649-2.133,4.051-3.515c2.137-2.106,2.931-3.391,2.931-4.742c0-0.937-0.702-2.878-2.876-2.878
		c-1.99,0-2.761,1.254-2.766,1.266l-1.34,2.35l-1.34-2.35C21.861,19.585,21.065,18.346,19.113,18.346z"/>
</g>
<g>
	<path fill="#EC0082" d="M52.584,24.956c0.084,0.592,0.248,1.034,0.493,1.327c0.449,0.533,1.218,0.8,2.307,0.8
		c0.652,0,1.182-0.069,1.589-0.211c0.771-0.271,1.157-0.771,1.157-1.503c0-0.428-0.189-0.76-0.567-0.993
		c-0.378-0.229-0.978-0.431-1.799-0.606l-1.402-0.308c-1.378-0.305-2.325-0.636-2.841-0.993c-0.873-0.598-1.31-1.532-1.31-2.804
		c0-1.16,0.427-2.124,1.281-2.892s2.108-1.151,3.764-1.151c1.382,0,2.561,0.362,3.536,1.085c0.977,0.725,1.487,1.774,1.535,3.151
		h-2.602c-0.048-0.779-0.396-1.333-1.045-1.661c-0.433-0.217-0.971-0.325-1.613-0.325c-0.715,0-1.285,0.141-1.712,0.422
		c-0.427,0.281-0.64,0.674-0.64,1.178c0,0.463,0.21,0.809,0.631,1.037c0.271,0.152,0.844,0.331,1.721,0.536l2.273,0.536
		c0.997,0.234,1.743,0.548,2.241,0.94c0.772,0.609,1.158,1.491,1.158,2.646c0,1.185-0.458,2.167-1.373,2.948
		c-0.915,0.783-2.207,1.174-3.877,1.174c-1.706,0-3.047-0.385-4.024-1.156C50.488,27.363,50,26.305,50,24.956H52.584z"/>
	<path fill="#EC0082" d="M62.786,16h2.751v7.957c0,0.891,0.105,1.539,0.315,1.949c0.327,0.726,1.039,1.089,2.137,1.089
		c1.092,0,1.801-0.363,2.128-1.089c0.21-0.41,0.315-1.061,0.315-1.949V16h2.751v7.963c0,1.377-0.214,2.449-0.641,3.217
		c-0.796,1.406-2.313,2.109-4.554,2.109c-2.241,0-3.762-0.703-4.562-2.109c-0.427-0.768-0.641-1.84-0.641-3.217L62.786,16L62.786,16
		z"/>
	<path fill="#EC0082" d="M84.613,23.348c-0.758,0.633-1.84,0.949-3.248,0.949h-2.697v4.658h-2.689V16h5.562
		c1.282,0,2.305,0.334,3.066,1.002c0.763,0.668,1.145,1.702,1.145,3.103C85.752,21.634,85.373,22.715,84.613,23.348z M82.548,18.681
		c-0.343-0.287-0.821-0.431-1.44-0.431h-2.439v3.814h2.439c0.619,0,1.098-0.155,1.44-0.466c0.343-0.311,0.515-0.803,0.515-1.477
		C83.062,19.447,82.891,18.968,82.548,18.681z"/>
	<path fill="#EC0082" d="M96.438,23.348c-0.758,0.633-1.842,0.949-3.25,0.949H90.49v4.658h-2.689V16h5.562
		c1.281,0,2.305,0.334,3.066,1.002c0.76,0.668,1.145,1.702,1.145,3.103C97.574,21.634,97.195,22.715,96.438,23.348z M94.37,18.681
		c-0.343-0.287-0.822-0.431-1.44-0.431H90.49v3.814h2.439c0.616,0,1.098-0.155,1.438-0.466s0.515-0.803,0.515-1.477
		C94.884,19.447,94.713,18.968,94.37,18.681z"/>
	<path fill="#EC0082" d="M109.766,27.805c-0.979,1.008-2.394,1.512-4.244,1.512c-1.852,0-3.268-0.504-4.246-1.512
		c-1.312-1.236-1.969-3.019-1.969-5.345c0-2.373,0.656-4.154,1.969-5.344c0.979-1.008,2.396-1.512,4.246-1.512
		c1.852,0,3.268,0.504,4.244,1.512c1.309,1.189,1.961,2.971,1.961,5.344C111.727,24.786,111.072,26.566,109.766,27.805z
		 M108.073,25.835c0.63-0.791,0.944-1.916,0.944-3.375c0-1.453-0.314-2.576-0.944-3.37s-1.48-1.191-2.554-1.191
		c-1.072,0-1.929,0.396-2.565,1.187c-0.638,0.791-0.958,1.916-0.958,3.375s0.318,2.584,0.958,3.375
		c0.639,0.791,1.494,1.188,2.565,1.188C106.592,27.023,107.443,26.626,108.073,25.835z"/>
	<path fill="#EC0082" d="M122.271,16.334c0.479,0.205,0.883,0.507,1.213,0.905c0.273,0.328,0.492,0.691,0.652,1.09
		c0.158,0.399,0.238,0.853,0.238,1.362c0,0.615-0.154,1.221-0.466,1.814c-0.312,0.596-0.823,1.016-1.538,1.262
		c0.6,0.24,1.021,0.582,1.271,1.023c0.248,0.442,0.373,1.118,0.373,2.026v0.869c0,0.592,0.022,0.994,0.07,1.205
		c0.071,0.334,0.238,0.58,0.5,0.736v0.325H121.6c-0.082-0.287-0.141-0.521-0.176-0.694c-0.07-0.361-0.107-0.734-0.113-1.115
		l-0.019-1.203c-0.011-0.826-0.153-1.377-0.429-1.652c-0.274-0.275-0.788-0.413-1.543-0.413h-2.645v5.08h-2.646V16h6.195
		C121.113,16.018,121.796,16.129,122.271,16.334z M116.678,18.25v3.48h2.913c0.579,0,1.013-0.07,1.304-0.211
		c0.513-0.246,0.769-0.732,0.769-1.459c0-0.785-0.248-1.312-0.743-1.582c-0.277-0.152-0.693-0.229-1.252-0.229L116.678,18.25
		L116.678,18.25z"/>
	<path fill="#EC0082" d="M136.471,16v2.294h-3.875v10.661h-2.726V18.294h-3.894V16H136.471z"/>
</g>
<g>
	<path fill="#00AEEF" d="M52.584,25.956c0.084,0.592,0.248,1.034,0.493,1.327c0.449,0.533,1.218,0.8,2.307,0.8
		c0.652,0,1.182-0.069,1.589-0.211c0.771-0.271,1.157-0.771,1.157-1.503c0-0.428-0.189-0.76-0.567-0.993
		c-0.378-0.229-0.978-0.431-1.799-0.606l-1.402-0.308c-1.378-0.305-2.325-0.636-2.841-0.993c-0.873-0.598-1.31-1.532-1.31-2.804
		c0-1.16,0.427-2.124,1.281-2.892s2.108-1.151,3.764-1.151c1.382,0,2.561,0.362,3.536,1.085c0.977,0.725,1.487,1.774,1.535,3.151
		h-2.602c-0.048-0.779-0.396-1.333-1.045-1.661c-0.433-0.217-0.971-0.325-1.613-0.325c-0.715,0-1.285,0.141-1.712,0.422
		c-0.427,0.281-0.64,0.674-0.64,1.178c0,0.463,0.21,0.809,0.631,1.037c0.271,0.152,0.844,0.331,1.721,0.536l2.273,0.536
		c0.997,0.234,1.743,0.548,2.241,0.94c0.772,0.609,1.158,1.491,1.158,2.646c0,1.185-0.458,2.167-1.373,2.948
		c-0.915,0.783-2.207,1.174-3.877,1.174c-1.706,0-3.047-0.385-4.024-1.156C50.488,28.363,50,27.305,50,25.956H52.584z"/>
	<path fill="#00AEEF" d="M62.786,17h2.751v7.957c0,0.891,0.105,1.539,0.315,1.949c0.327,0.726,1.039,1.089,2.137,1.089
		c1.092,0,1.801-0.363,2.128-1.089c0.21-0.41,0.315-1.061,0.315-1.949V17h2.751v7.963c0,1.377-0.214,2.449-0.641,3.217
		c-0.796,1.406-2.313,2.109-4.554,2.109c-2.241,0-3.762-0.703-4.562-2.109c-0.427-0.768-0.641-1.84-0.641-3.217L62.786,17L62.786,17
		z"/>
	<path fill="#00AEEF" d="M84.613,24.348c-0.758,0.633-1.84,0.949-3.248,0.949h-2.697v4.658h-2.689V17h5.562
		c1.282,0,2.305,0.334,3.066,1.002c0.763,0.668,1.145,1.702,1.145,3.103C85.752,22.634,85.373,23.715,84.613,24.348z M82.548,19.681
		c-0.343-0.287-0.821-0.431-1.44-0.431h-2.439v3.814h2.439c0.619,0,1.098-0.155,1.44-0.466c0.343-0.311,0.515-0.803,0.515-1.477
		C83.062,20.447,82.891,19.968,82.548,19.681z"/>
	<path fill="#00AEEF" d="M96.438,24.348c-0.758,0.633-1.842,0.949-3.25,0.949H90.49v4.658h-2.689V17h5.562
		c1.281,0,2.305,0.334,3.066,1.002c0.76,0.668,1.145,1.702,1.145,3.103C97.574,22.634,97.195,23.715,96.438,24.348z M94.37,19.681
		c-0.343-0.287-0.822-0.431-1.44-0.431H90.49v3.814h2.439c0.616,0,1.098-0.155,1.438-0.466s0.515-0.803,0.515-1.477
		C94.884,20.447,94.713,19.968,94.37,19.681z"/>
	<path fill="#00AEEF" d="M109.766,28.805c-0.979,1.008-2.394,1.512-4.244,1.512c-1.852,0-3.268-0.504-4.246-1.512
		c-1.312-1.236-1.969-3.019-1.969-5.345c0-2.373,0.656-4.154,1.969-5.344c0.979-1.008,2.396-1.512,4.246-1.512
		c1.852,0,3.268,0.504,4.244,1.512c1.309,1.189,1.961,2.971,1.961,5.344C111.727,25.786,111.072,27.566,109.766,28.805z
		 M108.073,26.835c0.63-0.791,0.944-1.916,0.944-3.375c0-1.453-0.314-2.576-0.944-3.37s-1.48-1.191-2.554-1.191
		c-1.072,0-1.929,0.396-2.565,1.187c-0.638,0.791-0.958,1.916-0.958,3.375s0.318,2.584,0.958,3.375
		c0.639,0.791,1.494,1.188,2.565,1.188C106.592,28.023,107.443,27.626,108.073,26.835z"/>
	<path fill="#00AEEF" d="M122.271,17.334c0.479,0.205,0.883,0.507,1.213,0.905c0.273,0.328,0.492,0.691,0.652,1.09
		c0.158,0.399,0.238,0.853,0.238,1.362c0,0.615-0.154,1.221-0.466,1.814c-0.312,0.596-0.823,1.016-1.538,1.262
		c0.6,0.24,1.021,0.583,1.271,1.023c0.248,0.442,0.373,1.118,0.373,2.026v0.869c0,0.592,0.022,0.994,0.07,1.205
		c0.071,0.334,0.238,0.58,0.5,0.736v0.325H121.6c-0.082-0.287-0.141-0.521-0.176-0.694c-0.07-0.361-0.107-0.734-0.113-1.115
		l-0.019-1.203c-0.011-0.826-0.153-1.377-0.429-1.652c-0.274-0.275-0.788-0.413-1.543-0.413h-2.645v5.08h-2.646V17h6.195
		C121.113,17.018,121.796,17.129,122.271,17.334z M116.678,19.25v3.48h2.913c0.579,0,1.013-0.07,1.304-0.211
		c0.513-0.246,0.769-0.732,0.769-1.459c0-0.785-0.248-1.312-0.743-1.582c-0.277-0.152-0.693-0.229-1.252-0.229L116.678,19.25
		L116.678,19.25z"/>
	<path fill="#00AEEF" d="M136.471,17v2.294h-3.875v10.661h-2.726V19.294h-3.894V17H136.471z"/>
</g>
</svg>
