<?xml version="1.0" encoding="utf-8"?>
<!-- Generator: Adobe Illustrator 15.0.1, SVG Export Plug-In . SVG Version: 6.00 Build 0)  -->
<!DOCTYPE svg PUBLIC "-//W3C//DTD SVG 1.1//EN" "http://www.w3.org/Graphics/SVG/1.1/DTD/svg11.dtd">
<svg version="1.1" id="Layer_1" xmlns="http://www.w3.org/2000/svg" xmlns:xlink="http://www.w3.org/1999/xlink" x="0px" y="0px"
	 width="422px" height="477px" viewBox="0 0 422 477" enable-background="new 0 0 422 477" xml:space="preserve">
<rect y="0.016" fill="#FFFFFF" width="422" height="77"/>
<rect y="400.016" fill="#FFFFFF" width="422" height="77"/>
<rect y="100.016" fill="#FFFFFF" width="422" height="108"/>
<rect y="250.016" fill="#FFFFFF" width="422" height="108"/>
<path fill="#E7E4DD" d="M417.002,450.016H5.001c-2.209,0-4,1.791-4,4s1.791,4,4,4h412.001c2.209,0,4-1.791,4-4
	S419.211,450.016,417.002,450.016z"/>
<g>
	<path fill="#C4C0B7" d="M5.001,451.016h412.001c2.038,0,3.701,1.529,3.949,3.5c0.021-0.166,0.051-0.328,0.051-0.5
		c0-2.209-1.791-4-4-4H5.001c-2.209,0-4,1.791-4,4c0,0.172,0.029,0.334,0.051,0.5C1.3,452.545,2.963,451.016,5.001,451.016z"/>
</g>
<path fill="#75747C" d="M5.001,451c-2.038,0-3.701,1.529-3.949,3.5c-0.021-0.166-0.051-0.328-0.051-0.5c0,2.209,1.791,4,4,4H17v-7
	H5.001z"/>
<path fill="#434247" d="M5.001,451H17v-1H5.001c-2.209,0-4,1.791-4,4c0,0.172,0.029,0.334,0.051,0.5
	C1.3,452.529,2.963,451,5.001,451z"/>
<path fill="#E7E4DD" d="M417.002,300.016H5.001c-2.209,0-4,1.791-4,4s1.791,4,4,4h412.001c2.209,0,4-1.791,4-4
	S419.211,300.016,417.002,300.016z"/>
<g>
	<path fill="#C4C0B7" d="M5.001,301.016h412.001c2.038,0,3.701,1.529,3.949,3.5c0.021-0.166,0.051-0.328,0.051-0.5
		c0-2.209-1.791-4-4-4H5.001c-2.209,0-4,1.791-4,4c0,0.172,0.029,0.334,0.051,0.5C1.3,302.545,2.963,301.016,5.001,301.016z"/>
</g>
<path fill="#75747C" d="M5.001,301c-2.038,0-3.701,1.529-3.949,3.5c-0.021-0.166-0.051-0.328-0.051-0.5c0,2.209,1.791,4,4,4H17v-7
	H5.001z"/>
<path fill="#434247" d="M5.001,301H17v-1H5.001c-2.209,0-4,1.791-4,4c0,0.172,0.029,0.334,0.051,0.5
	C1.3,302.529,2.963,301,5.001,301z"/>
<path fill="#E7E4DD" d="M417.002,150.016H5.001c-2.209,0-4,1.791-4,4s1.791,4,4,4h412.001c2.209,0,4-1.791,4-4
	S419.211,150.016,417.002,150.016z"/>
<g>
	<path fill="#C4C0B7" d="M5.001,151.016h412.001c2.038,0,3.701,1.529,3.949,3.5c0.021-0.166,0.051-0.328,0.051-0.5
		c0-2.209-1.791-4-4-4H5.001c-2.209,0-4,1.791-4,4c0,0.172,0.029,0.334,0.051,0.5C1.3,152.545,2.963,151.016,5.001,151.016z"/>
</g>
<path fill="#75747C" d="M5.001,151c-2.038,0-3.701,1.529-3.949,3.5c-0.021-0.166-0.051-0.328-0.051-0.5c0,2.209,1.791,4,4,4H17v-7
	H5.001z"/>
<path fill="#434247" d="M5.001,151H17v-1H5.001c-2.209,0-4,1.791-4,4c0,0.172,0.029,0.334,0.051,0.5
	C1.3,152.529,2.963,151,5.001,151z"/>
<path fill="#E7E4DD" d="M417.002,19.016H5.001c-2.209,0-4,1.791-4,4s1.791,4,4,4h412.001c2.209,0,4-1.791,4-4
	S419.211,19.016,417.002,19.016z"/>
<g>
	<path fill="#C4C0B7" d="M5.001,20.016h412.001c2.038,0,3.701,1.529,3.949,3.5c0.021-0.166,0.051-0.328,0.051-0.5
		c0-2.209-1.791-4-4-4H5.001c-2.209,0-4,1.791-4,4c0,0.172,0.029,0.334,0.051,0.5C1.3,21.545,2.963,20.016,5.001,20.016z"/>
</g>
<path fill="#75747C" d="M5.001,20.016c-2.038,0-3.701,1.529-3.949,3.5c-0.021-0.166-0.051-0.328-0.051-0.5c0,2.209,1.791,4,4,4H17
	v-7H5.001z"/>
<path fill="#434247" d="M5.001,20.016H17v-1H5.001c-2.209,0-4,1.791-4,4c0,0.172,0.029,0.334,0.051,0.5
	C1.3,21.545,2.963,20.016,5.001,20.016z"/>
<path fill="#75747C" d="M417.002,50.016H5.001c-2.209,0-4,1.791-4,4s1.791,4,4,4h412.001c2.209,0,4-1.791,4-4
	S419.211,50.016,417.002,50.016z"/>
<g>
	<path fill="#434247" d="M5.001,51.016h412.001c2.038,0,3.701,1.529,3.949,3.5c0.021-0.166,0.051-0.328,0.051-0.5
		c0-2.209-1.791-4-4-4H5.001c-2.209,0-4,1.791-4,4c0,0.172,0.029,0.334,0.051,0.5C1.3,52.545,2.963,51.016,5.001,51.016z"/>
</g>
<circle fill="#75747C" cx="25.001" cy="54.016" r="13"/>
<path fill="#434247" d="M25.001,42.016c7.011,0,12.71,5.554,12.975,12.5c0.007-0.167,0.025-0.331,0.025-0.5c0-7.18-5.82-13-13-13
	s-13,5.82-13,13c0,0.169,0.019,0.333,0.025,0.5C12.291,47.569,17.99,42.016,25.001,42.016z"/>
<g>
	<path fill="#434247" d="M21.971,51.246v-1.326c0.614-0.027,1.043-0.068,1.289-0.123c0.391-0.086,0.709-0.26,0.955-0.52
		c0.168-0.178,0.295-0.415,0.382-0.711c0.05-0.178,0.075-0.31,0.075-0.396h1.627v9.912h-1.996v-6.836H21.971z"/>
</g>
<g>
	<path fill="#FFFFFF" d="M21.971,52.246v-1.326c0.614-0.027,1.043-0.068,1.289-0.123c0.391-0.086,0.709-0.26,0.955-0.52
		c0.168-0.178,0.295-0.415,0.382-0.711c0.05-0.178,0.075-0.31,0.075-0.396h1.627v9.912h-1.996v-6.836H21.971z"/>
</g>
<path fill="#C76825" d="M83,10.016H25.001c-7.18,0-13,5.82-13,13s5.82,13,13,13H83c7.18,0,13-5.82,13-13S90.18,10.016,83,10.016z"/>
<g>
	<path fill="#874817" d="M25.001,11.016H83c7.011,0,12.71,5.554,12.975,12.5c0.007-0.167,0.025-0.331,0.025-0.5
		c0-7.18-5.82-13-13-13H25.001c-7.18,0-13,5.82-13,13c0,0.169,0.019,0.333,0.025,0.5C12.291,16.569,17.99,11.016,25.001,11.016z"/>
</g>
<g>
	<path fill="#874817" d="M21.971,20.246v-1.326c0.614-0.027,1.043-0.068,1.289-0.123c0.391-0.086,0.709-0.26,0.955-0.52
		c0.168-0.178,0.295-0.415,0.382-0.711c0.05-0.178,0.075-0.31,0.075-0.396h1.627v9.912h-1.996v-6.836H21.971z"/>
	<path fill="#874817" d="M39.149,23.971c0.065,0.46,0.193,0.804,0.384,1.032c0.349,0.415,0.947,0.622,1.794,0.622
		c0.507,0,0.919-0.055,1.235-0.164c0.6-0.209,0.9-0.599,0.9-1.169c0-0.333-0.147-0.59-0.441-0.772
		c-0.294-0.178-0.761-0.335-1.399-0.472l-1.091-0.239c-1.072-0.237-1.809-0.495-2.21-0.772c-0.679-0.465-1.019-1.192-1.019-2.181
		c0-0.902,0.332-1.652,0.997-2.249c0.664-0.597,1.64-0.896,2.927-0.896c1.075,0,1.992,0.281,2.75,0.844s1.157,1.38,1.194,2.451
		h-2.023c-0.038-0.606-0.309-1.037-0.813-1.292c-0.336-0.168-0.754-0.253-1.254-0.253c-0.556,0-1,0.109-1.332,0.328
		s-0.498,0.524-0.498,0.916c0,0.36,0.164,0.629,0.491,0.807c0.21,0.119,0.656,0.257,1.338,0.417l1.769,0.417
		c0.775,0.182,1.356,0.426,1.743,0.731c0.601,0.474,0.901,1.16,0.901,2.058c0,0.92-0.356,1.685-1.067,2.293
		c-0.712,0.608-1.717,0.913-3.016,0.913c-1.327,0-2.37-0.3-3.13-0.899c-0.76-0.599-1.14-1.423-1.14-2.471H39.149z"/>
	<path fill="#874817" d="M54.291,17.005v1.784h-3.015v8.292h-2.119V18.79h-3.028v-1.784H54.291z"/>
	<path fill="#874817" d="M57.371,17.005h2.382l3.565,10.076h-2.283L60.37,25.01h-3.71l-0.683,2.071h-2.202L57.371,17.005z
		 M57.232,23.274h2.581l-1.273-3.965L57.232,23.274z"/>
	<path fill="#874817" d="M71.057,17.265c0.371,0.16,0.686,0.394,0.943,0.704c0.213,0.255,0.382,0.538,0.507,0.848
		c0.124,0.31,0.187,0.663,0.187,1.06c0,0.479-0.121,0.949-0.362,1.412s-0.64,0.79-1.196,0.981c0.465,0.187,0.794,0.452,0.988,0.796
		s0.291,0.869,0.291,1.576v0.677c0,0.46,0.019,0.772,0.056,0.937c0.056,0.26,0.185,0.451,0.389,0.574v0.253h-2.324
		c-0.064-0.223-0.109-0.403-0.137-0.54c-0.055-0.283-0.084-0.572-0.089-0.868l-0.014-0.937c-0.009-0.643-0.12-1.071-0.333-1.285
		s-0.613-0.321-1.2-0.321h-2.056v3.951h-2.058V17.005h4.819C70.156,17.019,70.686,17.105,71.057,17.265z M66.705,18.755v2.707h2.266
		c0.45,0,0.788-0.055,1.013-0.164c0.398-0.191,0.597-0.57,0.597-1.135c0-0.611-0.193-1.021-0.578-1.23
		c-0.217-0.119-0.541-0.178-0.974-0.178H66.705z"/>
	<path fill="#874817" d="M82.031,17.005v1.784h-3.015v8.292h-2.119V18.79h-3.028v-1.784H82.031z"/>
</g>
<g>
	<path fill="#FFFFFF" d="M21.971,21.246v-1.326c0.614-0.027,1.043-0.068,1.289-0.123c0.391-0.086,0.709-0.26,0.955-0.52
		c0.168-0.178,0.295-0.415,0.382-0.711c0.05-0.178,0.075-0.31,0.075-0.396h1.627v9.912h-1.996v-6.836H21.971z"/>
	<path fill="#FFFFFF" d="M39.149,24.971c0.065,0.46,0.193,0.804,0.384,1.032c0.349,0.415,0.947,0.622,1.794,0.622
		c0.507,0,0.919-0.055,1.235-0.164c0.6-0.209,0.9-0.599,0.9-1.169c0-0.333-0.147-0.59-0.441-0.772
		c-0.294-0.178-0.761-0.335-1.399-0.472l-1.091-0.239c-1.072-0.237-1.809-0.495-2.21-0.772c-0.679-0.465-1.019-1.192-1.019-2.181
		c0-0.902,0.332-1.652,0.997-2.249c0.664-0.597,1.64-0.896,2.927-0.896c1.075,0,1.992,0.281,2.75,0.844s1.157,1.38,1.194,2.451
		h-2.023c-0.038-0.606-0.309-1.037-0.813-1.292c-0.336-0.168-0.754-0.253-1.254-0.253c-0.556,0-1,0.109-1.332,0.328
		s-0.498,0.524-0.498,0.916c0,0.36,0.164,0.629,0.491,0.807c0.21,0.119,0.656,0.257,1.338,0.417l1.769,0.417
		c0.775,0.182,1.356,0.426,1.743,0.731c0.601,0.474,0.901,1.16,0.901,2.058c0,0.92-0.356,1.685-1.067,2.293
		c-0.712,0.608-1.717,0.913-3.016,0.913c-1.327,0-2.37-0.3-3.13-0.899c-0.76-0.599-1.14-1.423-1.14-2.471H39.149z"/>
	<path fill="#FFFFFF" d="M54.291,18.005v1.784h-3.015v8.292h-2.119V19.79h-3.028v-1.784H54.291z"/>
	<path fill="#FFFFFF" d="M57.371,18.005h2.382l3.565,10.076h-2.283L60.37,26.01h-3.71l-0.683,2.071h-2.202L57.371,18.005z
		 M57.232,24.274h2.581l-1.273-3.965L57.232,24.274z"/>
	<path fill="#FFFFFF" d="M71.057,18.265c0.371,0.16,0.686,0.394,0.943,0.704c0.213,0.255,0.382,0.538,0.507,0.848
		c0.124,0.31,0.187,0.663,0.187,1.06c0,0.479-0.121,0.949-0.362,1.412s-0.64,0.79-1.196,0.981c0.465,0.187,0.794,0.452,0.988,0.796
		s0.291,0.869,0.291,1.576v0.677c0,0.46,0.019,0.772,0.056,0.937c0.056,0.26,0.185,0.451,0.389,0.574v0.253h-2.324
		c-0.064-0.223-0.109-0.403-0.137-0.54c-0.055-0.283-0.084-0.572-0.089-0.868l-0.014-0.937c-0.009-0.643-0.12-1.071-0.333-1.285
		s-0.613-0.321-1.2-0.321h-2.056v3.951h-2.058V18.005h4.819C70.156,18.019,70.686,18.105,71.057,18.265z M66.705,19.755v2.707h2.266
		c0.45,0,0.788-0.055,1.013-0.164c0.398-0.191,0.597-0.57,0.597-1.135c0-0.611-0.193-1.021-0.578-1.23
		c-0.217-0.119-0.541-0.178-0.974-0.178H66.705z"/>
	<path fill="#FFFFFF" d="M82.031,18.005v1.784h-3.015v8.292h-2.119V19.79h-3.028v-1.784H82.031z"/>
</g>
<path fill="#75747C" d="M417,181.016H4.999c-2.209,0-4,1.791-4,4s1.791,4,4,4H417c2.209,0,4-1.791,4-4S419.209,181.016,417,181.016z
	"/>
<g>
	<path fill="#434247" d="M4.999,182.016H417c2.038,0,3.701,1.529,3.949,3.5c0.021-0.166,0.051-0.328,0.051-0.5c0-2.209-1.791-4-4-4
		H4.999c-2.209,0-4,1.791-4,4c0,0.172,0.029,0.334,0.051,0.5C1.298,183.545,2.961,182.016,4.999,182.016z"/>
</g>
<circle fill="#75747C" cx="24.999" cy="185.016" r="13"/>
<path fill="#434247" d="M24.999,173.016c7.011,0,12.71,5.554,12.975,12.5c0.007-0.167,0.025-0.331,0.025-0.5c0-7.18-5.82-13-13-13
	s-13,5.82-13,13c0,0.169,0.019,0.333,0.025,0.5C12.289,178.569,17.988,173.016,24.999,173.016z"/>
<g>
	<path fill="#434247" d="M21.894,187.133c0.278-0.661,0.934-1.36,1.969-2.099c0.898-0.643,1.479-1.103,1.743-1.381
		c0.406-0.433,0.608-0.907,0.608-1.422c0-0.419-0.116-0.768-0.349-1.046s-0.565-0.417-0.998-0.417c-0.592,0-0.996,0.221-1.21,0.663
		c-0.123,0.255-0.196,0.661-0.219,1.217h-1.894c0.032-0.843,0.185-1.524,0.458-2.044c0.52-0.989,1.444-1.483,2.771-1.483
		c1.049,0,1.884,0.291,2.504,0.872s0.931,1.35,0.931,2.307c0,0.734-0.219,1.385-0.658,1.955c-0.288,0.378-0.76,0.8-1.417,1.265
		l-0.781,0.554c-0.489,0.346-0.823,0.597-1.003,0.752s-0.332,0.335-0.455,0.54h4.327v1.716h-6.788
		C21.454,188.371,21.606,187.721,21.894,187.133z"/>
</g>
<g>
	<path fill="#FFFFFF" d="M21.894,188.133c0.278-0.661,0.934-1.36,1.969-2.099c0.898-0.643,1.479-1.103,1.743-1.381
		c0.406-0.433,0.608-0.907,0.608-1.422c0-0.419-0.116-0.768-0.349-1.046s-0.565-0.417-0.998-0.417c-0.592,0-0.996,0.221-1.21,0.663
		c-0.123,0.255-0.196,0.661-0.219,1.217h-1.894c0.032-0.843,0.185-1.524,0.458-2.044c0.52-0.989,1.444-1.483,2.771-1.483
		c1.049,0,1.884,0.291,2.504,0.872s0.931,1.35,0.931,2.307c0,0.734-0.219,1.385-0.658,1.955c-0.288,0.378-0.76,0.8-1.417,1.265
		l-0.781,0.554c-0.489,0.346-0.823,0.597-1.003,0.752s-0.332,0.335-0.455,0.54h4.327v1.716h-6.788
		C21.454,189.371,21.606,188.721,21.894,188.133z"/>
</g>
<g>
	<path fill="#E7E4DD" d="M417.002,119.016H5.001c-2.209,0-4,1.791-4,4s1.791,4,4,4h412.001c2.209,0,4-1.791,4-4
		S419.211,119.016,417.002,119.016z"/>
	<g>
		<path fill="#C4C0B7" d="M5.001,120.016h412.001c2.038,0,3.701,1.529,3.949,3.5c0.021-0.166,0.051-0.328,0.051-0.5
			c0-2.209-1.791-4-4-4H5.001c-2.209,0-4,1.791-4,4c0,0.172,0.029,0.334,0.051,0.5C1.3,121.545,2.963,120.016,5.001,120.016z"/>
	</g>
	<circle fill="#E7E4DD" cx="25.001" cy="123.016" r="13"/>
	<path fill="#C4C0B7" d="M25.001,111.016c7.011,0,12.71,5.554,12.975,12.5c0.007-0.167,0.025-0.331,0.025-0.5c0-7.18-5.82-13-13-13
		s-13,5.82-13,13c0,0.169,0.019,0.333,0.025,0.5C12.291,116.569,17.99,111.016,25.001,111.016z"/>
	<g>
		<path fill="#FFFFFF" d="M21.896,127.133c0.278-0.661,0.934-1.36,1.969-2.099c0.898-0.643,1.479-1.103,1.743-1.381
			c0.406-0.433,0.608-0.907,0.608-1.422c0-0.419-0.116-0.768-0.349-1.046s-0.565-0.417-0.998-0.417c-0.592,0-0.996,0.221-1.21,0.663
			c-0.123,0.255-0.196,0.661-0.219,1.217h-1.894c0.032-0.843,0.185-1.524,0.458-2.044c0.52-0.989,1.444-1.483,2.771-1.483
			c1.049,0,1.884,0.291,2.504,0.872s0.931,1.35,0.931,2.307c0,0.734-0.219,1.385-0.658,1.955c-0.288,0.378-0.76,0.8-1.417,1.265
			l-0.781,0.554c-0.489,0.346-0.823,0.597-1.003,0.752s-0.332,0.335-0.455,0.54h4.327v1.716h-6.788
			C21.456,128.371,21.609,127.721,21.896,127.133z"/>
	</g>
	<g>
		<path fill="#C4C0B7" d="M21.896,126.133c0.278-0.661,0.934-1.36,1.969-2.099c0.898-0.643,1.479-1.103,1.743-1.381
			c0.406-0.433,0.608-0.907,0.608-1.422c0-0.419-0.116-0.768-0.349-1.046s-0.565-0.417-0.998-0.417c-0.592,0-0.996,0.221-1.21,0.663
			c-0.123,0.255-0.196,0.661-0.219,1.217h-1.894c0.032-0.843,0.185-1.524,0.458-2.044c0.52-0.989,1.444-1.483,2.771-1.483
			c1.049,0,1.884,0.291,2.504,0.872s0.931,1.35,0.931,2.307c0,0.734-0.219,1.385-0.658,1.955c-0.288,0.378-0.76,0.8-1.417,1.265
			l-0.781,0.554c-0.489,0.346-0.823,0.597-1.003,0.752s-0.332,0.335-0.455,0.54h4.327v1.716h-6.788
			C21.456,127.371,21.609,126.721,21.896,126.133z"/>
	</g>
</g>
<path fill="#C76825" d="M83,141.016H25.001c-7.18,0-13,5.82-13,13s5.82,13,13,13H83c7.18,0,13-5.82,13-13S90.18,141.016,83,141.016z
	"/>
<g>
	<path fill="#874817" d="M25.001,142.016H83c7.011,0,12.71,5.554,12.975,12.5c0.007-0.167,0.025-0.331,0.025-0.5
		c0-7.18-5.82-13-13-13H25.001c-7.18,0-13,5.82-13,13c0,0.169,0.019,0.333,0.025,0.5C12.291,147.569,17.99,142.016,25.001,142.016z"
		/>
</g>
<g>
	<path fill="#874817" d="M21.896,156.133c0.278-0.661,0.934-1.36,1.969-2.099c0.898-0.643,1.479-1.103,1.743-1.381
		c0.406-0.433,0.608-0.907,0.608-1.422c0-0.419-0.116-0.768-0.349-1.046s-0.565-0.417-0.998-0.417c-0.592,0-0.996,0.221-1.21,0.663
		c-0.123,0.255-0.196,0.661-0.219,1.217h-1.894c0.032-0.843,0.185-1.524,0.458-2.044c0.52-0.989,1.444-1.483,2.771-1.483
		c1.049,0,1.884,0.291,2.504,0.872s0.931,1.35,0.931,2.307c0,0.734-0.219,1.385-0.658,1.955c-0.288,0.378-0.76,0.8-1.417,1.265
		l-0.781,0.554c-0.489,0.346-0.823,0.597-1.003,0.752s-0.332,0.335-0.455,0.54h4.327v1.716h-6.788
		C21.456,157.371,21.608,156.721,21.896,156.133z"/>
	<path fill="#874817" d="M39.002,148.005l1.331,5.77l0.29,1.606l0.291-1.573l1.138-5.803h2.222l1.197,5.77l0.307,1.606l0.311-1.544
		l1.343-5.832h2.144l-2.834,10.076h-2.016l-1.217-5.893l-0.355-1.948l-0.355,1.948l-1.217,5.893h-1.956l-2.857-10.076H39.002z"/>
	<path fill="#874817" d="M57.303,148.265c0.371,0.16,0.686,0.394,0.943,0.704c0.213,0.255,0.382,0.538,0.507,0.848
		c0.124,0.31,0.187,0.663,0.187,1.06c0,0.479-0.121,0.949-0.362,1.412s-0.64,0.79-1.196,0.981c0.465,0.187,0.794,0.452,0.988,0.796
		s0.291,0.869,0.291,1.576v0.677c0,0.46,0.019,0.772,0.056,0.937c0.056,0.26,0.185,0.451,0.389,0.574v0.253h-2.324
		c-0.064-0.223-0.109-0.403-0.137-0.54c-0.055-0.283-0.084-0.572-0.089-0.868l-0.014-0.937c-0.009-0.643-0.12-1.071-0.333-1.285
		s-0.613-0.321-1.2-0.321h-2.056v3.951h-2.058v-10.076h4.819C56.402,148.019,56.932,148.105,57.303,148.265z M52.951,149.755v2.707
		h2.266c0.45,0,0.788-0.055,1.013-0.164c0.398-0.191,0.597-0.57,0.597-1.135c0-0.611-0.193-1.021-0.578-1.23
		c-0.217-0.119-0.541-0.178-0.974-0.178H52.951z"/>
	<path fill="#874817" d="M62.877,158.082h-2.092v-10.076h2.092V158.082z"/>
	<path fill="#874817" d="M72.167,148.005v1.784h-3.015v8.292h-2.119v-8.292h-3.028v-1.784H72.167z"/>
	<path fill="#874817" d="M80.849,149.79h-5.332v2.14h4.895v1.75h-4.895v2.591h5.578v1.812h-7.636v-10.076h7.39V149.79z"/>
</g>
<g>
	<path fill="#FFFFFF" d="M21.896,157.133c0.278-0.661,0.934-1.36,1.969-2.099c0.898-0.643,1.479-1.103,1.743-1.381
		c0.406-0.433,0.608-0.907,0.608-1.422c0-0.419-0.116-0.768-0.349-1.046s-0.565-0.417-0.998-0.417c-0.592,0-0.996,0.221-1.21,0.663
		c-0.123,0.255-0.196,0.661-0.219,1.217h-1.894c0.032-0.843,0.185-1.524,0.458-2.044c0.52-0.989,1.444-1.483,2.771-1.483
		c1.049,0,1.884,0.291,2.504,0.872s0.931,1.35,0.931,2.307c0,0.734-0.219,1.385-0.658,1.955c-0.288,0.378-0.76,0.8-1.417,1.265
		l-0.781,0.554c-0.489,0.346-0.823,0.597-1.003,0.752s-0.332,0.335-0.455,0.54h4.327v1.716h-6.788
		C21.456,158.371,21.608,157.721,21.896,157.133z"/>
	<path fill="#FFFFFF" d="M39.002,149.005l1.331,5.77l0.29,1.606l0.291-1.573l1.138-5.803h2.222l1.197,5.77l0.307,1.606l0.311-1.544
		l1.343-5.832h2.144l-2.834,10.076h-2.016l-1.217-5.893l-0.355-1.948l-0.355,1.948l-1.217,5.893h-1.956l-2.857-10.076H39.002z"/>
	<path fill="#FFFFFF" d="M57.303,149.265c0.371,0.16,0.686,0.394,0.943,0.704c0.213,0.255,0.382,0.538,0.507,0.848
		c0.124,0.31,0.187,0.663,0.187,1.06c0,0.479-0.121,0.949-0.362,1.412s-0.64,0.79-1.196,0.981c0.465,0.187,0.794,0.452,0.988,0.796
		s0.291,0.869,0.291,1.576v0.677c0,0.46,0.019,0.772,0.056,0.937c0.056,0.26,0.185,0.451,0.389,0.574v0.253h-2.324
		c-0.064-0.223-0.109-0.403-0.137-0.54c-0.055-0.283-0.084-0.572-0.089-0.868l-0.014-0.937c-0.009-0.643-0.12-1.071-0.333-1.285
		s-0.613-0.321-1.2-0.321h-2.056v3.951h-2.058v-10.076h4.819C56.402,149.019,56.932,149.105,57.303,149.265z M52.951,150.755v2.707
		h2.266c0.45,0,0.788-0.055,1.013-0.164c0.398-0.191,0.597-0.57,0.597-1.135c0-0.611-0.193-1.021-0.578-1.23
		c-0.217-0.119-0.541-0.178-0.974-0.178H52.951z"/>
	<path fill="#FFFFFF" d="M62.877,159.082h-2.092v-10.076h2.092V159.082z"/>
	<path fill="#FFFFFF" d="M72.167,149.005v1.784h-3.015v8.292h-2.119v-8.292h-3.028v-1.784H72.167z"/>
	<path fill="#FFFFFF" d="M80.849,150.79h-5.332v2.14h4.895v1.75h-4.895v2.591h5.578v1.812h-7.636v-10.076h7.39V150.79z"/>
</g>
<g>
	<path fill="#E7E4DD" d="M417.002,419.016H5.001c-2.209,0-4,1.791-4,4s1.791,4,4,4h412.001c2.209,0,4-1.791,4-4
		S419.211,419.016,417.002,419.016z"/>
	<g>
		<path fill="#C4C0B7" d="M5.001,420.016h412.001c2.038,0,3.701,1.529,3.949,3.5c0.021-0.166,0.051-0.328,0.051-0.5
			c0-2.209-1.791-4-4-4H5.001c-2.209,0-4,1.791-4,4c0,0.172,0.029,0.334,0.051,0.5C1.3,421.545,2.963,420.016,5.001,420.016z"/>
	</g>
	<circle fill="#E7E4DD" cx="25.001" cy="423.016" r="13"/>
	<path fill="#C4C0B7" d="M25.001,411.016c7.011,0,12.71,5.554,12.975,12.5c0.007-0.167,0.025-0.331,0.025-0.5c0-7.18-5.82-13-13-13
		s-13,5.82-13,13c0,0.169,0.019,0.333,0.025,0.5C12.291,416.569,17.99,411.016,25.001,411.016z"/>
	<g>
		<path fill="#FFFFFF" d="M28.322,426.949h-1.121v2.133h-1.907v-2.133H21.37v-1.703l3.644-6.016h2.188v6.193h1.121V426.949z
			 M25.293,425.424v-4.27l-2.474,4.27H25.293z"/>
	</g>
	<g>
		<path fill="#C4C0B7" d="M28.322,425.949h-1.121v2.133h-1.907v-2.133H21.37v-1.703l3.644-6.016h2.188v6.193h1.121V425.949z
			 M25.293,424.424v-4.27l-2.474,4.27H25.293z"/>
	</g>
</g>
<path fill="#C76825" d="M83,441.016H25.001c-7.18,0-13,5.82-13,13s5.82,13,13,13H83c7.18,0,13-5.82,13-13S90.18,441.016,83,441.016z
	"/>
<g>
	<path fill="#874817" d="M25.001,442.016H83c7.011,0,12.71,5.554,12.975,12.5c0.007-0.167,0.025-0.331,0.025-0.5
		c0-7.18-5.82-13-13-13H25.001c-7.18,0-13,5.82-13,13c0,0.169,0.019,0.333,0.025,0.5C12.291,447.569,17.99,442.016,25.001,442.016z"
		/>
</g>
<g>
	<path fill="#874817" d="M28.321,455.949H27.2v2.133h-1.907v-2.133h-3.924v-1.703l3.644-6.016H27.2v6.193h1.121V455.949z
		 M25.293,454.424v-4.27l-2.474,4.27H25.293z"/>
	<path fill="#874817" d="M39.149,454.971c0.065,0.461,0.193,0.805,0.384,1.033c0.349,0.414,0.947,0.621,1.794,0.621
		c0.507,0,0.919-0.055,1.235-0.164c0.6-0.209,0.9-0.599,0.9-1.168c0-0.333-0.147-0.591-0.441-0.773
		c-0.294-0.178-0.761-0.334-1.399-0.471l-1.091-0.24c-1.072-0.236-1.809-0.494-2.21-0.771c-0.679-0.465-1.019-1.192-1.019-2.182
		c0-0.902,0.332-1.651,0.997-2.248c0.664-0.598,1.64-0.896,2.927-0.896c1.075,0,1.992,0.281,2.75,0.845s1.157,1.38,1.194,2.45
		h-2.023c-0.038-0.605-0.309-1.036-0.813-1.291c-0.336-0.169-0.754-0.254-1.254-0.254c-0.556,0-1,0.109-1.332,0.328
		s-0.498,0.524-0.498,0.916c0,0.36,0.164,0.629,0.491,0.807c0.21,0.119,0.656,0.258,1.338,0.418l1.769,0.416
		c0.775,0.183,1.356,0.427,1.743,0.732c0.601,0.474,0.901,1.159,0.901,2.057c0,0.921-0.356,1.686-1.067,2.294
		c-0.712,0.608-1.717,0.913-3.016,0.913c-1.327,0-2.37-0.301-3.13-0.899c-0.76-0.599-1.14-1.423-1.14-2.472H39.149z"/>
	<path fill="#874817" d="M46.956,458.082v-10.076h2.092v3.842h3.917v-3.842h2.092v10.076h-2.092v-4.498h-3.917v4.498H46.956z"/>
	<path fill="#874817" d="M59.961,448.006h2.382l3.565,10.076h-2.283l-0.665-2.072h-3.71l-0.683,2.072h-2.202L59.961,448.006z
		 M59.823,454.273h2.581l-1.273-3.965L59.823,454.273z"/>
	<path fill="#874817" d="M73.647,448.266c0.371,0.159,0.686,0.394,0.943,0.703c0.213,0.256,0.382,0.538,0.507,0.848
		c0.124,0.311,0.187,0.664,0.187,1.061c0,0.479-0.121,0.949-0.362,1.411s-0.64,0.79-1.196,0.981
		c0.465,0.187,0.794,0.451,0.988,0.796s0.291,0.869,0.291,1.575v0.678c0,0.46,0.019,0.771,0.056,0.936
		c0.056,0.26,0.185,0.451,0.389,0.574v0.254h-2.324c-0.064-0.224-0.109-0.404-0.137-0.541c-0.055-0.282-0.084-0.571-0.089-0.867
		l-0.014-0.938c-0.009-0.643-0.12-1.07-0.333-1.285c-0.213-0.214-0.613-0.32-1.2-0.32h-2.056v3.951h-2.058v-10.076h4.819
		C72.747,448.02,73.276,448.105,73.647,448.266z M69.296,449.756v2.707h2.266c0.45,0,0.788-0.055,1.013-0.164
		c0.398-0.191,0.597-0.57,0.597-1.135c0-0.611-0.193-1.021-0.578-1.23c-0.217-0.119-0.541-0.178-0.974-0.178H69.296z"/>
	<path fill="#874817" d="M84.752,449.789H79.42v2.141h4.895v1.75H79.42v2.59h5.578v1.812h-7.636v-10.076h7.39V449.789z"/>
</g>
<g>
	<path fill="#FFFFFF" d="M28.321,456.949H27.2v2.133h-1.907v-2.133h-3.924v-1.703l3.644-6.016H27.2v6.193h1.121V456.949z
		 M25.293,455.424v-4.27l-2.474,4.27H25.293z"/>
	<path fill="#FFFFFF" d="M39.149,455.971c0.065,0.461,0.193,0.805,0.384,1.033c0.349,0.414,0.947,0.621,1.794,0.621
		c0.507,0,0.919-0.055,1.235-0.164c0.6-0.209,0.9-0.599,0.9-1.168c0-0.333-0.147-0.591-0.441-0.773
		c-0.294-0.178-0.761-0.334-1.399-0.471l-1.091-0.24c-1.072-0.236-1.809-0.494-2.21-0.771c-0.679-0.465-1.019-1.192-1.019-2.182
		c0-0.902,0.332-1.651,0.997-2.248c0.664-0.598,1.64-0.896,2.927-0.896c1.075,0,1.992,0.281,2.75,0.845s1.157,1.38,1.194,2.45
		h-2.023c-0.038-0.605-0.309-1.036-0.813-1.291c-0.336-0.169-0.754-0.254-1.254-0.254c-0.556,0-1,0.109-1.332,0.328
		s-0.498,0.524-0.498,0.916c0,0.36,0.164,0.629,0.491,0.807c0.21,0.119,0.656,0.258,1.338,0.418l1.769,0.416
		c0.775,0.183,1.356,0.427,1.743,0.732c0.601,0.474,0.901,1.159,0.901,2.057c0,0.921-0.356,1.686-1.067,2.294
		c-0.712,0.608-1.717,0.913-3.016,0.913c-1.327,0-2.37-0.301-3.13-0.899c-0.76-0.599-1.14-1.423-1.14-2.472H39.149z"/>
	<path fill="#FFFFFF" d="M46.956,459.082v-10.076h2.092v3.842h3.917v-3.842h2.092v10.076h-2.092v-4.498h-3.917v4.498H46.956z"/>
	<path fill="#FFFFFF" d="M59.961,449.006h2.382l3.565,10.076h-2.283l-0.665-2.072h-3.71l-0.683,2.072h-2.202L59.961,449.006z
		 M59.823,455.273h2.581l-1.273-3.965L59.823,455.273z"/>
	<path fill="#FFFFFF" d="M73.647,449.266c0.371,0.159,0.686,0.394,0.943,0.703c0.213,0.256,0.382,0.538,0.507,0.848
		c0.124,0.311,0.187,0.664,0.187,1.061c0,0.479-0.121,0.949-0.362,1.411s-0.64,0.79-1.196,0.981
		c0.465,0.187,0.794,0.451,0.988,0.796s0.291,0.869,0.291,1.575v0.678c0,0.46,0.019,0.771,0.056,0.936
		c0.056,0.26,0.185,0.451,0.389,0.574v0.254h-2.324c-0.064-0.224-0.109-0.404-0.137-0.541c-0.055-0.282-0.084-0.571-0.089-0.867
		l-0.014-0.938c-0.009-0.643-0.12-1.07-0.333-1.285c-0.213-0.214-0.613-0.32-1.2-0.32h-2.056v3.951h-2.058v-10.076h4.819
		C72.747,449.02,73.276,449.105,73.647,449.266z M69.296,450.756v2.707h2.266c0.45,0,0.788-0.055,1.013-0.164
		c0.398-0.191,0.597-0.57,0.597-1.135c0-0.611-0.193-1.021-0.578-1.23c-0.217-0.119-0.541-0.178-0.974-0.178H69.296z"/>
	<path fill="#FFFFFF" d="M84.752,450.789H79.42v2.141h4.895v1.75H79.42v2.59h5.578v1.812h-7.636v-10.076h7.39V450.789z"/>
</g>
<path fill="#75747C" d="M417.002,331.016H5.001c-2.209,0-4,1.791-4,4s1.791,4,4,4h412.001c2.209,0,4-1.791,4-4
	S419.211,331.016,417.002,331.016z"/>
<g>
	<path fill="#434247" d="M5.001,332.016h412.001c2.038,0,3.701,1.529,3.949,3.5c0.021-0.166,0.051-0.328,0.051-0.5
		c0-2.209-1.791-4-4-4H5.001c-2.209,0-4,1.791-4,4c0,0.172,0.029,0.334,0.051,0.5C1.3,333.545,2.963,332.016,5.001,332.016z"/>
</g>
<circle fill="#75747C" cx="25.001" cy="335.016" r="13"/>
<path fill="#434247" d="M25.001,323.016c7.011,0,12.71,5.554,12.975,12.5c0.007-0.167,0.025-0.331,0.025-0.5c0-7.18-5.82-13-13-13
	s-13,5.82-13,13c0,0.169,0.019,0.333,0.025,0.5C12.291,328.569,17.99,323.016,25.001,323.016z"/>
<g>
	<path fill="#434247" d="M23.284,336.039c0,0.396,0.063,0.725,0.191,0.984c0.236,0.479,0.666,0.719,1.289,0.719
		c0.382,0,0.715-0.131,0.999-0.394s0.426-0.64,0.426-1.132c0-0.651-0.264-1.086-0.791-1.305c-0.3-0.123-0.772-0.186-1.417-0.186
		v-1.395c0.631-0.009,1.072-0.07,1.322-0.184c0.431-0.191,0.647-0.579,0.647-1.162c0-0.379-0.11-0.687-0.331-0.924
		c-0.221-0.236-0.531-0.355-0.931-0.355c-0.459,0-0.797,0.146-1.013,0.438c-0.216,0.292-0.319,0.682-0.31,1.17h-1.818
		c0.018-0.492,0.103-0.96,0.252-1.402c0.16-0.387,0.41-0.744,0.751-1.072c0.255-0.232,0.558-0.41,0.908-0.533
		s0.781-0.186,1.291-0.186c0.947,0,1.71,0.246,2.291,0.735s0.871,1.147,0.871,1.972c0,0.584-0.173,1.076-0.52,1.477
		c-0.219,0.251-0.447,0.422-0.684,0.514c0.178,0,0.433,0.152,0.766,0.457c0.497,0.461,0.745,1.09,0.745,1.887
		c0,0.839-0.291,1.576-0.871,2.212c-0.581,0.636-1.44,0.954-2.578,0.954c-1.402,0-2.376-0.459-2.923-1.375
		c-0.287-0.487-0.446-1.125-0.478-1.914H23.284z"/>
</g>
<g>
	<path fill="#FFFFFF" d="M23.284,337.039c0,0.396,0.063,0.725,0.191,0.984c0.236,0.479,0.666,0.719,1.289,0.719
		c0.382,0,0.715-0.131,0.999-0.394s0.426-0.64,0.426-1.132c0-0.651-0.264-1.086-0.791-1.305c-0.3-0.123-0.772-0.186-1.417-0.186
		v-1.395c0.631-0.009,1.072-0.07,1.322-0.184c0.431-0.191,0.647-0.579,0.647-1.162c0-0.379-0.11-0.687-0.331-0.924
		c-0.221-0.236-0.531-0.355-0.931-0.355c-0.459,0-0.797,0.146-1.013,0.438c-0.216,0.292-0.319,0.682-0.31,1.17h-1.818
		c0.018-0.492,0.103-0.96,0.252-1.402c0.16-0.387,0.41-0.744,0.751-1.072c0.255-0.232,0.558-0.41,0.908-0.533
		s0.781-0.186,1.291-0.186c0.947,0,1.71,0.246,2.291,0.735s0.871,1.147,0.871,1.972c0,0.584-0.173,1.076-0.52,1.477
		c-0.219,0.251-0.447,0.422-0.684,0.514c0.178,0,0.433,0.152,0.766,0.457c0.497,0.461,0.745,1.09,0.745,1.887
		c0,0.839-0.291,1.576-0.871,2.212c-0.581,0.636-1.44,0.954-2.578,0.954c-1.402,0-2.376-0.459-2.923-1.375
		c-0.287-0.487-0.446-1.125-0.478-1.914H23.284z"/>
</g>
<g>
	<path fill="#E7E4DD" d="M417.002,269.016H5.001c-2.209,0-4,1.791-4,4s1.791,4,4,4h412.001c2.209,0,4-1.791,4-4
		S419.211,269.016,417.002,269.016z"/>
	<g>
		<path fill="#C4C0B7" d="M5.001,270.016h412.001c2.038,0,3.701,1.529,3.949,3.5c0.021-0.166,0.051-0.328,0.051-0.5
			c0-2.209-1.791-4-4-4H5.001c-2.209,0-4,1.791-4,4c0,0.172,0.029,0.334,0.051,0.5C1.3,271.545,2.963,270.016,5.001,270.016z"/>
	</g>
	<circle fill="#E7E4DD" cx="25.001" cy="273.016" r="13"/>
	<path fill="#C4C0B7" d="M25.001,261.016c7.011,0,12.71,5.554,12.975,12.5c0.007-0.167,0.025-0.331,0.025-0.5c0-7.18-5.82-13-13-13
		s-13,5.82-13,13c0,0.169,0.019,0.333,0.025,0.5C12.291,266.569,17.99,261.016,25.001,261.016z"/>
	<g>
		<path fill="#FFFFFF" d="M23.284,276.039c0,0.396,0.063,0.725,0.191,0.984c0.236,0.479,0.666,0.719,1.289,0.719
			c0.382,0,0.715-0.131,0.999-0.394s0.426-0.64,0.426-1.132c0-0.651-0.264-1.086-0.791-1.305c-0.3-0.123-0.772-0.186-1.417-0.186
			v-1.395c0.631-0.009,1.072-0.07,1.322-0.184c0.431-0.191,0.647-0.579,0.647-1.162c0-0.379-0.11-0.687-0.331-0.924
			c-0.221-0.236-0.531-0.355-0.931-0.355c-0.459,0-0.797,0.146-1.013,0.438c-0.216,0.292-0.319,0.682-0.31,1.17h-1.818
			c0.018-0.492,0.103-0.96,0.252-1.402c0.16-0.387,0.41-0.744,0.751-1.072c0.255-0.232,0.558-0.41,0.908-0.533
			s0.781-0.186,1.291-0.186c0.947,0,1.71,0.246,2.291,0.735s0.871,1.147,0.871,1.972c0,0.584-0.173,1.076-0.52,1.477
			c-0.219,0.251-0.447,0.422-0.684,0.514c0.178,0,0.433,0.152,0.766,0.457c0.497,0.461,0.745,1.09,0.745,1.887
			c0,0.839-0.291,1.576-0.871,2.212c-0.581,0.636-1.44,0.954-2.578,0.954c-1.402,0-2.376-0.459-2.923-1.375
			c-0.287-0.487-0.446-1.125-0.478-1.914H23.284z"/>
	</g>
	<g>
		<path fill="#C4C0B7" d="M23.284,275.039c0,0.396,0.063,0.725,0.191,0.984c0.236,0.479,0.666,0.719,1.289,0.719
			c0.382,0,0.715-0.131,0.999-0.394s0.426-0.64,0.426-1.132c0-0.651-0.264-1.086-0.791-1.305c-0.3-0.123-0.772-0.186-1.417-0.186
			v-1.395c0.631-0.009,1.072-0.07,1.322-0.184c0.431-0.191,0.647-0.579,0.647-1.162c0-0.379-0.11-0.687-0.331-0.924
			c-0.221-0.236-0.531-0.355-0.931-0.355c-0.459,0-0.797,0.146-1.013,0.438c-0.216,0.292-0.319,0.682-0.31,1.17h-1.818
			c0.018-0.492,0.103-0.96,0.252-1.402c0.16-0.387,0.41-0.744,0.751-1.072c0.255-0.232,0.558-0.41,0.908-0.533
			s0.781-0.186,1.291-0.186c0.947,0,1.71,0.246,2.291,0.735s0.871,1.147,0.871,1.972c0,0.584-0.173,1.076-0.52,1.477
			c-0.219,0.251-0.447,0.422-0.684,0.514c0.178,0,0.433,0.152,0.766,0.457c0.497,0.461,0.745,1.09,0.745,1.887
			c0,0.839-0.291,1.576-0.871,2.212c-0.581,0.636-1.44,0.954-2.578,0.954c-1.402,0-2.376-0.459-2.923-1.375
			c-0.287-0.487-0.446-1.125-0.478-1.914H23.284z"/>
	</g>
</g>
<path fill="#C76825" d="M83,291.016H25.001c-7.18,0-13,5.82-13,13s5.82,13,13,13H83c7.18,0,13-5.82,13-13S90.18,291.016,83,291.016z
	"/>
<g>
	<path fill="#874817" d="M25.001,292.016H83c7.011,0,12.71,5.554,12.975,12.5c0.007-0.167,0.025-0.331,0.025-0.5
		c0-7.18-5.82-13-13-13H25.001c-7.18,0-13,5.82-13,13c0,0.169,0.019,0.333,0.025,0.5C12.291,297.569,17.99,292.016,25.001,292.016z"
		/>
</g>
<g>
	<path fill="#874817" d="M23.283,305.039c0,0.396,0.063,0.725,0.191,0.984c0.236,0.479,0.666,0.719,1.289,0.719
		c0.382,0,0.715-0.131,0.999-0.394s0.426-0.64,0.426-1.132c0-0.651-0.264-1.086-0.791-1.305c-0.3-0.123-0.772-0.186-1.417-0.186
		v-1.395c0.631-0.009,1.072-0.07,1.322-0.184c0.431-0.191,0.647-0.579,0.647-1.162c0-0.379-0.11-0.687-0.331-0.924
		c-0.221-0.236-0.531-0.355-0.931-0.355c-0.459,0-0.797,0.146-1.013,0.438c-0.216,0.292-0.319,0.682-0.31,1.17h-1.818
		c0.018-0.492,0.103-0.96,0.252-1.402c0.16-0.387,0.41-0.744,0.751-1.072c0.255-0.232,0.558-0.41,0.908-0.533
		s0.781-0.186,1.291-0.186c0.947,0,1.71,0.246,2.291,0.735s0.871,1.147,0.871,1.972c0,0.584-0.173,1.076-0.52,1.477
		c-0.219,0.251-0.447,0.422-0.684,0.514c0.178,0,0.433,0.152,0.766,0.457c0.497,0.461,0.745,1.09,0.745,1.887
		c0,0.839-0.291,1.576-0.871,2.212c-0.581,0.636-1.44,0.954-2.578,0.954c-1.402,0-2.376-0.459-2.923-1.375
		c-0.287-0.487-0.446-1.125-0.478-1.914H23.283z"/>
	<path fill="#874817" d="M39.149,304.971c0.065,0.461,0.193,0.805,0.384,1.033c0.349,0.414,0.947,0.621,1.794,0.621
		c0.507,0,0.919-0.055,1.235-0.164c0.6-0.209,0.9-0.599,0.9-1.168c0-0.333-0.147-0.591-0.441-0.773
		c-0.294-0.178-0.761-0.334-1.399-0.471l-1.091-0.24c-1.072-0.236-1.809-0.494-2.21-0.771c-0.679-0.465-1.019-1.192-1.019-2.182
		c0-0.902,0.332-1.651,0.997-2.248c0.664-0.598,1.64-0.896,2.927-0.896c1.075,0,1.992,0.281,2.75,0.845s1.157,1.38,1.194,2.45
		h-2.023c-0.038-0.605-0.309-1.036-0.813-1.291c-0.336-0.169-0.754-0.254-1.254-0.254c-0.556,0-1,0.109-1.332,0.328
		s-0.498,0.524-0.498,0.916c0,0.36,0.164,0.629,0.491,0.807c0.21,0.119,0.656,0.258,1.338,0.418l1.769,0.416
		c0.775,0.183,1.356,0.427,1.743,0.732c0.601,0.474,0.901,1.159,0.901,2.057c0,0.921-0.356,1.686-1.067,2.294
		c-0.712,0.608-1.717,0.913-3.016,0.913c-1.327,0-2.37-0.301-3.13-0.899c-0.76-0.599-1.14-1.423-1.14-2.472H39.149z"/>
	<path fill="#874817" d="M54.421,299.789h-5.332v2.141h4.895v1.75h-4.895v2.59h5.578v1.812h-7.636v-10.076h7.39V299.789z"/>
	<path fill="#874817" d="M56.273,298.006h2.207l4,7.025v-7.025h1.962v10.076h-2.105l-4.102-7.15v7.15h-1.962V298.006z"/>
	<path fill="#874817" d="M72.322,298.225c0.707,0.232,1.279,0.658,1.717,1.277c0.352,0.502,0.591,1.044,0.719,1.627
		c0.127,0.584,0.191,1.14,0.191,1.668c0,1.34-0.269,2.475-0.807,3.404c-0.73,1.254-1.856,1.881-3.38,1.881h-4.344v-10.076h4.344
		C71.387,298.015,71.907,298.088,72.322,298.225z M68.462,299.756v6.576h1.944c0.995,0,1.689-0.49,2.082-1.471
		c0.214-0.537,0.322-1.178,0.322-1.92c0-1.025-0.161-1.812-0.483-2.362s-0.962-0.823-1.92-0.823H68.462z"/>
</g>
<g>
	<path fill="#FFFFFF" d="M23.283,306.039c0,0.396,0.063,0.725,0.191,0.984c0.236,0.479,0.666,0.719,1.289,0.719
		c0.382,0,0.715-0.131,0.999-0.394s0.426-0.64,0.426-1.132c0-0.651-0.264-1.086-0.791-1.305c-0.3-0.123-0.772-0.186-1.417-0.186
		v-1.395c0.631-0.009,1.072-0.07,1.322-0.184c0.431-0.191,0.647-0.579,0.647-1.162c0-0.379-0.11-0.687-0.331-0.924
		c-0.221-0.236-0.531-0.355-0.931-0.355c-0.459,0-0.797,0.146-1.013,0.438c-0.216,0.292-0.319,0.682-0.31,1.17h-1.818
		c0.018-0.492,0.103-0.96,0.252-1.402c0.16-0.387,0.41-0.744,0.751-1.072c0.255-0.232,0.558-0.41,0.908-0.533
		s0.781-0.186,1.291-0.186c0.947,0,1.71,0.246,2.291,0.735s0.871,1.147,0.871,1.972c0,0.584-0.173,1.076-0.52,1.477
		c-0.219,0.251-0.447,0.422-0.684,0.514c0.178,0,0.433,0.152,0.766,0.457c0.497,0.461,0.745,1.09,0.745,1.887
		c0,0.839-0.291,1.576-0.871,2.212c-0.581,0.636-1.44,0.954-2.578,0.954c-1.402,0-2.376-0.459-2.923-1.375
		c-0.287-0.487-0.446-1.125-0.478-1.914H23.283z"/>
	<path fill="#FFFFFF" d="M39.149,305.971c0.065,0.461,0.193,0.805,0.384,1.033c0.349,0.414,0.947,0.621,1.794,0.621
		c0.507,0,0.919-0.055,1.235-0.164c0.6-0.209,0.9-0.599,0.9-1.168c0-0.333-0.147-0.591-0.441-0.773
		c-0.294-0.178-0.761-0.334-1.399-0.471l-1.091-0.24c-1.072-0.236-1.809-0.494-2.21-0.771c-0.679-0.465-1.019-1.192-1.019-2.182
		c0-0.902,0.332-1.651,0.997-2.248c0.664-0.598,1.64-0.896,2.927-0.896c1.075,0,1.992,0.281,2.75,0.845s1.157,1.38,1.194,2.45
		h-2.023c-0.038-0.605-0.309-1.036-0.813-1.291c-0.336-0.169-0.754-0.254-1.254-0.254c-0.556,0-1,0.109-1.332,0.328
		s-0.498,0.524-0.498,0.916c0,0.36,0.164,0.629,0.491,0.807c0.21,0.119,0.656,0.258,1.338,0.418l1.769,0.416
		c0.775,0.183,1.356,0.427,1.743,0.732c0.601,0.474,0.901,1.159,0.901,2.057c0,0.921-0.356,1.686-1.067,2.294
		c-0.712,0.608-1.717,0.913-3.016,0.913c-1.327,0-2.37-0.301-3.13-0.899c-0.76-0.599-1.14-1.423-1.14-2.472H39.149z"/>
	<path fill="#FFFFFF" d="M54.421,300.789h-5.332v2.141h4.895v1.75h-4.895v2.59h5.578v1.812h-7.636v-10.076h7.39V300.789z"/>
	<path fill="#FFFFFF" d="M56.273,299.006h2.207l4,7.025v-7.025h1.962v10.076h-2.105l-4.102-7.15v7.15h-1.962V299.006z"/>
	<path fill="#FFFFFF" d="M72.322,299.225c0.707,0.232,1.279,0.658,1.717,1.277c0.352,0.502,0.591,1.044,0.719,1.627
		c0.127,0.584,0.191,1.14,0.191,1.668c0,1.34-0.269,2.475-0.807,3.404c-0.73,1.254-1.856,1.881-3.38,1.881h-4.344v-10.076h4.344
		C71.387,299.015,71.907,299.088,72.322,299.225z M68.462,300.756v6.576h1.944c0.995,0,1.689-0.49,2.082-1.471
		c0.214-0.537,0.322-1.178,0.322-1.92c0-1.025-0.161-1.812-0.483-2.362s-0.962-0.823-1.92-0.823H68.462z"/>
</g>
</svg>
