<?xml version="1.0" encoding="utf-8"?>
<!-- Generator: Adobe Illustrator 15.1.0, SVG Export Plug-In . SVG Version: 6.00 Build 0)  -->
<!DOCTYPE svg PUBLIC "-//W3C//DTD SVG 1.1//EN" "http://www.w3.org/Graphics/SVG/1.1/DTD/svg11.dtd">
<svg version="1.1" id="Layer_1" xmlns="http://www.w3.org/2000/svg" xmlns:xlink="http://www.w3.org/1999/xlink" x="0px" y="0px"
	 width="422px" height="108px" viewBox="0 0 422 108" enable-background="new 0 0 422 108" xml:space="preserve">
<g>
	<rect y="0.016" fill="#FFFFFF" width="422" height="108"/>
	<path fill="#E7E4DD" d="M417.002,50.016H5.001c-2.209,0-4,1.791-4,4c0,2.208,1.791,4,4,4h412.001c2.209,0,4-1.791,4-4
		C421.002,51.807,419.211,50.016,417.002,50.016z"/>
	<g>
		<path fill="#EC0082" d="M5.001,51.016h412.001c2.038,0,3.701,1.529,3.949,3.5c0.021-0.166,0.051-0.328,0.051-0.5
			c0-2.209-1.791-4-4-4H5.001c-2.209,0-4,1.791-4,4c0,0.172,0.029,0.334,0.051,0.5C1.3,52.545,2.963,51.016,5.001,51.016z"/>
	</g>
	<path fill="#75747C" d="M5.001,51c-2.038,0-3.701,1.529-3.949,3.5C1.03,54.334,1.001,54.172,1.001,54c0,2.209,1.791,4,4,4H17v-7
		H5.001z"/>
	<path fill="#EC0082" d="M5.001,51H17v-1H5.001c-2.209,0-4,1.791-4,4c0,0.172,0.029,0.334,0.051,0.5C1.3,52.529,2.963,51,5.001,51z"
		/>
	<path fill="#75747C" d="M417,81.016H4.999c-2.209,0-4,1.791-4,4s1.791,4,4,4H417c2.209,0,4-1.791,4-4S419.209,81.016,417,81.016z"
		/>
	<g>
		<path fill="#EC0082" d="M4.999,82.016H417c2.038,0,3.701,1.529,3.949,3.5c0.021-0.166,0.051-0.328,0.051-0.5c0-2.209-1.791-4-4-4
			H4.999c-2.209,0-4,1.791-4,4c0,0.172,0.029,0.334,0.051,0.5C1.298,83.545,2.961,82.016,4.999,82.016z"/>
	</g>
	<circle fill="#75747C" cx="24.999" cy="85.016" r="13"/>
	<path fill="#EC0082" d="M24.999,73.016c7.011,0,12.71,5.555,12.975,12.5c0.007-0.166,0.025-0.33,0.025-0.5c0-7.18-5.82-13-13-13
		s-13,5.82-13,13c0,0.17,0.019,0.334,0.025,0.5C12.289,78.568,17.988,73.016,24.999,73.016z"/>
	<g>
		<path fill="#EC0082" d="M21.894,87.133c0.278-0.66,0.934-1.359,1.969-2.098c0.898-0.643,1.479-1.104,1.743-1.381
			c0.406-0.434,0.608-0.907,0.608-1.422c0-0.42-0.116-0.771-0.349-1.047c-0.232-0.277-0.565-0.416-0.998-0.416
			c-0.592,0-0.996,0.221-1.21,0.662c-0.123,0.256-0.196,0.659-0.219,1.217h-1.894c0.032-0.844,0.185-1.523,0.458-2.043
			c0.52-0.989,1.444-1.484,2.771-1.484c1.049,0,1.884,0.291,2.504,0.872c0.62,0.581,0.931,1.351,0.931,2.308
			c0,0.733-0.219,1.385-0.658,1.955c-0.288,0.378-0.76,0.799-1.417,1.264l-0.781,0.557c-0.489,0.346-0.823,0.597-1.003,0.752
			c-0.18,0.152-0.332,0.334-0.455,0.539h4.327v1.717h-6.788C21.454,88.371,21.606,87.721,21.894,87.133z"/>
	</g>
	<g>
		<path fill="#00AEEF" d="M21.894,88.133c0.278-0.66,0.934-1.359,1.969-2.098c0.898-0.643,1.479-1.104,1.743-1.381
			c0.406-0.434,0.608-0.907,0.608-1.422c0-0.42-0.116-0.771-0.349-1.047c-0.232-0.277-0.565-0.416-0.998-0.416
			c-0.592,0-0.996,0.221-1.21,0.662c-0.123,0.256-0.196,0.659-0.219,1.217h-1.894c0.032-0.844,0.185-1.523,0.458-2.043
			c0.52-0.989,1.444-1.484,2.771-1.484c1.049,0,1.884,0.291,2.504,0.872c0.62,0.581,0.931,1.351,0.931,2.308
			c0,0.733-0.219,1.385-0.658,1.955c-0.288,0.378-0.76,0.799-1.417,1.264l-0.781,0.557c-0.489,0.346-0.823,0.597-1.003,0.752
			c-0.18,0.152-0.332,0.334-0.455,0.539h4.327v1.717h-6.788C21.454,89.371,21.606,88.721,21.894,88.133z"/>
	</g>
	<g>
		<path fill="#E7E4DD" d="M417.002,19.016H5.001c-2.209,0-4,1.791-4,4s1.791,4,4,4h412.001c2.209,0,4-1.791,4-4
			S419.211,19.016,417.002,19.016z"/>
		<g>
			<path fill="#EC0082" d="M5.001,20.016h412.001c2.038,0,3.701,1.529,3.949,3.5c0.021-0.166,0.051-0.328,0.051-0.5
				c0-2.209-1.791-4-4-4H5.001c-2.209,0-4,1.791-4,4c0,0.172,0.029,0.334,0.051,0.5C1.3,21.545,2.963,20.016,5.001,20.016z"/>
		</g>
		<circle fill="#E7E4DD" cx="25.001" cy="23.016" r="13"/>
		<path fill="#EC0082" d="M25.001,11.016c7.011,0,12.71,5.554,12.975,12.5c0.007-0.167,0.025-0.331,0.025-0.5c0-7.18-5.82-13-13-13
			s-13,5.82-13,13c0,0.169,0.019,0.333,0.025,0.5C12.291,16.569,17.99,11.016,25.001,11.016z"/>
		<g>
			<path fill="#FFFFFF" d="M21.896,27.133c0.278-0.661,0.934-1.36,1.969-2.099c0.898-0.643,1.479-1.103,1.743-1.381
				c0.406-0.433,0.608-0.907,0.608-1.422c0-0.419-0.116-0.768-0.349-1.046c-0.233-0.278-0.565-0.417-0.998-0.417
				c-0.592,0-0.996,0.221-1.21,0.663c-0.123,0.255-0.196,0.661-0.219,1.217h-1.894c0.032-0.843,0.185-1.524,0.458-2.044
				c0.52-0.989,1.444-1.483,2.771-1.483c1.049,0,1.884,0.291,2.504,0.872c0.62,0.581,0.931,1.35,0.931,2.307
				c0,0.734-0.219,1.385-0.658,1.955c-0.288,0.378-0.76,0.8-1.417,1.265l-0.781,0.554c-0.489,0.346-0.823,0.597-1.003,0.752
				c-0.18,0.155-0.332,0.335-0.455,0.54h4.327v1.716h-6.788C21.456,28.371,21.609,27.721,21.896,27.133z"/>
		</g>
		<g>
			<path fill="#75747C" d="M21.896,26.133c0.278-0.661,0.934-1.36,1.969-2.099c0.898-0.643,1.479-1.103,1.743-1.381
				c0.406-0.433,0.608-0.907,0.608-1.422c0-0.419-0.116-0.768-0.349-1.046c-0.233-0.278-0.565-0.417-0.998-0.417
				c-0.592,0-0.996,0.221-1.21,0.663c-0.123,0.255-0.196,0.661-0.219,1.217h-1.894c0.032-0.843,0.185-1.524,0.458-2.044
				c0.52-0.989,1.444-1.483,2.771-1.483c1.049,0,1.884,0.291,2.504,0.872c0.62,0.581,0.931,1.35,0.931,2.307
				c0,0.734-0.219,1.385-0.658,1.955c-0.288,0.378-0.76,0.8-1.417,1.265l-0.781,0.554c-0.489,0.346-0.823,0.597-1.003,0.752
				c-0.18,0.155-0.332,0.335-0.455,0.54h4.327v1.716h-6.788C21.456,27.371,21.609,26.721,21.896,26.133z"/>
		</g>
	</g>
	<path fill="#C76825" d="M83,41.016H25.001c-7.18,0-13,5.82-13,13c0,7.179,5.82,13,13,13H83c7.18,0,13-5.82,13-13
		C96,46.836,90.18,41.016,83,41.016z"/>
	<g>
		<path fill="#EC0082" d="M25.001,42.016H83c7.011,0,12.71,5.554,12.975,12.5c0.007-0.167,0.025-0.331,0.025-0.5
			c0-7.18-5.82-13-13-13H25.001c-7.18,0-13,5.82-13,13c0,0.169,0.019,0.333,0.025,0.5C12.291,47.569,17.99,42.016,25.001,42.016z"/>
	</g>
	<g>
		<path fill="#EC0082" d="M21.896,56.133c0.278-0.66,0.934-1.359,1.969-2.098c0.898-0.643,1.479-1.103,1.743-1.381
			c0.406-0.433,0.608-0.907,0.608-1.422c0-0.419-0.116-0.768-0.349-1.046c-0.233-0.278-0.565-0.417-0.998-0.417
			c-0.592,0-0.996,0.221-1.21,0.663c-0.123,0.255-0.196,0.661-0.219,1.217h-1.894c0.032-0.843,0.185-1.524,0.458-2.044
			c0.52-0.989,1.444-1.483,2.771-1.483c1.049,0,1.884,0.291,2.504,0.872c0.62,0.581,0.931,1.35,0.931,2.307
			c0,0.734-0.219,1.385-0.658,1.955c-0.288,0.378-0.76,0.8-1.417,1.266l-0.781,0.555c-0.489,0.346-0.823,0.597-1.003,0.752
			c-0.18,0.152-0.332,0.334-0.455,0.539h4.327v1.717h-6.788C21.456,57.371,21.608,56.721,21.896,56.133z"/>
		<path fill="#EC0082" d="M39.002,48.005l1.331,5.77l0.29,1.605l0.291-1.572l1.138-5.803h2.222l1.197,5.77l0.307,1.606l0.311-1.543
			l1.343-5.832h2.144L46.74,58.082h-2.016l-1.217-5.893l-0.355-1.948l-0.355,1.948l-1.217,5.893h-1.956l-2.857-10.077H39.002z"/>
		<path fill="#EC0082" d="M57.303,48.265c0.371,0.16,0.686,0.394,0.943,0.704c0.213,0.255,0.382,0.538,0.507,0.848
			c0.124,0.31,0.187,0.663,0.187,1.06c0,0.479-0.121,0.949-0.362,1.412c-0.241,0.463-0.64,0.79-1.196,0.981
			c0.465,0.187,0.794,0.452,0.988,0.796c0.194,0.344,0.291,0.87,0.291,1.575v0.678c0,0.461,0.019,0.771,0.056,0.938
			c0.056,0.262,0.185,0.451,0.389,0.574v0.254h-2.324c-0.064-0.225-0.109-0.402-0.137-0.541c-0.055-0.282-0.084-0.57-0.089-0.867
			l-0.014-0.938c-0.009-0.643-0.12-1.069-0.333-1.284s-0.613-0.321-1.2-0.321h-2.056v3.952h-2.058v-10.08h4.819
			C56.402,48.019,56.932,48.105,57.303,48.265z M52.951,49.755v2.707h2.266c0.45,0,0.788-0.055,1.013-0.164
			c0.398-0.191,0.597-0.57,0.597-1.135c0-0.611-0.193-1.021-0.578-1.23c-0.217-0.119-0.541-0.178-0.974-0.178H52.951z"/>
		<path fill="#EC0082" d="M62.877,58.082h-2.092V48.005h2.092V58.082z"/>
		<path fill="#EC0082" d="M72.167,48.005v1.784h-3.015v8.292h-2.119V49.79h-3.028v-1.784L72.167,48.005L72.167,48.005z"/>
		<path fill="#EC0082" d="M80.849,49.79h-5.332v2.14h4.895v1.75h-4.895v2.589h5.578v1.812h-7.636V48.005h7.39V49.79z"/>
	</g>
	<g>
		<path fill="#00AEEF" d="M21.896,57.133c0.278-0.66,0.934-1.359,1.969-2.098c0.898-0.643,1.479-1.104,1.743-1.381
			c0.406-0.433,0.608-0.907,0.608-1.422c0-0.419-0.116-0.768-0.349-1.046c-0.233-0.278-0.565-0.417-0.998-0.417
			c-0.592,0-0.996,0.221-1.21,0.663c-0.123,0.255-0.196,0.661-0.219,1.217h-1.894c0.032-0.843,0.185-1.524,0.458-2.044
			c0.52-0.989,1.444-1.483,2.771-1.483c1.049,0,1.884,0.291,2.504,0.872c0.62,0.581,0.931,1.35,0.931,2.307
			c0,0.734-0.219,1.385-0.658,1.955c-0.288,0.378-0.76,0.799-1.417,1.264l-0.781,0.557c-0.489,0.346-0.823,0.597-1.003,0.752
			c-0.18,0.152-0.332,0.334-0.455,0.539h4.327v1.717h-6.788C21.456,58.371,21.608,57.721,21.896,57.133z"/>
		<path fill="#00AEEF" d="M39.002,49.005l1.331,5.771l0.29,1.604l0.291-1.571l1.138-5.804h2.222l1.197,5.771l0.307,1.605
			l0.311-1.543l1.343-5.832h2.144L46.74,59.082h-2.016l-1.217-5.893l-0.355-1.948l-0.355,1.948l-1.217,5.893h-1.956l-2.857-10.077
			H39.002z"/>
		<path fill="#00AEEF" d="M57.303,49.265c0.371,0.16,0.686,0.394,0.943,0.704c0.213,0.255,0.382,0.538,0.507,0.848
			c0.124,0.31,0.187,0.663,0.187,1.06c0,0.479-0.121,0.949-0.362,1.412c-0.241,0.463-0.64,0.79-1.196,0.981
			c0.465,0.187,0.794,0.453,0.988,0.796c0.194,0.345,0.291,0.869,0.291,1.574v0.678c0,0.461,0.019,0.771,0.056,0.937
			c0.056,0.261,0.185,0.451,0.389,0.574v0.254h-2.324c-0.064-0.224-0.109-0.403-0.137-0.541c-0.055-0.282-0.084-0.571-0.089-0.867
			l-0.014-0.938c-0.009-0.643-0.12-1.068-0.333-1.283c-0.213-0.214-0.613-0.32-1.2-0.32h-2.056v3.951h-2.058V49.005h4.819
			C56.402,49.019,56.932,49.105,57.303,49.265z M52.951,50.755v2.707h2.266c0.45,0,0.788-0.055,1.013-0.164
			c0.398-0.191,0.597-0.57,0.597-1.135c0-0.611-0.193-1.021-0.578-1.23c-0.217-0.119-0.541-0.178-0.974-0.178H52.951z"/>
		<path fill="#00AEEF" d="M62.877,59.082h-2.092V49.005h2.092V59.082z"/>
		<path fill="#00AEEF" d="M72.167,49.005v1.784h-3.015v8.292h-2.119V50.79h-3.028v-1.784L72.167,49.005L72.167,49.005z"/>
		<path fill="#00AEEF" d="M80.849,50.79h-5.332v2.14h4.895v1.75h-4.895v2.59h5.578v1.812h-7.636V49.005h7.39V50.79z"/>
	</g>
</g>
</svg>
