<?xml version="1.0" encoding="utf-8"?>
<!-- Generator: Adobe Illustrator 15.1.0, SVG Export Plug-In . SVG Version: 6.00 Build 0)  -->
<!DOCTYPE svg PUBLIC "-//W3C//DTD SVG 1.1//EN" "http://www.w3.org/Graphics/SVG/1.1/DTD/svg11.dtd">
<svg version="1.1" id="Layer_1" xmlns="http://www.w3.org/2000/svg" xmlns:xlink="http://www.w3.org/1999/xlink" x="0px" y="0px"
	 width="422px" height="77px" viewBox="0 0 422 77" enable-background="new 0 0 422 77" xml:space="preserve">
<g>
	<rect y="0.016" fill="#FFFFFF" width="422" height="77"/>
	<path fill="#E7E4DD" d="M417.002,50.016H5.001c-2.209,0-4,1.791-4,4s1.791,4,4,4h412.001c2.209,0,4-1.791,4-4
		S419.211,50.016,417.002,50.016z"/>
	<g>
		<path fill="#EC0082" d="M5.001,51.016h412.001c2.038,0,3.701,1.529,3.949,3.5c0.021-0.166,0.051-0.328,0.051-0.5
			c0-2.209-1.791-4-4-4H5.001c-2.209,0-4,1.791-4,4c0,0.172,0.029,0.334,0.051,0.5C1.3,52.545,2.963,51.016,5.001,51.016z"/>
	</g>
	<path fill="#75747C" d="M5.001,51c-2.038,0-3.701,1.529-3.949,3.5C1.03,54.334,1.001,54.172,1.001,54c0,2.209,1.791,4,4,4H17v-7
		H5.001z"/>
	<path fill="#EC0082" d="M5.001,51H17v-1H5.001c-2.209,0-4,1.791-4,4c0,0.172,0.029,0.334,0.051,0.5C1.3,52.529,2.963,51,5.001,51z"
		/>
	<g>
		<path fill="#E7E4DD" d="M417.002,19.016H5.001c-2.209,0-4,1.791-4,4s1.791,4,4,4h412.001c2.209,0,4-1.791,4-4
			S419.211,19.016,417.002,19.016z"/>
		<g>
			<path fill="#EC0082" d="M5.001,20.016h412.001c2.038,0,3.701,1.529,3.949,3.5c0.021-0.166,0.051-0.328,0.051-0.5
				c0-2.209-1.791-4-4-4H5.001c-2.209,0-4,1.791-4,4c0,0.172,0.029,0.334,0.051,0.5C1.3,21.545,2.963,20.016,5.001,20.016z"/>
		</g>
		<circle fill="#E7E4DD" cx="25.001" cy="23.016" r="13"/>
		<path fill="#EC0082" d="M25.001,11.016c7.011,0,12.71,5.554,12.975,12.5c0.007-0.167,0.025-0.331,0.025-0.5c0-7.18-5.82-13-13-13
			s-13,5.82-13,13c0,0.169,0.019,0.333,0.025,0.5C12.291,16.569,17.99,11.016,25.001,11.016z"/>
		<g>
			<path fill="#FFFFFF" d="M28.322,26.949h-1.121v2.133h-1.907v-2.133H21.37v-1.702l3.644-6.016h2.188v6.193h1.121v1.525H28.322z
				 M25.293,25.424v-4.27l-2.474,4.27H25.293z"/>
		</g>
		<g>
			<path fill="#75747C" d="M28.322,25.949h-1.121v2.133h-1.907v-2.133H21.37v-1.702l3.644-6.016h2.188v6.193h1.121v1.525H28.322z
				 M25.293,24.424v-4.27l-2.474,4.27H25.293z"/>
		</g>
	</g>
	<path fill="#C76825" d="M83,41.016H25.001c-7.18,0-13,5.82-13,13s5.82,13,13,13H83c7.18,0,13-5.82,13-13S90.18,41.016,83,41.016z"
		/>
	<g>
		<path fill="#EC0082" d="M25.001,42.016H83c7.011,0,12.71,5.555,12.975,12.5c0.007-0.166,0.025-0.33,0.025-0.5
			c0-7.18-5.82-13-13-13H25.001c-7.18,0-13,5.82-13,13c0,0.17,0.019,0.334,0.025,0.5C12.291,47.568,17.99,42.016,25.001,42.016z"/>
	</g>
	<g>
		<path fill="#EC0082" d="M28.321,55.949H27.2v2.133h-1.907v-2.133h-3.924v-1.703l3.644-6.016H27.2v6.191h1.121V55.949
			L28.321,55.949z M25.293,54.424v-4.27l-2.474,4.27H25.293z"/>
		<path fill="#EC0082" d="M39.149,54.971c0.065,0.461,0.193,0.805,0.384,1.033c0.349,0.414,0.947,0.621,1.794,0.621
			c0.507,0,0.919-0.055,1.235-0.164c0.6-0.209,0.9-0.6,0.9-1.168c0-0.333-0.147-0.591-0.441-0.773
			c-0.294-0.178-0.761-0.334-1.399-0.471l-1.091-0.24c-1.072-0.234-1.809-0.494-2.21-0.771c-0.679-0.465-1.019-1.192-1.019-2.183
			c0-0.901,0.332-1.65,0.997-2.248c0.664-0.599,1.64-0.896,2.927-0.896c1.075,0,1.992,0.281,2.75,0.846
			c0.758,0.563,1.157,1.381,1.194,2.449h-2.023c-0.038-0.604-0.309-1.035-0.813-1.291c-0.336-0.169-0.754-0.254-1.254-0.254
			c-0.556,0-1,0.107-1.332,0.328c-0.332,0.219-0.498,0.523-0.498,0.916c0,0.359,0.164,0.629,0.491,0.809
			c0.21,0.117,0.656,0.258,1.338,0.418l1.769,0.416c0.775,0.182,1.356,0.426,1.743,0.73c0.601,0.474,0.901,1.158,0.901,2.057
			c0,0.922-0.356,1.688-1.067,2.295c-0.712,0.607-1.717,0.912-3.016,0.912c-1.327,0-2.37-0.301-3.13-0.898
			c-0.76-0.598-1.14-1.422-1.14-2.471h2.01V54.971z"/>
		<path fill="#EC0082" d="M46.956,58.082V48.006h2.092v3.842h3.917v-3.842h2.092v10.076h-2.092v-4.498h-3.917v4.498H46.956z"/>
		<path fill="#EC0082" d="M59.961,48.006h2.382l3.565,10.076h-2.283L62.96,56.01h-3.71l-0.683,2.072h-2.202L59.961,48.006z
			 M59.823,54.273h2.581l-1.273-3.965L59.823,54.273z"/>
		<path fill="#EC0082" d="M73.647,48.266c0.371,0.159,0.686,0.396,0.943,0.703c0.213,0.256,0.382,0.538,0.507,0.848
			c0.124,0.312,0.187,0.664,0.187,1.062c0,0.479-0.121,0.949-0.362,1.411c-0.241,0.462-0.64,0.79-1.196,0.979
			c0.465,0.188,0.794,0.451,0.988,0.797c0.194,0.346,0.291,0.869,0.291,1.574v0.678c0,0.461,0.019,0.771,0.056,0.938
			c0.056,0.262,0.185,0.451,0.389,0.574v0.254h-2.324c-0.064-0.225-0.109-0.402-0.137-0.541c-0.055-0.282-0.084-0.57-0.089-0.867
			l-0.014-0.938c-0.009-0.643-0.12-1.069-0.333-1.284c-0.213-0.214-0.613-0.32-1.2-0.32h-2.056v3.951h-2.058V48.006h4.819
			C72.747,48.02,73.276,48.105,73.647,48.266z M69.296,49.756v2.707h2.266c0.45,0,0.788-0.055,1.013-0.164
			c0.398-0.191,0.597-0.57,0.597-1.135c0-0.611-0.193-1.021-0.578-1.23c-0.217-0.119-0.541-0.178-0.974-0.178H69.296z"/>
		<path fill="#EC0082" d="M84.752,49.789H79.42v2.141h4.895v1.75H79.42v2.59h5.578v1.812h-7.636V48.006h7.39V49.789z"/>
	</g>
	<g>
		<path fill="#00AEEF" d="M28.321,56.949H27.2v2.133h-1.907v-2.133h-3.924v-1.703l3.644-6.016H27.2v6.191h1.121V56.949
			L28.321,56.949z M25.293,55.424v-4.27l-2.474,4.27H25.293z"/>
		<path fill="#00AEEF" d="M39.149,55.971c0.065,0.461,0.193,0.805,0.384,1.033c0.349,0.414,0.947,0.621,1.794,0.621
			c0.507,0,0.919-0.055,1.235-0.164c0.6-0.209,0.9-0.6,0.9-1.168c0-0.333-0.147-0.591-0.441-0.773
			c-0.294-0.178-0.761-0.334-1.399-0.471l-1.091-0.24c-1.072-0.234-1.809-0.494-2.21-0.771c-0.679-0.465-1.019-1.192-1.019-2.183
			c0-0.901,0.332-1.65,0.997-2.248c0.664-0.599,1.64-0.896,2.927-0.896c1.075,0,1.992,0.281,2.75,0.846
			c0.758,0.563,1.157,1.381,1.194,2.449h-2.023c-0.038-0.604-0.309-1.035-0.813-1.291c-0.336-0.169-0.754-0.254-1.254-0.254
			c-0.556,0-1,0.107-1.332,0.328c-0.332,0.219-0.498,0.523-0.498,0.916c0,0.359,0.164,0.629,0.491,0.809
			c0.21,0.117,0.656,0.258,1.338,0.418l1.769,0.416c0.775,0.182,1.356,0.426,1.743,0.73c0.601,0.474,0.901,1.158,0.901,2.057
			c0,0.922-0.356,1.688-1.067,2.295c-0.712,0.607-1.717,0.912-3.016,0.912c-1.327,0-2.37-0.301-3.13-0.898
			c-0.76-0.598-1.14-1.422-1.14-2.471h2.01V55.971z"/>
		<path fill="#00AEEF" d="M46.956,59.082V49.006h2.092v3.842h3.917v-3.842h2.092v10.076h-2.092v-4.498h-3.917v4.498H46.956z"/>
		<path fill="#00AEEF" d="M59.961,49.006h2.382l3.565,10.076h-2.283L62.96,57.01h-3.71l-0.683,2.072h-2.202L59.961,49.006z
			 M59.823,55.273h2.581l-1.273-3.965L59.823,55.273z"/>
		<path fill="#00AEEF" d="M73.647,49.266c0.371,0.159,0.686,0.396,0.943,0.703c0.213,0.256,0.382,0.538,0.507,0.848
			c0.124,0.312,0.187,0.664,0.187,1.062c0,0.479-0.121,0.949-0.362,1.411c-0.241,0.462-0.64,0.79-1.196,0.979
			c0.465,0.188,0.794,0.451,0.988,0.797c0.194,0.346,0.291,0.869,0.291,1.574v0.678c0,0.461,0.019,0.771,0.056,0.938
			c0.056,0.262,0.185,0.451,0.389,0.574v0.254h-2.324c-0.064-0.225-0.109-0.402-0.137-0.541c-0.055-0.282-0.084-0.57-0.089-0.867
			l-0.014-0.938c-0.009-0.643-0.12-1.069-0.333-1.284c-0.213-0.214-0.613-0.32-1.2-0.32h-2.056v3.951h-2.058V49.006h4.819
			C72.747,49.02,73.276,49.105,73.647,49.266z M69.296,50.756v2.707h2.266c0.45,0,0.788-0.055,1.013-0.164
			c0.398-0.191,0.597-0.57,0.597-1.135c0-0.611-0.193-1.021-0.578-1.23c-0.217-0.119-0.541-0.178-0.974-0.178H69.296z"/>
		<path fill="#00AEEF" d="M84.752,50.789H79.42v2.141h4.895v1.75H79.42v2.59h5.578v1.812h-7.636V49.006h7.39V50.789z"/>
	</g>
</g>
</svg>
