<?xml version="1.0" encoding="utf-8"?>
<!-- Generator: Adobe Illustrator 15.1.0, SVG Export Plug-In . SVG Version: 6.00 Build 0)  -->
<!DOCTYPE svg PUBLIC "-//W3C//DTD SVG 1.1//EN" "http://www.w3.org/Graphics/SVG/1.1/DTD/svg11.dtd">
<svg version="1.1" id="Layer_1" xmlns="http://www.w3.org/2000/svg" xmlns:xlink="http://www.w3.org/1999/xlink" x="0px" y="0px"
	 width="78px" height="22px" viewBox="0 0 78 22" enable-background="new 0 0 78 22" xml:space="preserve">
<g>
	<path fill="#C66825" d="M11,21.5C5.21,21.5,0.5,16.79,0.5,11S5.21,0.5,11,0.5h56c5.79,0,10.5,4.71,10.5,10.5S72.79,21.5,67,21.5H11
		z"/>
	<path fill="#EC0082" d="M67,1c5.514,0,10,4.486,10,10c0,5.514-4.486,10-10,10H11C5.486,21,1,16.514,1,11C1,5.486,5.486,1,11,1H67
		 M67,0H11C4.925,0,0,4.925,0,11s4.925,11,11,11h56c6.075,0,11-4.925,11-11S73.075,0,67,0L67,0z"/>
</g>
<g>
	<path fill="#EC0082" d="M16.887,10.283c-0.505,0.422-1.228,0.633-2.166,0.633h-1.798v3.105H11.13V5.385h3.708
		c0.855,0,1.537,0.223,2.045,0.668c0.509,0.445,0.763,1.135,0.763,2.068C17.646,9.141,17.393,9.861,16.887,10.283z M15.51,7.172
		c-0.229-0.191-0.549-0.287-0.961-0.287h-1.626v2.543h1.626c0.412,0,0.732-0.104,0.961-0.311c0.229-0.207,0.343-0.535,0.343-0.984
		C15.853,7.684,15.738,7.363,15.51,7.172z"/>
	<path fill="#EC0082" d="M22.626,7.485c0.021,0.002,0.069,0.005,0.144,0.009v1.711c-0.105-0.012-0.199-0.02-0.281-0.023
		c-0.082-0.003-0.148-0.006-0.199-0.006c-0.672,0-1.123,0.219-1.354,0.656c-0.129,0.246-0.193,0.625-0.193,1.137v3.053h-1.682V7.635
		h1.594v1.113c0.258-0.426,0.482-0.717,0.674-0.873c0.312-0.262,0.719-0.393,1.219-0.393C22.578,7.482,22.604,7.483,22.626,7.485z"
		/>
	<path fill="#EC0082" d="M28.03,7.764c0.445,0.2,0.813,0.515,1.104,0.945c0.262,0.38,0.431,0.819,0.509,1.32
		c0.045,0.293,0.063,0.716,0.055,1.268h-4.651c0.026,0.641,0.249,1.09,0.668,1.348c0.255,0.16,0.562,0.24,0.921,0.24
		c0.38,0,0.689-0.098,0.927-0.293c0.13-0.105,0.244-0.252,0.344-0.439h1.705c-0.045,0.381-0.251,0.766-0.619,1.154
		c-0.572,0.621-1.373,0.934-2.402,0.934c-0.851,0-1.601-0.264-2.25-0.786c-0.649-0.522-0.975-1.376-0.975-2.557
		c0-1.106,0.293-1.955,0.88-2.545c0.587-0.591,1.348-0.886,2.284-0.886C27.084,7.465,27.585,7.564,28.03,7.764z M25.532,9.207
		c-0.236,0.243-0.385,0.572-0.445,0.988h2.877c-0.03-0.443-0.179-0.779-0.445-1.009c-0.266-0.229-0.596-0.345-0.99-0.345
		C26.1,8.842,25.768,8.964,25.532,9.207z"/>
	<path fill="#EC0082" d="M34.597,7.635h1.793l-2.307,6.387h-1.761l-2.29-6.387h1.875l1.33,4.711L34.597,7.635z"/>
	<path fill="#EC0082" d="M39.173,6.873H37.48V5.332h1.693V6.873z M37.479,7.635h1.693v6.387h-1.693V7.635z"/>
	<path fill="#EC0082" d="M45.07,7.764c0.445,0.2,0.812,0.515,1.104,0.945c0.264,0.38,0.432,0.819,0.51,1.32
		c0.045,0.293,0.062,0.716,0.056,1.268h-4.651c0.026,0.641,0.249,1.09,0.668,1.348c0.255,0.16,0.562,0.24,0.921,0.24
		c0.38,0,0.689-0.098,0.927-0.293c0.131-0.105,0.244-0.252,0.346-0.439h1.703c-0.045,0.381-0.25,0.766-0.617,1.154
		c-0.572,0.621-1.373,0.934-2.402,0.934c-0.851,0-1.601-0.264-2.25-0.786c-0.648-0.522-0.975-1.376-0.975-2.557
		c0-1.106,0.293-1.955,0.88-2.545c0.587-0.591,1.348-0.886,2.282-0.886C44.125,7.465,44.626,7.564,45.07,7.764z M42.573,9.207
		c-0.236,0.243-0.386,0.572-0.445,0.988h2.877c-0.03-0.443-0.179-0.779-0.444-1.009c-0.267-0.229-0.597-0.345-0.99-0.345
		C43.141,8.842,42.809,8.964,42.573,9.207z"/>
	<path fill="#EC0082" d="M50.715,7.635h1.693l0.973,4.6l0.996-4.6h1.74l-1.852,6.387h-1.719L51.546,9.37l-1.014,4.651h-1.734
		l-1.793-6.388h1.793l0.996,4.582L50.715,7.635z"/>
	<path fill="#EC0082" d="M65.809,11.781l-3.996,3.453v-2.777l2.386-2.051l-2.386-2.062V5.566l3.996,3.457V11.781z"/>
</g>
<g>
	<path fill="#00AEEF" d="M16.887,11.283c-0.505,0.422-1.228,0.633-2.166,0.633h-1.798v3.105H11.13V6.385h3.708
		c0.855,0,1.537,0.223,2.045,0.668c0.509,0.445,0.763,1.135,0.763,2.068C17.646,10.141,17.393,10.861,16.887,11.283z M15.51,8.172
		c-0.229-0.191-0.549-0.287-0.961-0.287h-1.626v2.543h1.626c0.412,0,0.732-0.104,0.961-0.311c0.229-0.207,0.343-0.535,0.343-0.984
		C15.853,8.684,15.738,8.363,15.51,8.172z"/>
	<path fill="#00AEEF" d="M22.626,8.485c0.021,0.002,0.069,0.005,0.144,0.009v1.711c-0.105-0.012-0.199-0.02-0.281-0.023
		c-0.082-0.003-0.148-0.006-0.199-0.006c-0.672,0-1.123,0.219-1.354,0.656c-0.129,0.246-0.193,0.625-0.193,1.137v3.053h-1.682V8.635
		h1.594v1.113c0.258-0.426,0.482-0.717,0.674-0.873c0.312-0.262,0.719-0.393,1.219-0.393C22.578,8.482,22.604,8.483,22.626,8.485z"
		/>
	<path fill="#00AEEF" d="M28.03,8.764c0.445,0.2,0.813,0.515,1.104,0.945c0.262,0.38,0.431,0.819,0.509,1.32
		c0.045,0.293,0.063,0.716,0.055,1.268h-4.651c0.026,0.641,0.249,1.09,0.668,1.348c0.255,0.16,0.562,0.24,0.921,0.24
		c0.38,0,0.689-0.098,0.927-0.293c0.13-0.105,0.244-0.252,0.344-0.439h1.705c-0.045,0.381-0.251,0.766-0.619,1.154
		c-0.572,0.621-1.373,0.934-2.402,0.934c-0.851,0-1.601-0.264-2.25-0.786c-0.649-0.522-0.975-1.376-0.975-2.558
		c0-1.105,0.293-1.956,0.88-2.544c0.587-0.591,1.348-0.886,2.284-0.886C27.084,8.465,27.585,8.564,28.03,8.764z M25.532,10.207
		c-0.236,0.243-0.385,0.572-0.445,0.988h2.877c-0.03-0.443-0.179-0.779-0.445-1.009c-0.266-0.229-0.596-0.345-0.99-0.345
		C26.1,9.842,25.768,9.964,25.532,10.207z"/>
	<path fill="#00AEEF" d="M34.597,8.635h1.793l-2.307,6.387h-1.761l-2.29-6.387h1.875l1.33,4.711L34.597,8.635z"/>
	<path fill="#00AEEF" d="M39.173,7.873H37.48V6.332h1.693V7.873z M37.479,8.635h1.693v6.387h-1.693V8.635z"/>
	<path fill="#00AEEF" d="M45.07,8.764c0.445,0.2,0.812,0.515,1.104,0.945c0.264,0.38,0.432,0.819,0.51,1.32
		c0.045,0.293,0.062,0.716,0.056,1.268h-4.651c0.026,0.641,0.249,1.09,0.668,1.348c0.255,0.16,0.562,0.24,0.921,0.24
		c0.38,0,0.689-0.098,0.927-0.293c0.131-0.105,0.244-0.252,0.346-0.439h1.703c-0.045,0.381-0.25,0.766-0.617,1.154
		c-0.572,0.621-1.373,0.934-2.402,0.934c-0.851,0-1.601-0.264-2.25-0.786c-0.648-0.522-0.975-1.376-0.975-2.558
		c0-1.105,0.293-1.956,0.88-2.544c0.587-0.591,1.348-0.886,2.282-0.886C44.125,8.465,44.626,8.564,45.07,8.764z M42.573,10.207
		c-0.236,0.243-0.386,0.572-0.445,0.988h2.877c-0.03-0.443-0.179-0.779-0.444-1.009c-0.267-0.229-0.597-0.345-0.99-0.345
		C43.141,9.842,42.809,9.964,42.573,10.207z"/>
	<path fill="#00AEEF" d="M50.715,8.635h1.693l0.973,4.6l0.996-4.6h1.74l-1.852,6.387h-1.719l-1.002-4.65l-1.014,4.65h-1.734
		l-1.793-6.387h1.793l0.996,4.582L50.715,8.635z"/>
	<path fill="#00AEEF" d="M65.809,12.781l-3.996,3.453v-2.777l2.386-2.051l-2.386-2.062V6.566l3.996,3.457V12.781z"/>
</g>
</svg>
